{
.appVersion = "3087";
.formatVersion = 3;
axes = (
{
name = Weight;
tag = wght;
}
);
customParameters = (
{
name = "Variable Font Origin";
value = "19FA402B-9607-46D9-AAD6-815AECBA5B6B";
},
{
name = "Use Typo Metrics";
value = 1;
}
);
date = "2022-05-27 18:49:23 +0000";
familyName = "26F Galaxy Sans";
featurePrefixes = (
{
automatic = 1;
code = "languagesystem DFLT dflt;

languagesystem latn dflt;
languagesystem latn ROM;
languagesystem latn MOL;
languagesystem latn CAT;
languagesystem latn NLD;
languagesystem latn AZE;
languagesystem latn CRT;
languagesystem latn KAZ;
languagesystem latn TAT;
languagesystem latn TRK;
";
name = Languagesystems;
}
);
features = (
{
automatic = 1;
code = "feature locl;
feature subs;
feature sinf;
feature sups;
feature numr;
feature dnom;
feature frac;
feature ordn;
feature ss01;
";
tag = aalt;
},
{
code = "lookup locl_latn_0 {
	script latn;
	language ROM;
	sub Scedilla by Scommaaccent;
	sub Tcedilla by Tcommaaccent;
	language MOL;
	sub Scedilla by Scommaaccent;
	sub Tcedilla by Tcommaaccent;
} locl_latn_0;

lookup locl_latn_1 {
	script latn;
	language CAT;
	sub  L' periodcentered' L by Ldot;
} locl_latn_1;

lookup locl_latn_2 {
	script latn;
	language NLD;
	sub Iacute J' by Jacute;
} locl_latn_2;

lookup locl_latn_3 {
	script latn;
	language AZE;
	sub i by Idotaccent;
	language CRT;
	sub i by Idotaccent;
	language KAZ;
	sub i by Idotaccent;
	language TAT;
	sub i by Idotaccent;
	language TRK;
	sub i by Idotaccent;
} locl_latn_3;
";
tag = locl;
},
{
automatic = 1;
code = "sub zero by zeroinferior;
sub one by oneinferior;
sub two by twoinferior;
sub three by threeinferior;
sub four by fourinferior;
sub five by fiveinferior;
sub six by sixinferior;
sub seven by seveninferior;
sub eight by eightinferior;
sub nine by nineinferior;
";
tag = subs;
},
{
automatic = 1;
code = "sub zero by zeroinferior;
sub one by oneinferior;
sub two by twoinferior;
sub three by threeinferior;
sub four by fourinferior;
sub five by fiveinferior;

glyphs = (
{
color = 4;
glyphname = A;
kernLeft = A;
kernRight = A;
lastChange = "2022-06-05 19:15:00 +0000";
layers = (
{
anchors = (
{
name = bottom;
pos = (676,0);
},
{
name = ogonek;
pos = (1267,0);
},
{
name = top;
pos = (676,1400);
}
);
layerId = m01;
shapes = (
{
attr = {
fillColor = (0,255);
lineCapEnd = "2";
lineCapStart = "2";
strokeHeight = 50;
strokeWidth = 50;
};
closed = 0;
nodes = (
(375,711,l),
(76,4,l)
);
},
{
attr = {
fillColor = (0,255);
lineCapEnd = "2";
lineCapStart = "2";
strokeHeight = 50;
strokeWidth = 50;
};
closed = 0;
nodes = (
(679,1396,l),
(1276,4,l)
);
}
);
width = 1352;
},
{
anchors = (
{
name = bottom;
pos = (706,0);
},
{
name = ogonek;
pos = (1283,-1);
},
{
name = top;
pos = (706,1400);
}
);
layerId = "19FA402B-9607-46D9-AAD6-815AECBA5B6B";
name = Regular;
shapes = (
{
attr = {
fillColor = (0,255);
lineCapEnd = "2";
lineCapStart = "2";
strokeHeight = 120;
strokeWidth = 120;
};
closed = 0;
nodes = (
(405,711,l),
(109,10,l)
);
},
{
attr = {
fillColor = (0,255);
lineCapEnd = "2";
lineCapStart = "2";
strokeHeight = 120;
strokeWidth = 120;
};
closed = 0;
nodes = (
(712,1390,l),
(1303,10,l)
);
}
);
width = 1412;
},
{
anchors = (
{
name = bottom;
pos = (768,0);
},
{
name = ogonek;
pos = (1289,3);
},
{
name = top;
pos = (768,1400);
}
);
layerId = "FF87E3F2-B049-41CB-BF2F-09DB15105515";
name = Black;
shapes = (
{
attr = {
fillColor = (0,255);
lineCapEnd = "2";
lineCapStart = "2";
strokeHeight = 300;
strokeWidth = 300;
};
closed = 0;
nodes = (
(497,711,l),
(178,28,l)
);
},
{
attr = {
fillColor = (0,255);
lineCapEnd = "2";
lineCapStart = "2";
strokeHeight = 300;
strokeWidth = 300;
};
closed = 0;
nodes = (
(732,1372,l),
(1358,28,l)
);
}
);
width = 1536;
}
);
unicode = (65,97);
},
{
color = 5;
glyphname = AE;
kernLeft = A;
kernRight = E;
lastChange = "2022-06-05 19:17:49 +0000";
layers = (
{
layerId = m01;
shapes = (
{
attr = {
fillColor = (0,255);
lineCapEnd = "2";
lineCapStart = "2";
strokeHeight = 50;
strokeWidth = 50;
};
closed = 0;
nodes = (
(693,1395,l),
(76,4,l)
);
},
{
attr = {
fillColor = (0,255);
lineCapEnd = "2";
lineCapStart = "1";
strokeHeight = 50;
strokeWidth = 50;
};
closed = 0;
nodes = (
(870,25,l),
(1565,25,l)
);
},
{
attr = {
fillColor = (0,255);
lineCapEnd = "3";
lineCapStart = "2";
strokeHeight = 50;
strokeWidth = 50;
};
closed = 0;
nodes = (
(870,758,l),
(870,53,l)
);
},
{
attr = {
fillColor = (0,255);
lineCapEnd = "2";
lineCapStart = "2";
strokeHeight = 50;
strokeWidth = 50;
};
closed = 0;
nodes = (
(1565,700,l),
(1143,700,l)
);
},
{
attr = {
fillColor = (0,255);
lineCapEnd = "1";
lineCapStart = "2";
strokeHeight = 50;
strokeWidth = 50;
};
closed = 0;
nodes = (
(1565,1375,l),
(684,1375,l)
);
}
);
width = 1638;
},
{
layerId = "19FA402B-9607-46D9-AAD6-815AECBA5B6B";
shapes = (
{
attr = {
fillColor = (0,255);
lineCapEnd = 2;
lineCapStart = 2;
strokeHeight = 120;
strokeWidth = 120;
};
closed = 0;
nodes = (
(717,1386,l),
(108,14,l)
);
},
{
attr = {
fillColor = (0,255);
lineCapEnd = "2";
lineCapStart = "1";
strokeHeight = 120;
strokeWidth = 120;
};
closed = 0;
nodes = (
(897,60,l),
(1594,60,l)
);
},
{
attr = {
fillColor = (0,255);
lineCapEnd = "3";
lineCapStart = "2";
strokeHeight = 120;
strokeWidth = 120;
};
closed = 0;
nodes = (
(897,760,l),
(897,120,l)
);
},
{
attr = {
fillColor = (0,255);
lineCapEnd = "2";
lineCapStart = "2";
strokeHeight = 120;
strokeWidth = 120;
};
closed = 0;
nodes = (
(1593,700,l),
(1170,700,l)
);
},
{
attr = {
fillColor = (0,255);
lineCapEnd = "1";
lineCapStart = "2";
strokeHeight = 120;
strokeWidth = 120;
};
closed = 0;
nodes = (
(1594,1340,l),
(697,1340,l)
);
}
);
width = 1680;
},
{
layerId = "FF87E3F2-B049-41CB-BF2F-09DB15105515";
shapes = (
{
attr = {
fillColor = (0,255);
lineCapEnd = "2";
lineCapStart = "2";
strokeHeight = 300;
strokeWidth = 300;
};
closed = 0;
nodes = (
(713,1376,l),
(186,24,l)
);
},
{
attr = {
fillColor = (0,255);
lineCapEnd = "2";
lineCapStart = "1";
strokeHeight = 300;
strokeWidth = 300;
};
closed = 0;
nodes = (
(1003,150,l),
(1821,150,l)
);
},
{
attr = {
fillColor = (0,255);
lineCapEnd = "3";
lineCapStart = "2";
strokeHeight = 300;
strokeWidth = 300;
};
closed = 0;
nodes = (
(1003,840,l),
(1003,290,l)
);
},
{
attr = {
fillColor = (0,255);
lineCapEnd = "2";
lineCapStart = "2";
strokeHeight = 300;
strokeWidth = 300;
};
closed = 0;
nodes = (
(1821,700,l),
(1286,700,l)
);
},
{
attr = {
fillColor = (0,255);
lineCapEnd = "1";
lineCapStart = "2";
strokeHeight = 300;
strokeWidth = 300;
};
closed = 0;
nodes = (
(1821,1250,l),
(663,1250,l)
);
}
);
width = 1938;
}
);
metricLeft = A;
metricRight = E;
unicode = (198,230);
},
{
color = 4;
glyphname = B;
kernLeft = I;
kernRight = B;
lastChange = "2022-06-05 19:17:41 +0000";
layers = (
{
anchors = (
{
name = bottom;
pos = (594,0);
},
{
name = center;
pos = (594,700);
},
{
name = top;
pos = (594,1400);
}
);
layerId = m01;
shapes = (
{
attr = {
fillColor = (0,255);
lineCapEnd = "2";
lineCapStart = "2";
strokeHeight = 50;
strokePos = "1";
strokeWidth = 50;
};
closed = 0;
nodes = (
(85,1000,l),
(85,3,l)
);
},
{
attr = {
fillColor = (0,255);
lineCapStart = "2";
strokeHeight = 50;
strokePos = "0";
strokeWidth = 50;
};
closed = 0;
nodes = (
(535,50,l),
(795,50,ls),
(967,50,o),
(1107,190,o),
(1107,348,cs),
(1107,507,o),
(967,675,o),
(795,675,cs),
(615,675,l)
);
},
{
attr = {
fillColor = (0,255);
lineCapEnd = "2";
lineCapStart = "1";
strokeHeight = 50;
strokePos = "1";
strokeWidth = 50;
};
closed = 0;
nodes = (
(110,1350,l),
(695,1350,ls),
(867,1350,o),
(1007,1211,o),
(1007,1038,cs),
(1007,865,o),
(867,725,o),
(695,725,cs),
(425,725,l)
);
}
);
width = 1200;
},
{
anchors = (
{
name = bottom;
pos = (620,0);
},
{
name = center;
pos = (620,700);
},
{
name = top;
pos = (570,1400);
}
);
layerId = "19FA402B-9607-46D9-AAD6-815AECBA5B6B";
name = Regular;
shapes = (
{
attr = {
fillColor = (0,255);
lineCapEnd = "2";
lineCapStart = "2";
strokeHeight = 120;
strokePos = 1;
strokeWidth = 120;
};
closed = 0;
nodes = (
(100,1000,l),
(100,6,l)
);
},
{
attr = {
fillColor = (0,255);
lineCapStart = "2";
strokeHeight = 120;
strokePos = 0;
strokeWidth = 120;
};
closed = 0;
nodes = (
(550,120,l),
(810,120,ls),
(954,120,o),
(1070,236,o),
(1070,380,cs),
(1070,524,o),
(954,640,o),
(810,640,cs),
(630,640,l)
);
},
{
attr = {
fillColor = (0,255);
lineCapEnd = "2";
lineCapStart = "1";
strokeHeight = 120;
strokePos = 1;
strokeWidth = 120;
};
closed = 0;
nodes = (
(160,1280,l),
(710,1280,ls),
(854,1280,o),
(970,1164,o),
(970,1020,cs),
(970,876,o),
(854,760,o),
(710,760,cs),
(440,760,l)
);
}
);
width = 1240;
},
{
anchors = (
{
name = bottom;
pos = (630,0);
},
{
name = center;
pos = (630,700);
},
{
name = top;
pos = (630,1400);
}
);
layerId = "FF87E3F2-B049-41CB-BF2F-09DB15105515";
shapes = (
{
attr = {
fillColor = (0,255);
lineCapEnd = "2";
lineCapStart = "2";
strokeHeight = 300;
strokePos = "1";
strokeWidth = 300;
};
closed = 0;
nodes = (
(110,920,l),
(110,15,l)
);
},
{
attr = {
fillColor = (0,255);
lineCapStart = "2";
strokeHeight = 300;
strokePos = "0";
strokeWidth = 300;
};
closed = 0;
nodes = (
(589,300,l),
(800,300,ls),
(869,300,o),
(925,357,o),
(925,426,cs),
(925,495,o),
(869,551,o),
(800,551,cs),
(669,551,l)
);
},
{
attr = {
fillColor = (0,255);
lineCapEnd = "2";
lineCapStart = "1";
strokeHeight = 300;
strokePos = "1";
strokeWidth = 300;
};
closed = 0;
nodes = (
(260,1100,l),
(720,1100,ls),
(788,1100,o),
(844,1044,o),
(844,976,cs),
(844,907,o),
(788,851,o),
(720,851,cs),
(550,851,l)
);
}
);
width = 1280;
}
);
metricLeft = H;
metricRight = "=H/2";
unicode = (66,98);
},
{
color = 4;
glyphname = C;
kernLeft = O;
kernRight = C;
lastChange = "2022-06-05 19:17:41 +0000";
layers = (
{
anchors = (
{
name = bottom;
pos = (594,0);
},
{
name = top;
pos = (694,1400);
}
);
layerId = m01;
shapes = (
{
closed = 1;
nodes = (
(1118,0,ls),
(1132,0,o),
(1143,11,o),
(1143,25,cs),
(1143,39,o),
(1132,50,o),
(1118,50,cs),
(764,50,ls),
(405,50,o),
(114,341,o),
(114,700,cs),
(114,1052,o),
(393,1338,o),
(742,1350,cs),
(756,1350,o),
(767,1361,o),
(767,1375,cs),
(767,1389,o),
(754,1400,o),
(741,1400,cs),
(365,1387,o),
(64,1079,o),
(64,700,cs),
(64,313,o),
(377,0,o),
(764,0,cs)
);
},
{
closed = 1;
nodes = (
(1133,1350,o),
(1144,1361,o),
(1144,1375,cs),
(1144,1389,o),
(1133,1400,o),
(1119,1400,cs),
(1105,1400,o),
(1094,1389,o),
(1094,1375,cs),
(1094,1361,o),
(1105,1350,o),
(1119,1350,cs)
);
}
);
width = 1188;
},
{
anchors = (
{
name = bottom;
pos = (631,0);
},
{
name = top;
pos = (691,1400);
}
);
layerId = "19FA402B-9607-46D9-AAD6-815AECBA5B6B";
name = Regular;
shapes = (
{
closed = 1;
nodes = (
(1134,0,ls),
(1167,0,o),
(1194,27,o),
(1194,60,cs),
(1194,93,o),
(1167,120,o),
(1134,120,cs),
(780,120,ls),
(460,120,o),
(200,380,o),
(200,700,cs),
(200,1004,o),
(434,1253,o),
(731,1278,cs),
(762,1281,o),
(786,1306,o),
(786,1338,cs),
(786,1374,o),
(755,1400,o),
(721,1398,cs),
(362,1368,o),
(80,1066,o),
(80,700,cs),
(80,314,o),
(394,0,o),
(780,0,cs)
);
},
{
closed = 1;
nodes = (
(1114,1280,o),
(1141,1307,o),
(1141,1340,cs),
(1141,1373,o),
(1114,1400,o),
(1081,1400,cs),
(1048,1400,o),
(1021,1373,o),
(1021,1340,cs),
(1021,1307,o),
(1048,1280,o),
(1081,1280,cs)
);
}
);
width = 1244;
},
{
anchors = (
{
name = bottom;
pos = (631,0);
},
{
name = top;
pos = (731,1400);
}
);
layerId = "FF87E3F2-B049-41CB-BF2F-09DB15105515";
shapes = (
{
closed = 1;
nodes = (
(1056,0,ls),
(1139,0,o),
(1206,67,o),
(1206,150,cs),
(1206,233,o),
(1139,300,o),
(1056,300,cs),
(807,300,ls),
(582,300,o),
(400,483,o),
(400,708,cs),
(400,899,o),
(532,1060,o),
(709,1104,cs),
(775,1120,o),
(823,1179,o),
(823,1250,cs),
(823,1347,o),
(731,1420,o),
(637,1396,cs),
(329,1319,o),
(100,1040,o),
(100,708,cs),
(100,317,o),
(416,0,o),
(807,0,cs)
);
},
{
closed = 1;
nodes = (
(1139,1100,o),
(1206,1167,o),
(1206,1250,cs),
(1206,1333,o),
(1139,1400,o),
(1056,1400,cs),
(973,1400,o),
(906,1333,o),
(906,1250,cs),
(906,1167,o),
(973,1100,o),
(1056,1100,cs)
);
}
);
width = 1270;
}
);
metricLeft = O;
unicode = (67,99);
},
{
color = 4;
glyphname = D;
kernLeft = I;
kernRight = O;
lastChange = "2022-06-05 19:17:41 +0000";
layers = (
{
anchors = (
{
name = bottom;
pos = (623,0);
},
{
name = center;
pos = (623,700);
},
{
name = top;
pos = (573,1400);
}
);
layerId = m01;
shapes = (
{
attr = {
fillColor = (0,255);
lineCapEnd = "2";
lineCapStart = "2";
strokeHeight = 50;
strokePos = "0";
strokeWidth = 50;
};
closed = 0;
nodes = (
(87,3,l),
(87,791,l)
);
},
{
attr = {
fillColor = (0,255);
lineCapEnd = "1";
lineCapStart = "2";
strokeHeight = "50\\";
strokePos = 1;
strokeWidth = 50;
};
closed = 0;
nodes = (
(87,1350,l),
(506,1350,ls),
(865,1350,o),
(1156,1059,o),
(1156,700,cs),
(1156,341,o),
(865,50,o),
(506,50,c)
);
}
);
width = 1270;
},
{
anchors = (
{
name = bottom;
pos = (643,0);
},
{
name = center;
pos = (643,700);
},
{
name = top;
pos = (583,1400);
}
);
layerId = "19FA402B-9607-46D9-AAD6-815AECBA5B6B";
name = Regular;
shapes = (
{
attr = {
fillColor = (0,255);
lineCapEnd = "2";
lineCapStart = "2";
strokeHeight = 120;
strokePos = 0;
strokeWidth = 120;
};
closed = 0;
nodes = (
(100,6,l),
(100,791,l)
);
},
{
attr = {
fillColor = (0,255);
lineCapEnd = "1";
lineCapStart = 2;
strokeHeight = 120;
strokePos = 1;
strokeWidth = 120;
};
closed = 0;
nodes = (
(106,1280,l),
(525,1280,ls),
(845,1280,o),
(1105,1020,o),
(1105,700,cs),
(1105,380,o),
(845,120,o),
(525,120,c)
);
}
);
width = 1305;
},
{
anchors = (
{
name = bottom;
pos = (743,0);
},
{
name = center;
pos = (743,700);
},
{
name = top;
pos = (713,1400);
}
);
layerId = "FF87E3F2-B049-41CB-BF2F-09DB15105515";
shapes = (
{
attr = {
fillColor = (0,255);
lineCapEnd = "2";
lineCapStart = "2";
strokeHeight = 300;
strokePos = "0";
strokeWidth = 300;
};
closed = 0;
nodes = (
(125,15,l),
(125,791,l)
);
},
{
attr = {
fillColor = (0,255);
lineCapEnd = "1";
lineCapStart = "2";
strokeHeight = 300;
strokePos = "1";
strokeWidth = 300;
};
closed = 0;
nodes = (
(125,1100,l),
(705,1100,ls),
(925,1100,o),
(1105,921,o),
(1105,701,cs),
(1105,479,o),
(925,300,o),
(705,300,c)
);
}
);
width = 1505;
}
);
metricLeft = H;
metricRight = O;
unicode = (68,100);
},
{
color = 5;
glyphname = Eth;
kernLeft = I;
kernRight = O;
lastChange = "2022-06-05 19:17:49 +0000";
layers = (
{
anchors = (
{
name = bottom;
pos = (744,0);
},
{
name = center;
pos = (744,700);
},
{
name = top;
pos = (694,1400);
}
);
layerId = m01;
shapes = (
{
attr = {
fillColor = (0,255);
identifier = ID0x60000398e920;
lineCapEnd = "2";
lineCapStart = "2";
strokeHeight = 50;
strokePos = "0";
strokeWidth = 50;
};
closed = 0;
nodes = (
(208,3,l),
(208,491,l)
);
},
{
attr = {
fillColor = (0,255);
identifier = ID0x6000004932c0;
lineCapEnd = "2";
lineCapStart = "2";
strokeHeight = 50;
strokeWidth = 50;
};
closed = 0;
nodes = (
(2,700,l),
(588,700,l)
);
},
{
attr = {
fillColor = (0,255);
identifier = ID0x60000398e920;
lineCapEnd = "1";
lineCapStart = "2";
strokeHeight = "50\\";
strokePos = 1;
strokeWidth = 50;
};
closed = 0;
nodes = (
(208,1350,l),
(627,1350,ls),
(986,1350,o),
(1277,1059,o),
(1277,700,cs),
(1277,341,o),
(986,50,o),
(627,50,c)
);
}
);
width = 1391;
},
{
anchors = (
{
name = bottom;
pos = (722,0);
},
{
name = center;
pos = (722,700);
},
{
name = top;
pos = (662,1400);
}
);
layerId = "19FA402B-9607-46D9-AAD6-815AECBA5B6B";
shapes = (
{
attr = {
fillColor = (0,255);
identifier = ID0x6000004932c0;
lineCapEnd = "2";
lineCapStart = "2";
strokeHeight = 120;
strokePos = 0;
strokeWidth = 120;
};
closed = 0;
nodes = (
(179,6,l),
(179,491,l)
);
},
{
attr = {
fillColor = (0,255);
identifier = ID0x6000004932c0;
lineCapEnd = "2";
lineCapStart = "2";
strokeHeight = 120;
strokeWidth = 120;
};
closed = 0;
nodes = (
(6,700,l),
(592,700,l)
);
},
{
attr = {
fillColor = (0,255);
identifier = ID0x6000004932c0;
lineCapEnd = "1";
lineCapStart = 2;
strokeHeight = 120;
strokePos = 1;
strokeWidth = 120;
};
closed = 0;
nodes = (
(185,1280,l),
(604,1280,ls),
(924,1280,o),
(1184,1020,o),
(1184,700,cs),
(1184,380,o),
(924,120,o),
(604,120,c)
);
}
);
width = 1384;
},
{
anchors = (
{
name = bottom;
pos = (660,0);
},
{
name = center;
pos = (792,700);
},
{
name = top;
pos = (760,1400);
}
);
layerId = "FF87E3F2-B049-41CB-BF2F-09DB15105515";
shapes = (
{
attr = {
fillColor = (0,255);
identifier = ID0x6000039b5b20;
lineCapEnd = "2";
lineCapStart = "2";
strokeHeight = 300;
strokePos = "0";
strokeWidth = 300;
};
closed = 0;
nodes = (
(174,15,l),
(174,421,l)
);
},
{
attr = {
fillColor = (0,255);
identifier = ID0x6000004932c0;
lineCapEnd = "2";
lineCapStart = "2";
strokeHeight = 300;
strokeWidth = 300;
};
closed = 0;
nodes = (
(15,700,l),
(601,700,l)
);
},
{
attr = {
fillColor = (0,255);
identifier = ID0x6000039b5b20;
lineCapEnd = "1";
lineCapStart = "2";
strokeHeight = 300;
strokePos = "1";
strokeWidth = 300;
};
closed = 0;
nodes = (
(174,1100,l),
(754,1100,ls),
(974,1100,o),
(1154,921,o),
(1154,701,cs),
(1154,479,o),
(974,300,o),
(754,300,c)
);
}
);
width = 1554;
}
);
metricRight = O;
unicode = (208,240);
},
{
color = 4;
glyphname = E;
kernLeft = I;
kernRight = E;
lastChange = "2022-06-05 19:17:41 +0000";
layers = (
{
anchors = (
{
name = bottom;
pos = (488,0);
},
{
name = ogonek;
pos = (906,1);
},
{
name = top;
pos = (488,1400);
},
{
name = topleft;
pos = (-5,1400);
}
);
layerId = m01;
shapes = (
{
attr = {
fillColor = (0,255);
lineCapEnd = "3";
lineCapStart = "2";
strokeHeight = 50;
strokeWidth = 50;
};
closed = 0;
nodes = (
(110,758,l),
(110,53,l)
);
},
{
attr = {
fillColor = (0,255);
lineCapEnd = "2";
lineCapStart = "1";
strokeHeight = 50;
strokeWidth = 50;
};
closed = 0;
nodes = (
(110,25,l),
(928,25,l)
);
},
{
attr = {
fillColor = (0,255);
lineCapEnd = "2";
lineCapStart = "2";
strokeHeight = 50;
strokeWidth = 50;
};
closed = 0;
nodes = (
(928,700,l),
(383,700,l)
);
},
{
attr = {
fillColor = (0,255);
lineCapEnd = "1";
lineCapStart = "2";
strokeHeight = 50;
strokeWidth = 50;
};
closed = 0;
nodes = (
(928,1375,l),
(110,1375,l)
);
}
);
width = 1001;
},
{
anchors = (
{
name = bottom;
pos = (497,0);
},
{
name = ogonek;
pos = (925,0);
},
{
name = top;
pos = (517,1400);
},
{
name = topleft;
pos = (20,1400);
}
);
layerId = "19FA402B-9607-46D9-AAD6-815AECBA5B6B";
name = Regular;
shapes = (
{
attr = {
fillColor = (0,255);
lineCapEnd = "3";
lineCapStart = "2";
strokeHeight = 120;
strokeWidth = 120;
};
closed = 0;
nodes = (
(160,760,l),
(160,120,l)
);
},
{
attr = {
fillColor = (0,255);
lineCapEnd = "2";
lineCapStart = "1";
strokeHeight = 120;
strokeWidth = 120;
};
closed = 0;
nodes = (
(160,60,l),
(978,60,l)
);
},
{
attr = {
fillColor = (0,255);
lineCapEnd = "2";
lineCapStart = "2";
strokeHeight = 120;
strokeWidth = 120;
};
closed = 0;
nodes = (
(978,700,l),
(433,700,l)
);
},
{
attr = {
fillColor = (0,255);
lineCapEnd = "1";
lineCapStart = "2";
strokeHeight = 120;
strokeWidth = 120;
};
closed = 0;
nodes = (
(978,1340,l),
(160,1340,l)
);
}
);
width = 1064;
},
{
anchors = (
{
name = bottom;
pos = (587,0);
},
{
name = ogonek;
pos = (929,0);
},
{
name = top;
pos = (587,1400);
},
{
name = topleft;
pos = (-20,1400);
}
);
layerId = "FF87E3F2-B049-41CB-BF2F-09DB15105515";
shapes = (
{
attr = {
fillColor = (0,255);
lineCapEnd = "3";
lineCapStart = "2";
strokeHeight = 300;
strokeWidth = 300;
};
closed = 0;
nodes = (
(260,840,l),
(260,290,l)
);
},
{
attr = {
fillColor = (0,255);
lineCapEnd = "2";
lineCapStart = "1";
strokeHeight = 300;
strokeWidth = 300;
};
closed = 0;
nodes = (
(260,150,l),
(1078,150,l)
);
},
{
attr = {
fillColor = (0,255);
lineCapEnd = "2";
lineCapStart = "2";
strokeHeight = 300;
strokeWidth = 300;
};
closed = 0;
nodes = (
(1078,700,l),
(543,700,l)
);
},
{
attr = {
fillColor = (0,255);
lineCapEnd = "1";
lineCapStart = "2";
strokeHeight = 300;
strokeWidth = 300;
};
closed = 0;
nodes = (
(1078,1250,l),
(260,1250,l)
);
}
);
width = 1195;
}
);
metricLeft = H;
unicode = (69,101);
},
{
color = 5;
glyphname = Schwa;
kernLeft = O;
kernRight = O;
lastChange = "2022-06-03 00:04:08 +0000";
layers = (
{
anchors = (
{
name = bottom;
pos = (764,0);
},
{
name = center;
pos = (764,700);
},
{
name = ogonek;
pos = (1375,10);
},
{
name = top;
pos = (764,1400);
},
{
name = topleft;
pos = (20,1400);
},
{
name = topright;
pos = (1508,1400);
}
);
layerId = m01;
shapes = (
{
attr = {
identifier = ID0x6000026496c0;
lineCapEnd = 1;
lineCapStart = 1;
strokePos = "0";
strokeWidth = 50;
};
closed = 0;
nodes = (
(114,700,l),
(114,341,o),
(405,50,o),
(764,50,cs),
(1123,50,o),
(1414,341,o),
(1414,700,cs),
(1414,1059,o),
(1123,1350,o),
(764,1350,c)
);
},
{
attr = {
fillColor = (0,255);
lineCapEnd = "2";
lineCapStart = 1;
strokeHeight = 50;
strokeWidth = 50;
};
closed = 0;
nodes = (
(1064,700,l),
(67,700,l)
);
}
);
width = 1528;
},
{
anchors = (
{
name = bottom;
pos = (780,0);
},
{
name = center;
pos = (780,700);
},
{
name = ogonek;
pos = (780,0);
},
{
name = top;
pos = (780,1400);
},
{
name = topleft;
pos = (40,1400);
},
{
name = topright;
pos = (1520,1400);
}
);
layerId = "19FA402B-9607-46D9-AAD6-815AECBA5B6B";
shapes = (
{
attr = {
identifier = ID0x600002649ea0;
lineCapEnd = "1";
lineCapStart = "1";
strokeHeight = 120;
strokePos = "0";
strokeWidth = 120;
};
closed = 0;
nodes = (
(200,700,l),
(200,379,o),
(459,120,o),
(780,120,cs),
(1101,120,o),
(1360,379,o),
(1360,700,cs),
(1360,1021,o),
(1101,1280,o),
(780,1280,c)
);
},
{
attr = {
fillColor = (0,255);
lineCapEnd = "2";
lineCapStart = 1;
strokeHeight = 120;
strokeWidth = 120;
};
closed = 0;
nodes = (
(1080,700,l),
(86,700,l)
);
}
);
width = 1560;
},
{
anchors = (
{
name = bottom;
pos = (820,0);
},
{
name = center;
pos = (820,700);
},
{
name = ogonek;
pos = (1476,10);
},
{
name = top;
pos = (820,1400);
},
{
name = topleft;
pos = (20,1400);
},
{
name = topright;
pos = (1620,1400);
}
);
layerId = "FF87E3F2-B049-41CB-BF2F-09DB15105515";
shapes = (
{
attr = {
identifier = ID0x600002649dc0;
lineCapEnd = "1";
lineCapStart = "1";
strokeHeight = 300;
strokePos = "0";
strokeWidth = 300;
};
closed = 0;
nodes = (
(420,700,l),
(420,479,o),
(599,300,o),
(820,300,cs),
(1041,300,o),
(1220,479,o),
(1220,700,cs),
(1220,921,o),
(1041,1100,o),
(820,1100,c)
);
},
{
attr = {
fillColor = (0,255);
lineCapEnd = 2;
lineCapStart = 1;
strokeHeight = 300;
strokeWidth = 300;
};
closed = 0;
nodes = (
(920,700,l),
(135,700,l)
);
}
);
width = 1640;
}
);
unicode = (399,601);
},
{
color = 4;
glyphname = F;
kernLeft = E;
kernRight = F;
lastChange = "2022-06-05 19:17:41 +0000";
layers = (
{
anchors = (
{
name = bottom;
pos = (488,0);
},
{
name = top;
pos = (488,1400);
}
);
layerId = m01;
shapes = (
{
attr = {
fillColor = (0,255);
lineCapEnd = 3;
lineCapStart = 1;
strokeHeight = 50;
strokeWidth = 50;
};
closed = 0;
nodes = (
(110,25,l),
(110,675,l)
);
},
{
attr = {
fillColor = (0,255);
lineCapEnd = 2;
lineCapStart = 1;
strokeHeight = 50;
strokeWidth = 50;
};
closed = 0;
nodes = (
(110,700,l),
(836,700,l)
);
},
{
attr = {
fillColor = (0,255);
lineCapEnd = "1";
lineCapStart = "2";
strokeHeight = 50;
strokeWidth = 50;
};
closed = 0;
nodes = (
(928,1375,l),
(110,1375,l)
);
}
);
width = 1001;
},
{
anchors = (
{
name = bottom;
pos = (520,0);
},
{
name = top;
pos = (540,1400);
}
);
layerId = "19FA402B-9607-46D9-AAD6-815AECBA5B6B";
name = Regular;
shapes = (
{
attr = {
fillColor = (0,255);
lineCapEnd = "3";
lineCapStart = "1";
strokeHeight = 120;
strokeWidth = 120;
};
closed = 0;
nodes = (
(160,60,l),
(160,640,l)
);
},
{
attr = {
fillColor = (0,255);
lineCapEnd = "2";
lineCapStart = "1";
strokeHeight = 120;
strokeWidth = 120;
};
closed = 0;
nodes = (
(160,700,l),
(883,700,l)
);
},
{
attr = {
fillColor = (0,255);
lineCapEnd = "1";
lineCapStart = "2";
strokeHeight = 120;
strokeWidth = 120;
};
closed = 0;
nodes = (
(983,1340,l),
(160,1340,l)
);
}
);
width = 1069;
},
{
anchors = (
{
name = bottom;
pos = (589,0);
},
{
name = top;
pos = (589,1400);
}
);
layerId = "FF87E3F2-B049-41CB-BF2F-09DB15105515";
shapes = (
{
attr = {
fillColor = (0,255);
lineCapEnd = "3";
lineCapStart = "1";
strokeHeight = 300;
strokeWidth = 300;
};
closed = 0;
nodes = (
(260,150,l),
(260,560,l)
);
},
{
attr = {
fillColor = (0,255);
lineCapEnd = "2";
lineCapStart = "1";
strokeHeight = 300;
strokeWidth = 300;
};
closed = 0;
nodes = (
(260,700,l),
(983,700,l)
);
},
{
attr = {
fillColor = (0,255);
lineCapEnd = "1";
lineCapStart = "2";
strokeHeight = 300;
strokeWidth = 300;
};
closed = 0;
nodes = (
(1083,1250,l),
(260,1250,l)
);
}
);
width = 1200;
}
);
metricLeft = H;
metricRight = E;
unicode = (70,102);
},
{
color = 4;
glyphname = G;
kernLeft = O;
kernRight = G;
lastChange = "2022-06-05 19:17:41 +0000";
layers = (
{
anchors = (
{
name = bottom;
pos = (686,0);
},
{
name = top;
pos = (776,1400);
}
);
layerId = m01;
shapes = (
{
attr = {
fillColor = (0,255);
lineCapEnd = "1";
lineCapStart = "2";
strokeHeight = "50\\";
strokePos = "0";
strokeWidth = 50;
};
closed = 0;
nodes = (
(1258,1350,l),
(764,1350,ls),
(405,1350,o),
(114,1059,o),
(114,700,cs),
(114,341,o),
(405,50,o),
(764,50,c)
);
},
{
attr = {
fillColor = (0,255);
lineCapEnd = "1";
lineCapStart = "1";
strokeHeight = 50;
strokePos = "0";
strokeWidth = 50;
};
closed = 0;
nodes = (
(1258,608,l),
(1258,25,l)
);
}
);
width = 1346;
},
{
anchors = (
{
name = bottom;
pos = (700,0);
},
{
name = top;
pos = (790,1400);
}
);
layerId = "19FA402B-9607-46D9-AAD6-815AECBA5B6B";
name = Regular;
shapes = (
{
attr = {
fillColor = (0,255);
lineCapEnd = "1";
lineCapStart = "2";
strokeHeight = 120;
strokePos = "0";
strokeWidth = 120;
};
closed = 0;
nodes = (
(1274,1280,l),
(780,1280,ls),
(460,1280,o),
(200,1020,o),
(200,700,cs),
(200,380,o),
(460,120,o),
(780,120,c)
);
},
{
attr = {
fillColor = (0,255);
lineCapEnd = "1";
lineCapStart = "1";
strokeHeight = 120;
strokePos = "0";
strokeWidth = 120;
};
closed = 0;
nodes = (
(1274,608,l),
(1274,60,l)
);
}
);
width = 1380;
},
{
anchors = (
{
name = bottom;
pos = (747,0);
},
{
name = top;
pos = (827,1400);
}
);
layerId = "FF87E3F2-B049-41CB-BF2F-09DB15105515";
shapes = (
{
attr = {
fillColor = (0,255);
lineCapEnd = "1";
lineCapStart = "2";
strokeHeight = 300;
strokePos = "0";
strokeWidth = 300;
};
closed = 0;
nodes = (
(1348,1100,l),
(798,1100,ls),
(578,1100,o),
(400,921,o),
(400,700,cs),
(400,480,o),
(578,301,o),
(798,301,c)
);
},
{
attr = {
fillColor = (0,255);
lineCapEnd = "1";
lineCapStart = "1";
strokeHeight = 300;
strokePos = "0";
strokeWidth = 300;
};
closed = 0;
nodes = (
(1364,608,l),
(1364,150,l)
);
}
);
width = 1474;
}
);
metricLeft = O;
metricRight = H;
unicode = (71,103);
},
{
color = 4;
glyphname = H;
kernLeft = I;
kernRight = I;
lastChange = "2022-06-05 19:15:27 +0000";
layers = (
{
anchors = (
{
name = bottom;
pos = (613,0);
},
{
name = center;
pos = (613,700);
},
{
name = top;
pos = (613,1400);
},
{
name = topleft;
pos = (5,1400);
}
);
layerId = m01;
shapes = (
{
attr = {
fillColor = (0,255);
lineCapEnd = 2;
lineCapStart = 2;
strokeHeight = "50\\";
strokeWidth = 50;
};
closed = 0;
nodes = (
(110,405,l),
(110,3,l)
);
},
{
attr = {
fillColor = (0,255);
lineCapEnd = 2;
lineCapStart = "1";
strokeHeight = "50\\";
strokeWidth = 50;
};
closed = 0;
nodes = (
(110,700,l),
(110,1397,l)
);
},
{
attr = {
lineCapEnd = "3";
lineCapStart = "3";
strokeHeight = "50\\";
strokeWidth = 50;
};
closed = 0;
nodes = (
(135,700,l),
(1091,700,l)
);
},
{
attr = {
fillColor = (0,255);
lineCapEnd = "1";
lineCapStart = 2;
strokeHeight = "50\\";
strokeWidth = 50;
};
closed = 0;
nodes = (
(1116,3,l),
(1116,700,l)
);
},
{
attr = {
fillColor = (0,255);
lineCapEnd = 2;
lineCapStart = 2;
strokeHeight = "50\\";
strokeWidth = 50;
};
closed = 0;
nodes = (
(1116,1397,l),
(1116,995,l)
);
}
);
width = 1226;
},
{
anchors = (
{
name = bottom;
pos = (663,0);
},
{
name = center;
pos = (663,700);
},
{
name = top;
pos = (663,1400);
},
{
name = topleft;
pos = (20,1400);
}
);
layerId = "19FA402B-9607-46D9-AAD6-815AECBA5B6B";
shapes = (
{
attr = {
fillColor = (0,255);
lineCapEnd = 2;
lineCapStart = 2;
strokeHeight = 120;
strokeWidth = 120;
};
closed = 0;
nodes = (
(160,405,l),
(160,6,l)
);
},
{
attr = {
fillColor = (0,255);
lineCapEnd = 2;
lineCapStart = 1;
strokeHeight = 120;
strokeWidth = 120;
};
closed = 0;
nodes = (
(160,700,l),
(160,1394,l)
);
},
{
attr = {
lineCapEnd = 3;
lineCapStart = 3;
strokeHeight = 120;
strokeWidth = 120;
};
closed = 0;
nodes = (
(220,700,l),
(1106,700,l)
);
},
{
attr = {
fillColor = (0,255);
lineCapEnd = 1;
lineCapStart = 1;
strokeHeight = 120;
strokeWidth = 120;
};
closed = 0;
nodes = (
(1166,60,l),
(1166,700,l)
);
},
{
attr = {
fillColor = (0,255);
lineCapEnd = 2;
lineCapStart = 2;
strokeHeight = 120;
strokeWidth = 120;
};
closed = 0;
nodes = (
(1166,1394,l),
(1166,995,l)
);
}
);
width = 1326;
},
{
anchors = (
{
name = bottom;
pos = (763,0);
},
{
name = center;
pos = (763,700);
},
{
name = top;
pos = (763,1400);
},
{
name = topleft;
pos = (30,1400);
}
);
layerId = "FF87E3F2-B049-41CB-BF2F-09DB15105515";
shapes = (
{
attr = {
fillColor = (0,255);
lineCapEnd = 2;
lineCapStart = 2;
strokeHeight = 300;
strokeWidth = 300;
};
closed = 0;
nodes = (
(260,405,l),
(260,15,l)
);
},
{
attr = {
fillColor = (0,255);
lineCapEnd = 2;
lineCapStart = "1";
strokeHeight = 300;
strokeWidth = 300;
};
closed = 0;
nodes = (
(260,700,l),
(260,1385,l)
);
},
{
attr = {
lineCapEnd = "3";
lineCapStart = "3";
strokeHeight = 300;
strokeWidth = 300;
};
closed = 0;
nodes = (
(410,700,l),
(1116,700,l)
);
},
{
attr = {
fillColor = (0,255);
lineCapEnd = "1";
lineCapStart = 2;
strokeHeight = 300;
strokeWidth = 300;
};
closed = 0;
nodes = (
(1266,15,l),
(1266,700,l)
);
},
{
attr = {
fillColor = (0,255);
lineCapEnd = 2;
lineCapStart = 2;
strokeHeight = 300;
strokeWidth = 300;
};
closed = 0;
nodes = (
(1266,1385,l),
(1266,995,l)
);
}
);
width = 1526;
}
);
unicode = (72,104);
},
{
color = 4;
glyphname = I;
kernLeft = I;
kernRight = I;
lastChange = "2022-06-05 19:17:41 +0000";
layers = (
{
anchors = (
{
name = bottom;
pos = (110,0);
},
{
name = ogonek;
pos = (109,0);
},
{
name = top;
pos = (110,1400);
},
{
name = topleft;
pos = (-5,1400);
}
);
layerId = m01;
shapes = (
{
attr = {
fillColor = (0,255);
lineCapEnd = "2";
lineCapStart = "1";
strokeHeight = 50;
strokeWidth = 50;
};
closed = 0;
nodes = (
(110,500,l),
(110,3,l)
);
},
{
attr = {
fillColor = (0,255);
lineCapEnd = "1";
lineCapStart = "2";
strokeHeight = 50;
strokeWidth = 50;
};
closed = 0;
nodes = (
(110,1397,l),
(110,900,l)
);
}
);
width = 220;
},
{
anchors = (
{
name = bottom;
pos = (160,0);
},
{
name = ogonek;
pos = (160,0);
},
{
name = top;
pos = (160,1400);
},
{
name = topleft;
pos = (20,1400);
}
);
layerId = "19FA402B-9607-46D9-AAD6-815AECBA5B6B";
shapes = (
{
attr = {
fillColor = (0,255);
lineCapEnd = "2";
lineCapStart = "1";
strokeHeight = 120;
strokeWidth = 120;
};
closed = 0;
nodes = (
(160,500,l),
(160,6,l)
);
},
{
attr = {
fillColor = (0,255);
lineCapEnd = "1";
lineCapStart = "2";
strokeHeight = 120;
strokeWidth = 120;
};
closed = 0;
nodes = (
(160,1394,l),
(160,900,l)
);
}
);
width = 320;
},
{
anchors = (
{
name = bottom;
pos = (260,0);
},
{
name = ogonek;
pos = (247,0);
},
{
name = top;
pos = (260,1400);
},
{
name = topleft;
pos = (-20,1400);
}
);
layerId = "FF87E3F2-B049-41CB-BF2F-09DB15105515";
shapes = (
{
attr = {
fillColor = (0,255);
lineCapEnd = "2";
lineCapStart = "1";
strokeHeight = 300;
strokeWidth = 300;
};
closed = 0;
nodes = (
(260,440,l),
(260,15,l)
);
},
{
attr = {
fillColor = (0,255);
lineCapEnd = "1";
lineCapStart = "2";
strokeHeight = 300;
strokeWidth = 300;
};
closed = 0;
nodes = (
(260,1385,l),
(260,960,l)
);
}
);
width = 520;
}
);
metricLeft = H;
metricRight = H;
unicode = (73,305);
},
{
color = 5;
glyphname = Idotaccent;
kernLeft = I;
kernRight = I;
lastChange = "2022-06-05 19:22:37 +0000";
layers = (
{
anchors = (
{
name = _top;
pos = (122,1400);
},
{
name = top;
pos = (122,1669);
}
);
layerId = m01;
shapes = (
{
closed = 1;
nodes = (
(142,1594,o),
(160,1612,o),
(160,1632,cs),
(160,1652,o),
(142,1669,o),
(122,1669,cs),
(102,1669,o),
(85,1652,o),
(85,1632,cs),
(85,1612,o),
(102,1594,o),
(122,1594,cs)
);
},
{
pos = (12,0);
ref = I;
}
);
width = 245;
},
{
anchors = (
{
name = _top;
pos = (175,1400);
},
{
name = top;
pos = (175,1744);
}
);
layerId = "19FA402B-9607-46D9-AAD6-815AECBA5B6B";
shapes = (
{
closed = 1;
nodes = (
(216,1594,o),
(250,1628,o),
(250,1669,cs),
(250,1710,o),
(216,1744,o),
(175,1744,cs),
(134,1744,o),
(100,1710,o),
(100,1669,cs),
(100,1628,o),
(134,1594,o),
(175,1594,cs)
);
},
{
pos = (15,0);
ref = I;
}
);
width = 350;
},
{
anchors = (
{
name = _top;
pos = (300,1400);
},
{
name = top;
pos = (300,1833);
}
);
layerId = "FF87E3F2-B049-41CB-BF2F-09DB15105515";
shapes = (
{
closed = 1;
nodes = (
(342,1534,o),
(410,1602,o),
(410,1683,cs),
(410,1765,o),
(341,1833,o),
(260,1833,cs),
(179,1833,o),
(110,1765,o),
(110,1683,cs),
(110,1602,o),
(180,1534,o),
(261,1534,cs)
);
},
{
ref = I;
}
);
width = 520;
}
);
metricLeft = I;
metricRight = I;
unicode = 304;
},
{
color = 4;
glyphname = J;
kernLeft = J;
kernRight = J;
lastChange = "2022-06-05 19:17:41 +0000";
layers = (
{
anchors = (
{
name = bottom;
pos = (559,0);
},
{
name = top;
pos = (1031,1399);
}
);
layerId = m01;
shapes = (
{
attr = {
lineCapEnd = "1";
lineCapStart = "1";
strokeHeight = 50;
strokePos = "0";
strokeWidth = 50;
};
closed = 0;
nodes = (
(110,498,l),
(110,250,o),
(310,50,o),
(558,50,cs),
(805,50,o),
(1005,250,o),
(1005,498,c)
);
},
{
attr = {
fillColor = (0,255);
lineCapEnd = "1";
lineCapStart = "2";
strokeHeight = 50;
strokePos = "0";
strokeWidth = 50;
};
closed = 0;
nodes = (
(1056,1397,l),
(1056,900,l)
);
}
);
width = 1133;
},
{
anchors = (
{
name = bottom;
pos = (568,0);
},
{
name = top;
pos = (1006,1400);
}
);
layerId = "19FA402B-9607-46D9-AAD6-815AECBA5B6B";
shapes = (
{
attr = {
lineCapEnd = 1;
lineCapStart = 1;
strokeHeight = 120;
strokePos = 0;
strokeWidth = 120;
};
closed = 0;
nodes = (
(190,498,l),
(190,289,o),
(359,120,o),
(568,120,cs),
(776,120,o),
(945,289,o),
(945,498,c)
);
},
{
attr = {
fillColor = (0,255);
lineCapEnd = "1";
lineCapStart = "2";
strokeHeight = 120;
strokePos = 0;
strokeWidth = 120;
};
closed = 0;
nodes = (
(1066,1394,l),
(1066,900,l)
);
}
);
width = 1154;
},
{
anchors = (
{
name = bottom;
pos = (641,0);
},
{
name = top;
pos = (1046,1400);
}
);
layerId = "FF87E3F2-B049-41CB-BF2F-09DB15105515";
shapes = (
{
attr = {
lineCapEnd = "1";
lineCapStart = "1";
strokeHeight = 300;
strokePos = "0";
strokeWidth = 300;
};
closed = 0;
nodes = (
(385,545,l),
(385,404,o),
(500,290,o),
(641,290,cs),
(781,290,o),
(896,404,o),
(896,545,c)
);
},
{
attr = {
fillColor = (0,255);
lineCapEnd = "1";
lineCapStart = "2";
strokeHeight = 300;
strokePos = "0";
strokeWidth = 300;
};
closed = 0;
nodes = (
(1196,1385,l),
(1196,1030,l)
);
}
);
width = 1308;
}
);
metricLeft = A;
unicode = (74,106,567);
},
{
color = 4;
glyphname = K;
kernLeft = I;
kernRight = K;
lastChange = "2022-06-05 19:17:41 +0000";
layers = (
{
anchors = (
{
name = bottom;
pos = (590,0);
},
{
name = top;
pos = (590,1400);
}
);
layerId = m01;
shapes = (
{
attr = {
fillColor = (0,255);
lineCapEnd = "2";
lineCapStart = "2";
strokeHeight = 50;
strokePos = "1";
strokeWidth = 50;
};
closed = 0;
nodes = (
(85,1397,l),
(85,3,l)
);
},
{
attr = {
fillColor = (0,255);
lineCapEnd = "2";
lineCapStart = "1";
strokeHeight = 50;
strokeWidth = 50;
};
closed = 0;
nodes = (
(444,700,l),
(1135,9,l)
);
},
{
attr = {
fillColor = (0,255);
lineCapEnd = "2";
lineCapStart = "1";
strokeHeight = 50;
strokeWidth = 50;
};
closed = 0;
nodes = (
(742,998,l),
(1135,1391,l)
);
}
);
width = 1204;
},
{
anchors = (
{
name = bottom;
pos = (610,0);
},
{
name = top;
pos = (610,1400);
}
);
layerId = "19FA402B-9607-46D9-AAD6-815AECBA5B6B";
shapes = (
{
attr = {
fillColor = (0,255);
lineCapEnd = 2;
lineCapStart = 2;
strokeHeight = 120;
strokePos = 1;
strokeWidth = 120;
};
closed = 0;
nodes = (
(100,1394,l),
(100,6,l)
);
},
{
attr = {
fillColor = (0,255);
lineCapEnd = 2;
lineCapStart = 1;
strokeHeight = 120;
strokeWidth = 120;
};
closed = 0;
nodes = (
(459,700,l),
(1137,22,l)
);
},
{
attr = {
fillColor = (0,255);
lineCapEnd = 2;
lineCapStart = 1;
strokeHeight = 120;
strokeWidth = 120;
};
closed = 0;
nodes = (
(757,998,l),
(1137,1378,l)
);
}
);
width = 1229;
},
{
anchors = (
{
name = bottom;
pos = (700,0);
},
{
name = top;
pos = (700,1400);
}
);
layerId = "FF87E3F2-B049-41CB-BF2F-09DB15105515";
shapes = (
{
attr = {
fillColor = (0,255);
lineCapEnd = "2";
lineCapStart = "2";
strokeHeight = 300;
strokePos = "1";
strokeWidth = 300;
};
closed = 0;
nodes = (
(110,1385,l),
(110,15,l)
);
},
{
attr = {
fillColor = (0,255);
lineCapEnd = "2";
lineCapStart = "1";
strokeHeight = 300;
strokeWidth = 300;
};
closed = 0;
nodes = (
(639,700,l),
(1284,55,l)
);
},
{
attr = {
fillColor = (0,255);
lineCapEnd = "2";
lineCapStart = "1";
strokeHeight = 300;
strokeWidth = 300;
};
closed = 0;
nodes = (
(937,998,l),
(1284,1345,l)
);
}
);
width = 1424;
}
);
metricLeft = H;
metricRight = A;
unicode = (75,107);
},
{
color = 4;
glyphname = L;
kernLeft = I;
kernRight = L;
lastChange = "2022-06-05 19:17:41 +0000";
layers = (
{
anchors = (
{
name = bottom;
pos = (570,0);
},
{
name = center;
pos = (570,700);
},
{
name = top;
pos = (112,1400);
},
{
name = topright;
pos = (1145,1400);
}
);
layerId = m01;
shapes = (
{
attr = {
fillColor = (0,255);
lineCapEnd = "2";
lineCapStart = "2";
strokeHeight = 50;
strokePos = "1";
strokeWidth = 50;
};
closed = 0;
nodes = (
(87,0,l),
(1102,0,l)
);
},
{
attr = {
fillColor = (0,255);
lineCapEnd = "1";
lineCapStart = "2";
strokeHeight = 50;
strokePos = "1";
strokeWidth = 50;
};
closed = 0;
nodes = (
(87,1397,l),
(87,402,l)
);
}
);
width = 1165;
},
{
anchors = (
{
name = bottom;
pos = (594,0);
},
{
name = center;
pos = (594,700);
},
{
name = top;
pos = (166,1400);
},
{
name = topright;
pos = (1167,1400);
}
);
layerId = "19FA402B-9607-46D9-AAD6-815AECBA5B6B";
shapes = (
{
attr = {
fillColor = (0,255);
lineCapEnd = 2;
lineCapStart = 2;
strokeHeight = 120;
strokePos = 1;
strokeWidth = 120;
};
closed = 0;
nodes = (
(106,0,l),
(1121,0,l)
);
},
{
attr = {
fillColor = (0,255);
lineCapEnd = 1;
lineCapStart = 2;
strokeHeight = 120;
strokePos = 1;
strokeWidth = 120;
};
closed = 0;
nodes = (
(106,1394,l),
(106,402,l)
);
}
);
width = 1197;
},
{
anchors = (
{
name = bottom;
pos = (608,0);
},
{
name = center;
pos = (608,700);
},
{
name = top;
pos = (275,1400);
},
{
name = topright;
pos = (1235,1400);
}
);
layerId = "FF87E3F2-B049-41CB-BF2F-09DB15105515";
shapes = (
{
attr = {
fillColor = (0,255);
lineCapEnd = "2";
lineCapStart = "2";
strokeHeight = 300;
strokePos = "1";
strokeWidth = 300;
};
closed = 0;
nodes = (
(125,0,l),
(1140,0,l)
);
},
{
attr = {
fillColor = (0,255);
lineCapEnd = "1";
lineCapStart = "2";
strokeHeight = 300;
strokePos = "1";
strokeWidth = 300;
};
closed = 0;
nodes = (
(125,1385,l),
(125,602,l)
);
}
);
width = 1240;
}
);
metricLeft = H;
metricRight = A;
unicode = (76,108);
},
{
color = 5;
glyphname = Lslash;
kernLeft = I;
kernRight = L;
lastChange = "2022-06-05 19:17:49 +0000";
layers = (
{
layerId = m01;
shapes = (
{
attr = {
fillColor = (0,255);
identifier = ID0x60000ffd4000;
lineCapEnd = "2";
lineCapStart = "2";
strokeHeight = 50;
strokeWidth = 50;
};
closed = 0;
nodes = (
(233,474,l),
(233,6,l)
);
},
{
attr = {
fillColor = (0,255);
identifier = ID0x60000ffd4000;
lineCapEnd = "1";
lineCapStart = "1";
strokeHeight = 50;
strokePos = "1";
strokeWidth = 50;
};
closed = 0;
nodes = (
(233,0,l),
(1128,0,l)
);
},
{
attr = {
fillColor = (0,255);
lineCapEnd = "2";
lineCapStart = "2";
strokeHeight = 50;
strokeWidth = 50;
};
closed = 0;
nodes = (
(5,570,l),
(465,830,l)
);
},
{
attr = {
fillColor = (0,255);
identifier = ID0x60000ffd4000;
lineCapEnd = "2";
lineCapStart = "2";
strokeHeight = 50;
strokeWidth = 50;
};
closed = 0;
nodes = (
(233,1394,l),
(233,926,l)
);
}
);
width = 1213;
},
{
layerId = "19FA402B-9607-46D9-AAD6-815AECBA5B6B";
shapes = (
{
attr = {
fillColor = (0,255);
identifier = ID0x60000ffd4000;
lineCapEnd = "2";
lineCapStart = "2";
strokeHeight = 120;
strokeWidth = 120;
};
closed = 0;
nodes = (
(241,474,l),
(241,6,l)
);
},
{
attr = {
fillColor = (0,255);
identifier = ID0x60000ffd4000;
lineCapEnd = 1;
lineCapStart = 1;
strokeHeight = 120;
strokePos = 1;
strokeWidth = 120;
};
closed = 0;
nodes = (
(241,0,l),
(1136,0,l)
);
},
{
attr = {
fillColor = (0,255);
lineCapEnd = 2;
lineCapStart = 2;
strokeHeight = 120;
strokeWidth = 120;
};
closed = 0;
nodes = (
(13,570,l),
(473,830,l)
);
},
{
attr = {
fillColor = (0,255);
identifier = ID0x60000ffd4000;
lineCapEnd = 2;
lineCapStart = 2;
strokeHeight = 120;
strokeWidth = 120;
};
closed = 0;
nodes = (
(241,1394,l),
(241,926,l)
);
}
);
width = 1266;
},
{
layerId = "FF87E3F2-B049-41CB-BF2F-09DB15105515";
shapes = (
{
attr = {
fillColor = (0,255);
identifier = ID0x60000ffd4000;
lineCapEnd = "2";
lineCapStart = "2";
strokeHeight = 300;
strokeWidth = 300;
};
closed = 0;
nodes = (
(359,514,l),
(359,15,l)
);
},
{
attr = {
fillColor = (0,255);
identifier = ID0x60000ffd4000;
lineCapEnd = "1";
lineCapStart = "1";
strokeHeight = 300;
strokePos = "1";
strokeWidth = 300;
};
closed = 0;
nodes = (
(359,0,l),
(1089,0,l)
);
},
{
attr = {
fillColor = (0,255);
lineCapEnd = "2";
lineCapStart = "2";
strokeHeight = 300;
strokeWidth = 300;
};
closed = 0;
nodes = (
(21,631,l),
(701,849,l)
);
},
{
attr = {
fillColor = (0,255);
identifier = ID0x60000ffd4000;
lineCapEnd = "2";
lineCapStart = "2";
strokeHeight = 300;
strokeWidth = 300;
};
closed = 0;
nodes = (
(359,1394,l),
(359,966,l)
);
}
);
width = 1324;
}
);
metricRight = L;
unicode = (321,322);
},
{
color = 4;
glyphname = M;
kernLeft = I;
kernRight = I;
lastChange = "2022-06-05 19:17:41 +0000";
layers = (
{
anchors = (
{
name = bottom;
pos = (745,0);
},
{
name = top;
pos = (745,1400);
}
);
layerId = m01;
shapes = (
{
attr = {
fillColor = (0,255);
lineCapEnd = "2";
lineCapStart = "2";
strokeHeight = 50;
strokePos = "0";
strokeWidth = 50;
};
closed = 0;
nodes = (
(85,3,l),
(85,1397,l)
);
},
{
attr = {
fillColor = (0,255);
lineCapEnd = "1";
lineCapStart = "2";
strokeHeight = 50;
strokeWidth = 50;
};
closed = 0;
nodes = (
(96,1389,l),
(745,698,l)
);
},
{
attr = {
fillColor = (0,255);
lineCapEnd = "2";
lineCapStart = "2";
strokeHeight = 50;
strokePos = "1";
strokeWidth = 50;
};
closed = 0;
nodes = (
(1405,3,l),
(1405,1397,l)
);
}
);
width = 1490;
},
{
anchors = (
{
name = bottom;
pos = (690,0);
},
{
name = top;
pos = (760,1400);
}
);
layerId = "19FA402B-9607-46D9-AAD6-815AECBA5B6B";
shapes = (
{
attr = {
fillColor = (0,255);
lineCapEnd = 2;
lineCapStart = 2;
strokeHeight = 120;
strokePos = 0;
strokeWidth = 120;
};
closed = 0;
nodes = (
(100,6,l),
(100,1394,l)
);
},
{
attr = {
fillColor = (0,255);
lineCapEnd = 1;
lineCapStart = 2;
strokeHeight = 120;
strokeWidth = 120;
};
closed = 0;
nodes = (
(127,1375,l),
(760,698,l)
);
},
{
attr = {
fillColor = (0,255);
lineCapEnd = 2;
lineCapStart = 2;
strokeHeight = 120;
strokePos = 1;
strokeWidth = 120;
};
closed = 0;
nodes = (
(1420,6,l),
(1420,1394,l)
);
}
);
width = 1520;
},
{
anchors = (
{
name = bottom;
pos = (770,0);
},
{
name = top;
pos = (770,1400);
}
);
layerId = "FF87E3F2-B049-41CB-BF2F-09DB15105515";
shapes = (
{
attr = {
fillColor = (0,255);
lineCapEnd = "2";
lineCapStart = "2";
strokeHeight = 300;
strokePos = "0";
strokeWidth = 300;
};
closed = 0;
nodes = (
(110,15,l),
(110,1385,l)
);
},
{
attr = {
fillColor = (0,255);
lineCapEnd = "1";
lineCapStart = "2";
strokeHeight = 300;
strokeWidth = 300;
};
closed = 0;
nodes = (
(182,1336,l),
(770,698,l)
);
},
{
attr = {
fillColor = (0,255);
lineCapEnd = "2";
lineCapStart = "2";
strokeHeight = 300;
strokePos = "1";
strokeWidth = 300;
};
closed = 0;
nodes = (
(1430,15,l),
(1430,1385,l)
);
}
);
width = 1540;
}
);
metricLeft = H;
metricRight = H;
unicode = (77,109);
},
{
color = 4;
glyphname = N;
kernLeft = I;
kernRight = I;
lastChange = "2022-06-05 19:17:41 +0000";
layers = (
{
anchors = (
{
name = bottom;
pos = (692,0);
},
{
name = top;
pos = (692,1400);
}
);
layerId = m01;
shapes = (
{
attr = {
fillColor = (0,255);
lineCapEnd = "2";
lineCapStart = "2";
strokeHeight = 50;
strokePos = "1";
strokeWidth = 50;
};
closed = 0;
nodes = (
(85,1397,l),
(85,3,l)
);
},
{
attr = {
fillColor = (0,255);
lineCapEnd = "1";
strokeHeight = 50;
strokeWidth = 50;
};
closed = 0;
nodes = (
(1272,26,l),
(543,1000,l)
);
},
{
attr = {
fillColor = (0,255);
lineCapEnd = "2";
lineCapStart = "2";
strokeHeight = 50;
strokePos = "0";
strokeWidth = 50;
};
closed = 0;
nodes = (
(1298,1397,l),
(1298,3,l)
);
}
);
width = 1383;
},
{
anchors = (
{
name = bottom;
pos = (707,0);
},
{
name = top;
pos = (707,1400);
}
);
layerId = "19FA402B-9607-46D9-AAD6-815AECBA5B6B";
shapes = (
{
attr = {
fillColor = (0,255);
lineCapEnd = 2;
lineCapStart = 2;
strokeHeight = 120;
strokePos = 1;
strokeWidth = 120;
};
closed = 0;
nodes = (
(100,1394,l),
(100,6,l)
);
},
{
attr = {
fillColor = (0,255);
lineCapEnd = 1;
strokeHeight = 120;
strokeWidth = 120;
};
closed = 0;
nodes = (
(1255,57,l),
(558,1000,l)
);
},
{
attr = {
fillColor = (0,255);
lineCapEnd = 2;
lineCapStart = 2;
strokeHeight = 120;
strokePos = 0;
strokeWidth = 120;
};
closed = 0;
nodes = (
(1313,1394,l),
(1313,6,l)
);
}
);
width = 1413;
},
{
anchors = (
{
name = bottom;
pos = (757,0);
},
{
name = top;
pos = (757,1400);
}
);
layerId = "FF87E3F2-B049-41CB-BF2F-09DB15105515";
shapes = (
{
attr = {
fillColor = (0,255);
lineCapEnd = "2";
lineCapStart = "2";
strokeHeight = 300;
strokePos = "1";
strokeWidth = 300;
};
closed = 0;
nodes = (
(110,1385,l),
(110,15,l)
);
},
{
attr = {
fillColor = (0,255);
lineCapEnd = "1";
strokeHeight = 300;
strokeWidth = 300;
};
closed = 0;
nodes = (
(1265,138,l),
(702,767,l)
);
},
{
attr = {
fillColor = (0,255);
lineCapEnd = "2";
lineCapStart = "2";
strokeHeight = 300;
strokePos = "0";
strokeWidth = 300;
};
closed = 0;
nodes = (
(1403,1385,l),
(1403,15,l)
);
}
);
width = 1513;
}
);
metricLeft = H;
metricRight = H;
unicode = (78,110);
},
{
color = 4;
glyphname = O;
kernLeft = O;
kernRight = O;
lastChange = "2022-06-05 19:15:44 +0000";
layers = (
{
anchors = (
{
name = bottom;
pos = (764,0);
},
{
name = center;
pos = (764,700);
},
{
name = ogonek;
pos = (1375,10);
},
{
name = top;
pos = (764,1400);
},
{
name = topleft;
pos = (20,1400);
},
{
name = topright;
pos = (1223,1196);
}
);
layerId = m01;
shapes = (
{
closed = 1;
nodes = (
(283,1171,o),
(294,1182,o),
(294,1196,cs),
(294,1210,o),
(283,1221,o),
(269,1221,cs),
(255,1221,o),
(244,1210,o),
(244,1196,cs),
(244,1182,o),
(255,1171,o),
(269,1171,cs)
);
},
{
attr = {
lineCapEnd = 1;
lineCapStart = 1;
strokePos = "0";
strokeWidth = 50;
};
closed = 0;
nodes = (
(114,700,l),
(114,341,o),
(405,50,o),
(764,50,cs),
(1123,50,o),
(1414,341,o),
(1414,700,cs),
(1414,1059,o),
(1123,1350,o),
(764,1350,c)
);
}
);
width = 1528;
},
{
anchors = (
{
name = bottom;
pos = (780,0);
},
{
name = center;
pos = (780,700);
},
{
name = ogonek;
pos = (780,0);
},
{
name = top;
pos = (780,1400);
},
{
name = topleft;
pos = (40,1400);
},
{
name = topright;
pos = (1228,1196);
}
);
layerId = "19FA402B-9607-46D9-AAD6-815AECBA5B6B";
shapes = (
{
closed = 1;
nodes = (
(318,1136,o),
(345,1163,o),
(345,1196,cs),
(345,1229,o),
(318,1256,o),
(285,1256,cs),
(252,1256,o),
(225,1229,o),
(225,1196,cs),
(225,1163,o),
(252,1136,o),
(285,1136,cs)
);
},
{
attr = {
lineCapEnd = "1";
lineCapStart = "1";
strokeHeight = 120;
strokePos = 0;
strokeWidth = 120;
};
closed = 0;
nodes = (
(200,700,l),
(200,379,o),
(459,120,o),
(780,120,cs),
(1101,120,o),
(1360,379,o),
(1360,700,cs),
(1360,1021,o),
(1101,1280,o),
(780,1280,c)
);
}
);
width = 1560;
},
{
anchors = (
{
name = bottom;
pos = (810,0);
},
{
name = center;
pos = (810,700);
},
{
name = ogonek;
pos = (1466,10);
},
{
name = top;
pos = (810,1400);
},
{
name = topleft;
pos = (10,1400);
},
{
name = topright;
pos = (1208,1166);
}
);
layerId = "FF87E3F2-B049-41CB-BF2F-09DB15105515";
shapes = (
{
closed = 1;
nodes = (
(458,979,o),
(525,1046,o),
(525,1129,cs),
(525,1212,o),
(458,1279,o),
(375,1279,cs),
(292,1279,o),
(225,1212,o),
(225,1129,cs),
(225,1046,o),
(292,979,o),
(375,979,cs)
);
},
{
attr = {
lineCapEnd = "1";
lineCapStart = "1";
strokeHeight = 300;
strokePos = "0";
strokeWidth = 300;
};
closed = 0;
nodes = (
(400,700,l),
(400,473,o),
(583,290,o),
(810,290,cs),
(1037,290,o),
(1220,473,o),
(1220,700,cs),
(1220,927,o),
(1037,1110,o),
(810,1110,c)
);
}
);
width = 1620;
}
);
unicode = (79,111);
},
{
color = 5;
glyphname = Oslash;
kernLeft = O;
kernRight = O;
lastChange = "2022-06-02 05:39:42 +0000";
layers = (
{
layerId = m01;
shapes = (
{
closed = 1;
nodes = (
(127,0,o),
(133,3,o),
(138,7,c),
(1426,1357,ls),
(1430,1362,o),
(1432,1368,o),
(1432,1375,cs),
(1432,1389,o),
(1421,1400,o),
(1407,1400,cs),
(1401,1400,o),
(1395,1397,o),
(1390,1393,c),
(102,43,ls),
(98,38,o),
(96,32,o),
(96,25,cs),
(96,11,o),
(107,0,o),
(121,0,cs)
);
},
{
closed = 1;
nodes = (
(150,437,o),
(161,455,o),
(155,470,cs),
(128,543,o),
(113,621,o),
(113,700,cs),
(113,1049,o),
(397,1350,o),
(764,1350,cs),
(840,1350,o),
(917,1337,o),
(992,1308,cs),
(1007,1302,o),
(1026,1313,o),
(1026,1331,cs),
(1026,1342,o),
(1019,1351,o),
(1010,1355,cs),
(929,1385,o),
(845,1400,o),
(764,1400,cs),
(369,1400,o),
(63,1076,o),
(63,700,cs),
(63,616,o),
(79,531,o),
(108,453,cs),
(112,443,o),
(121,437,o),
(132,437,cs)
);
},
{
closed = 1;
nodes = (
(1159,0,o),
(1465,324,o),
(1465,700,cs),
(1465,784,o),
(1449,869,o),
(1420,947,cs),
(1416,957,o),
(1407,963,o),
(1396,963,cs),
(1378,963,o),
(1367,945,o),
(1373,930,cs),
(1400,857,o),
(1415,779,o),
(1415,700,cs),
(1415,351,o),
(1131,50,o),
(764,50,cs),
(688,50,o),
(611,63,o),
(536,92,cs),
(521,98,o),
(502,87,o),
(502,69,cs),
(502,58,o),
(509,49,o),
(518,45,cs),
(599,15,o),
(683,0,o),
(764,0,cs)
);
}
);
width = 1528;
},
{
layerId = "19FA402B-9607-46D9-AAD6-815AECBA5B6B";
shapes = (
{
closed = 1;
nodes = (
(138,0,o),
(153,7,o),
(163,18,cs),
(1443,1297,ls),
(1454,1308,o),
(1461,1323,o),
(1461,1340,cs),
(1461,1373,o),
(1434,1400,o),
(1401,1400,cs),
(1384,1400,o),
(1369,1393,o),
(1358,1382,cs),
(79,102,ls),
(68,92,o),
(61,77,o),
(61,60,cs),
(61,27,o),
(88,0,o),
(121,0,cs)
);
},
{
closed = 1;
nodes = (
(190,446,o),
(219,485,o),
(206,524,cs),
(188,581,o),
(178,641,o),
(178,701,cs),
(178,1008,o),
(428,1280,o),
(759,1280,cs),
(818,1280,o),
(878,1271,o),
(936,1253,cs),
(974,1241,o),
(1014,1270,o),
(1014,1310,cs),
(1014,1337,o),
(996,1359,o),
(972,1367,cs),
(902,1389,o),
(830,1400,o),
(759,1400,cs),
(359,1400,o),
(58,1071,o),
(58,701,cs),
(58,628,o),
(70,556,o),
(92,487,cs),
(100,463,o),
(122,446,o),
(149,446,cs)
);
},
{
closed = 1;
nodes = (
(1162,0,o),
(1463,329,o),
(1463,699,cs),
(1463,772,o),
(1451,844,o),
(1429,913,cs),
(1421,937,o),
(1399,954,o),
(1372,954,cs),
(1331,954,o),
(1302,915,o),
(1315,876,cs),
(1333,819,o),
(1343,759,o),
(1343,699,cs),
(1343,392,o),
(1093,120,o),
(762,120,cs),
(703,120,o),
(643,129,o),
(585,147,cs),
(547,159,o),
(507,130,o),
(507,90,cs),
(507,63,o),
(525,41,o),
(549,33,cs),
(619,11,o),
(691,0,o),
(762,0,cs)
);
}
);
width = 1521;
},
{
layerId = "FF87E3F2-B049-41CB-BF2F-09DB15105515";
shapes = (
{
closed = 1;
nodes = (
(300,0,o),
(335,16,o),
(360,41,cs),
(1479,1161,ls),
(1504,1186,o),
(1520,1221,o),
(1520,1260,cs),
(1520,1337,o),
(1457,1400,o),
(1380,1400,cs),
(1342,1400,o),
(1307,1384,o),
(1282,1360,cs),
(162,239,ls),
(137,214,o),
(121,179,o),
(121,140,cs),
(121,63,o),
(184,0,o),
(261,0,cs)
);
},
{
closed = 1;
nodes = (
(371,468,o),
(438,552,o),
(425,640,cs),
(422,659,o),
(421,679,o),
(421,699,cs),
(421,914,o),
(595,1099,o),
(821,1099,cs),
(841,1099,o),
(861,1098,o),
(881,1095,cs),
(969,1082,o),
(1052,1149,o),
(1052,1243,cs),
(1052,1319,o),
(997,1381,o),
(924,1392,cs),
(890,1397,o),
(855,1399,o),
(821,1399,cs),
(427,1399,o),
(121,1077,o),
(121,699,cs),
(121,665,o),
(124,630,o),
(128,596,cs),
(139,524,o),
(201,468,o),
(277,468,cs)
);
},
{
closed = 1;
nodes = (
(1215,1,o),
(1521,323,o),
(1521,701,cs),
(1521,735,o),
(1518,770,o),
(1514,804,cs),
(1503,876,o),
(1441,932,o),
(1365,932,cs),
(1271,932,o),
(1204,848,o),
(1217,760,cs),
(1220,741,o),
(1221,721,o),
(1221,701,cs),
(1221,486,o),
(1047,301,o),
(821,301,cs),
(801,301,o),
(781,302,o),
(761,305,cs),
(673,318,o),
(590,251,o),
(590,157,cs),
(590,81,o),
(645,19,o),
(718,8,cs),
(752,3,o),
(787,1,o),
(821,1,cs)
);
}
);
width = 1642;
}
);
unicode = (216,248);
},
{
color = 5;
glyphname = OE;
kernLeft = O;
kernRight = E;
lastChange = "2022-06-05 19:17:49 +0000";
layers = (
{
layerId = m01;
shapes = (
{
attr = {
fillColor = (0,255);
lineCapEnd = "2";
lineCapStart = "1";
strokeHeight = 50;
strokeWidth = 50;
};
closed = 0;
nodes = (
(970,25,l),
(1665,25,l)
);
},
{
attr = {
fillColor = (0,255);
lineCapEnd = "3";
lineCapStart = "2";
strokeHeight = 50;
strokeWidth = 50;
};
closed = 0;
nodes = (
(970,758,l),
(970,53,l)
);
},
{
attr = {
fillColor = (0,255);
lineCapEnd = "1";
lineCapStart = "2";
strokeHeight = 50;
strokePos = 0;
strokeWidth = 50;
};
closed = 0;
nodes = (
(1665,1350,l),
(764,1350,ls),
(405,1350,o),
(114,1059,o),
(114,700,cs),
(114,341,o),
(405,50,o),
(764,50,c)
);
},
{
attr = {
fillColor = (0,255);
lineCapEnd = "2";
lineCapStart = "2";
strokeHeight = 50;
strokeWidth = 50;
};
closed = 0;
nodes = (
(1665,700,l),
(1243,700,l)
);
}
);
width = 1738;
},
{
layerId = "19FA402B-9607-46D9-AAD6-815AECBA5B6B";
shapes = (
{
attr = {
fillColor = (0,255);
lineCapEnd = "2";
lineCapStart = "1";
strokeHeight = 120;
strokePos = 1;
strokeWidth = 120;
};
closed = 0;
nodes = (
(1036,0,l),
(1733,0,l)
);
},
{
attr = {
fillColor = (0,255);
lineCapEnd = "3";
lineCapStart = "2";
strokeHeight = 120;
strokePos = 1;
strokeWidth = 120;
};
closed = 0;
nodes = (
(976,760,l),
(976,120,l)
);
},
{
attr = {
fillColor = (0,255);
lineCapEnd = "1";
lineCapStart = "2";
strokeHeight = 120;
strokePos = 0;
strokeWidth = 120;
};
closed = 0;
nodes = (
(1733,1280,l),
(780,1280,ls),
(459,1280,o),
(200,1021,o),
(200,700,cs),
(200,379,o),
(459,120,o),
(780,120,c)
);
},
{
attr = {
fillColor = (0,255);
lineCapEnd = "2";
lineCapStart = "2";
strokeHeight = 120;
strokeWidth = 120;
};
closed = 0;
nodes = (
(1732,700,l),
(1309,700,l)
);
}
);
width = 1819;
},
{
layerId = "FF87E3F2-B049-41CB-BF2F-09DB15105515";
shapes = (
{
attr = {
fillColor = (0,255);
lineCapEnd = "2";
lineCapStart = "1";
strokeHeight = 300;
strokeWidth = 300;
};
closed = 0;
nodes = (
(1209,150,l),
(2027,150,l)
);
},
{
attr = {
fillColor = (0,255);
lineCapEnd = "3";
lineCapStart = "2";
strokeHeight = 300;
strokeWidth = 300;
};
closed = 0;
nodes = (
(1209,840,l),
(1209,290,l)
);
},
{
attr = {
fillColor = (0,255);
lineCapEnd = "1";
lineCapStart = "2";
strokeHeight = 300;
strokePos = "0";
strokeWidth = 300;
};
closed = 0;
nodes = (
(2027,1099,l),
(799,1099,ls),
(578,1099,o),
(400,921,o),
(400,700,cs),
(400,479,o),
(578,301,o),
(799,301,c)
);
},
{
attr = {
fillColor = (0,255);
lineCapEnd = "2";
lineCapStart = "2";
strokeHeight = 300;
strokeWidth = 300;
};
closed = 0;
nodes = (
(2027,700,l),
(1492,700,l)
);
}
);
width = 2144;
}
);
metricLeft = O;
metricRight = E;
unicode = (338,339);
},
{
color = 4;
glyphname = P;
kernLeft = P;
kernRight = P;
lastChange = "2022-06-05 19:17:41 +0000";
layers = (
{
anchors = (
{
name = bottom;
pos = (575,0);
},
{
name = top;
pos = (575,1400);
}
);
layerId = m01;
shapes = (
{
attr = {
fillColor = (0,255);
lineCapEnd = "2";
lineCapStart = "1";
strokeHeight = 50;
strokePos = "1";
strokeWidth = 50;
};
closed = 0;
nodes = (
(86,661,l),
(86,3,l)
);
},
{
attr = {
fillColor = (0,255);
lineCapEnd = "1";
lineCapStart = "1";
strokeHeight = 50;
strokePos = "1";
strokeWidth = 50;
};
closed = 0;
nodes = (
(110,1350,l),
(727,1350,ls),
(910,1350,o),
(1059,1202,o),
(1059,1019,cs),
(1059,835,o),
(910,686,o),
(727,686,cs),
(552,686,l)
);
}
);
width = 1175;
},
{
anchors = (
{
name = bottom;
pos = (576,0);
},
{
name = top;
pos = (576,1400);
}
);
layerId = "19FA402B-9607-46D9-AAD6-815AECBA5B6B";
shapes = (
{
attr = {
fillColor = (0,255);
lineCapEnd = 2;
lineCapStart = 1;
strokeHeight = 120;
strokePos = 1;
strokeWidth = 120;
};
closed = 0;
nodes = (
(100,661,l),
(100,6,l)
);
},
{
attr = {
fillColor = (0,255);
lineCapEnd = 1;
lineCapStart = 1;
strokeHeight = 120;
strokePos = 1;
strokeWidth = 120;
};
closed = 0;
nodes = (
(160,1280,l),
(704,1280,ls),
(857,1280,o),
(981,1156,o),
(981,1003,cs),
(981,849,o),
(857,725,o),
(704,725,cs),
(558,725,l)
);
}
);
width = 1176;
},
{
anchors = (
{
name = bottom;
pos = (672,0);
},
{
name = top;
pos = (672,1400);
}
);
layerId = "FF87E3F2-B049-41CB-BF2F-09DB15105515";
shapes = (
{
attr = {
fillColor = (0,255);
lineCapEnd = "2";
lineCapStart = "1";
strokeHeight = 300;
strokePos = "1";
strokeWidth = 300;
};
closed = 0;
nodes = (
(110,661,l),
(110,15,l)
);
},
{
attr = {
fillColor = (0,255);
lineCapEnd = "1";
lineCapStart = "1";
strokeHeight = 300;
strokePos = "1";
strokeWidth = 300;
};
closed = 0;
nodes = (
(260,1100,l),
(771,1100,ls),
(876,1100,o),
(960,1015,o),
(960,911,cs),
(960,806,o),
(876,722,o),
(771,722,cs),
(672,722,l)
);
}
);
width = 1364;
}
);
metricLeft = H;
unicode = (80,112);
},
{
color = 5;
glyphname = Thorn;
kernLeft = I;
kernRight = THORN;
lastChange = "2022-06-05 19:17:50 +0000";
layers = (
{
layerId = m01;
shapes = (
{
attr = {
fillColor = (0,255);
lineCapEnd = "2";
lineCapStart = "1";
strokeHeight = 50;
strokeWidth = 50;
};
closed = 0;
nodes = (
(110,345,l),
(110,6,l)
);
},
{
attr = {
fillColor = (0,255);
lineCapEnd = "2";
lineCapStart = "1";
strokeHeight = 50;
strokeWidth = 50;
};
closed = 0;
nodes = (
(110,687,l),
(110,1394,l)
);
},
{
attr = {
fillColor = (0,255);
lineCapEnd = "1";
lineCapStart = "1";
strokeHeight = 50;
strokePos = "1";
strokeWidth = 50;
};
closed = 0;
nodes = (
(378,1034,l),
(593,1034,ls),
(776,1034,o),
(925,885,o),
(925,701,cs),
(925,518,o),
(776,370,o),
(593,370,cs),
(110,370,l)
);
}
);
width = 1041;
},
{
layerId = "19FA402B-9607-46D9-AAD6-815AECBA5B6B";
shapes = (
{
attr = {
fillColor = (0,255);
lineCapEnd = "2";
lineCapStart = "1";
strokeHeight = 120;
strokeWidth = 120;
};
closed = 0;
nodes = (
(160,363,l),
(160,6,l)
);
},
{
attr = {
fillColor = (0,255);
lineCapEnd = "2";
lineCapStart = "1";
strokeHeight = 120;
strokeWidth = 120;
};
closed = 0;
nodes = (
(160,717,l),
(160,1394,l)
);
},
{
attr = {
fillColor = (0,255);
lineCapEnd = "1";
lineCapStart = "1";
strokeHeight = 120;
strokePos = 1;
strokeWidth = 120;
};
closed = 0;
nodes = (
(500,978,l),
(658,978,ls),
(811,978,o),
(935,854,o),
(935,701,cs),
(935,547,o),
(811,423,o),
(658,423,cs),
(160,423,l)
);
}
);
width = 1130;
},
{
layerId = "FF87E3F2-B049-41CB-BF2F-09DB15105515";
shapes = (
{
attr = {
fillColor = (0,255);
lineCapEnd = "2";
lineCapStart = "1";
strokeHeight = 300;
strokeWidth = 300;
};
closed = 0;
nodes = (
(260,362,l),
(260,6,l)
);
},
{
attr = {
fillColor = (0,255);
lineCapEnd = "2";
lineCapStart = "1";
strokeHeight = 300;
strokeWidth = 300;
};
closed = 0;
nodes = (
(260,797,l),
(260,1394,l)
);
},
{
attr = {
fillColor = (0,255);
lineCapEnd = "1";
lineCapStart = "1";
strokeHeight = 300;
strokePos = "1";
strokeWidth = 300;
};
closed = 0;
nodes = (
(677,890,l),
(746,890,ls),
(851,890,o),
(935,806,o),
(935,701,cs),
(935,597,o),
(851,512,o),
(746,512,cs),
(260,512,l)
);
}
);
width = 1339;
}
);
metricLeft = H;
metricRight = P;
unicode = (222,254);
},
{
color = 4;
glyphname = Q;
kernLeft = O;
kernRight = O;
lastChange = "2022-06-05 19:17:41 +0000";
layers = (
{
anchors = (
{
name = bottom;
pos = (764,0);
},
{
name = top;
pos = (764,1400);
}
);
layerId = m01;
shapes = (
{
attr = {
fillColor = (0,255);
lineCapEnd = "1";
lineCapStart = "2";
strokeHeight = 50;
strokeWidth = 50;
};
closed = 0;
nodes = (
(949,514,l),
(1438,25,l)
);
},
{
attr = {
lineCapEnd = "1";
lineCapStart = "1";
strokeHeight = 50;
strokePos = "0";
strokeWidth = 50;
};
closed = 0;
nodes = (
(1414,700,l),
(1414,1059,o),
(1123,1350,o),
(764,1350,cs),
(405,1350,o),
(114,1059,o),
(114,700,cs),
(114,341,o),
(405,50,o),
(764,50,c)
);
}
);
width = 1528;
},
{
anchors = (
{
name = bottom;
pos = (780,0);
},
{
name = top;
pos = (780,1400);
}
);
layerId = "19FA402B-9607-46D9-AAD6-815AECBA5B6B";
shapes = (
{
attr = {
fillColor = (0,255);
lineCapEnd = "1";
lineCapStart = "2";
strokeHeight = 120;
strokeWidth = 120;
};
closed = 0;
nodes = (
(965,514,l),
(1419,60,l)
);
},
{
attr = {
lineCapEnd = "1";
lineCapStart = "1";
strokeHeight = 120;
strokePos = "0";
strokeWidth = 120;
};
closed = 0;
nodes = (
(1360,700,l),
(1360,1021,o),
(1101,1280,o),
(780,1280,cs),
(459,1280,o),
(200,1021,o),
(200,700,cs),
(200,379,o),
(459,120,o),
(780,120,c)
);
}
);
width = 1560;
},
{
anchors = (
{
name = bottom;
pos = (809,0);
},
{
name = top;
pos = (809,1400);
}
);
layerId = "FF87E3F2-B049-41CB-BF2F-09DB15105515";
shapes = (
{
attr = {
fillColor = (0,255);
lineCapEnd = "1";
lineCapStart = "2";
strokeHeight = 300;
strokeWidth = 300;
};
closed = 0;
nodes = (
(963,544,l),
(1356,151,l)
);
},
{
attr = {
lineCapEnd = "1";
lineCapStart = "1";
strokeHeight = 300;
strokePos = "0";
strokeWidth = 300;
};
closed = 0;
nodes = (
(1218,700,l),
(1218,926,o),
(1035,1109,o),
(809,1109,cs),
(583,1109,o),
(400,926,o),
(400,700,cs),
(400,474,o),
(583,291,o),
(809,291,c)
);
}
);
width = 1618;
}
);
metricLeft = O;
metricRight = O;
unicode = (81,113);
},
{
color = 4;
glyphname = R;
kernLeft = P;
kernRight = R;
lastChange = "2022-06-05 19:17:41 +0000";
layers = (
{
anchors = (
{
name = bottom;
pos = (543,0);
},
{
name = top;
pos = (543,1400);
}
);
layerId = m01;
shapes = (
{
attr = {
fillColor = (0,255);
lineCapEnd = "2";
lineCapStart = "1";
strokeHeight = 50;
strokePos = "1";
strokeWidth = 50;
};
closed = 0;
nodes = (
(87,700,l),
(87,3,l)
);
},
{
attr = {
fillColor = (0,255);
lineCapEnd = "2";
lineCapStart = "1";
strokeHeight = 50;
strokeWidth = 50;
};
closed = 0;
nodes = (
(542,661,l),
(1039,7,l)
);
},
{
attr = {
fillColor = (0,255);
lineCapEnd = "1";
lineCapStart = "1";
strokeHeight = 50;
strokePos = "1";
strokeWidth = 50;
};
closed = 0;
nodes = (
(110,1350,l),
(628,1350,ls),
(811,1350,o),
(960,1202,o),
(960,1019,cs),
(960,835,o),
(811,686,o),
(628,686,cs),
(542,686,l)
);
}
);
width = 1110;
},
{
anchors = (
{
name = bottom;
pos = (579,0);
},
{
name = top;
pos = (579,1400);
}
);
layerId = "19FA402B-9607-46D9-AAD6-815AECBA5B6B";
shapes = (
{
attr = {
fillColor = (0,255);
lineCapEnd = 2;
lineCapStart = 1;
strokeHeight = 120;
strokePos = 1;
strokeWidth = 120;
};
closed = 0;
nodes = (
(116,661,l),
(116,6,l)
);
},
{
attr = {
fillColor = (0,255);
lineCapEnd = 2;
lineCapStart = 1;
strokeHeight = 120;
strokeWidth = 120;
};
closed = 0;
nodes = (
(571,664,l),
(1061,17,l)
);
},
{
attr = {
fillColor = (0,255);
lineCapEnd = "1";
lineCapStart = "1";
strokeHeight = 120;
strokePos = "1";
strokeWidth = 120;
};
closed = 0;
nodes = (
(160,1280,l),
(654,1280,ls),
(807,1280,o),
(931,1156,o),
(931,1003,cs),
(931,849,o),
(807,725,o),
(654,725,cs),
(571,725,l)
);
}
);
width = 1158;
},
{
anchors = (
{
name = bottom;
pos = (665,0);
},
{
name = top;
pos = (665,1400);
}
);
layerId = "FF87E3F2-B049-41CB-BF2F-09DB15105515";
shapes = (
{
attr = {
fillColor = (0,255);
lineCapEnd = "2";
lineCapStart = "1";
strokeHeight = 300;
strokePos = "1";
strokeWidth = 300;
};
closed = 0;
nodes = (
(110,661,l),
(110,15,l)
);
},
{
attr = {
fillColor = (0,255);
lineCapEnd = "2";
lineCapStart = "1";
strokeHeight = 300;
strokeWidth = 300;
};
closed = 0;
nodes = (
(672,572,l),
(1218,52,l)
);
},
{
attr = {
fillColor = (0,255);
lineCapEnd = "1";
lineCapStart = "1";
strokeHeight = 300;
strokePos = "1";
strokeWidth = 300;
};
closed = 0;
nodes = (
(260,1100,l),
(771,1100,ls),
(876,1100,o),
(960,1015,o),
(960,911,cs),
(960,806,o),
(876,722,o),
(771,722,cs),
(672,722,l)
);
}
);
width = 1355;
}
);
metricLeft = H;
metricRight = K;
unicode = (82,114);
},
{
color = 4;
glyphname = S;
kernLeft = S;
kernRight = S;
lastChange = "2022-06-05 19:17:30 +0000";
layers = (
{
anchors = (
{
name = bottom;
pos = (544,0);
},
{
name = top;
pos = (544,1400);
}
);
layerId = m01;
shapes = (
{
attr = {
fillColor = (0,255);
lineCapEnd = "1";
lineCapStart = "2";
strokeHeight = 50;
strokePos = 0;
strokeWidth = 50;
};
closed = 0;
nodes = (
(72,50,l),
(711,50,ls),
(852,50,o),
(966,164,o),
(966,305,c)
);
},
{
attr = {
fillColor = (0,255);
lineCapEnd = "1";
lineCapStart = "1";
strokeHeight = 50;
strokeWidth = 50;
};
closed = 0;
nodes = (
(435,700,l),
(652,700,l)
);
},
{
attr = {
fillColor = (0,255);
lineCapEnd = "1";
lineCapStart = "2";
strokeHeight = 50;
strokePos = "0";
strokeWidth = 50;
};
closed = 0;
nodes = (
(1015,1350,l),
(376,1350,ls),
(235,1350,o),
(121,1236,o),
(121,1095,c)
);
}
);
width = 1088;
},
{
anchors = (
{
name = bottom;
pos = (523,0);
},
{
name = top;
pos = (583,1400);
}
);
layerId = "19FA402B-9607-46D9-AAD6-815AECBA5B6B";
shapes = (
{
attr = {
fillColor = (0,255);
lineCapEnd = "1";
lineCapStart = "2";
strokeHeight = 120;
strokePos = "0";
strokeWidth = 120;
};
closed = 0;
nodes = (
(86,120,l),
(732,120,ls),
(858,120,o),
(960,222,o),
(960,348,c)
);
},
{
attr = {
fillColor = (0,255);
lineCapEnd = 1;
lineCapStart = 1;
strokeHeight = 120;
strokeWidth = 120;
};
closed = 0;
nodes = (
(475,700,l),
(692,700,l)
);
},
{
attr = {
fillColor = (0,255);
lineCapEnd = 1;
lineCapStart = 2;
strokeHeight = 120;
strokePos = 0;
strokeWidth = 120;
};
closed = 0;
nodes = (
(1080,1280,l),
(434,1280,ls),
(308,1280,o),
(206,1178,o),
(206,1052,c)
);
}
);
width = 1166;
},
{
anchors = (
{
name = bottom;
pos = (645,0);
},
{
name = top;
pos = (645,1400);
}
);
layerId = "FF87E3F2-B049-41CB-BF2F-09DB15105515";
shapes = (
{
attr = {
fillColor = (0,255);
lineCapEnd = "1";
lineCapStart = "2";
strokeHeight = 300;
strokePos = "0";
strokeWidth = 300;
};
closed = 0;
nodes = (
(148,300,l),
(724,300,ls),
(822,300,o),
(901,379,o),
(901,476,c)
);
},
{
attr = {
fillColor = (0,255);
lineCapEnd = "1";
lineCapStart = "1";
strokeHeight = 300;
strokeWidth = 300;
};
closed = 0;
nodes = (
(590,700,l),
(699,700,l)
);
},
{
attr = {
fillColor = (0,255);
lineCapEnd = "1";
lineCapStart = "2";
strokeHeight = 300;
strokePos = "0";
strokeWidth = 300;
};
closed = 0;
nodes = (
(1141,1100,l),
(565,1100,ls),
(467,1100,o),
(388,1021,o),
(388,924,c)
);
}
);
width = 1289;
}
);
unicode = (83,115);
},
{
color = 5;
glyphname = Saltillo;
kernLeft = I;
kernRight = I;
lastChange = "2022-06-03 00:03:28 +0000";
layers = (
{
layerId = m01;
shapes = (
{
attr = {
fillColor = (0,255);
identifier = ID0x600002640d20;
lineCapEnd = "2";
lineCapStart = "2";
strokeHeight = 50;
strokeWidth = 50;
};
closed = 0;
nodes = (
(110,971,l),
(110,1594,l)
);
}
);
width = 220;
},
{
layerId = "19FA402B-9607-46D9-AAD6-815AECBA5B6B";
shapes = (
{
attr = {
fillColor = (0,255);
identifier = ID0x600002643aa0;
lineCapEnd = "2";
lineCapStart = "2";
strokeHeight = 120;
strokeWidth = 120;
};
closed = 0;
nodes = (
(160,971,l),
(160,1594,l)
);
}
);
width = 320;
},
{
layerId = "FF87E3F2-B049-41CB-BF2F-09DB15105515";
shapes = (
{
attr = {
fillColor = (0,255);
identifier = ID0x600002643b80;
lineCapEnd = "2";
lineCapStart = "2";
strokeHeight = 300;
strokeWidth = 300;
};
closed = 0;
nodes = (
(300,910,l),
(300,1655,l)
);
}
);
width = 600;
}
);
unicode = (42891,42892);
},
{
color = 5;
glyphname = Germandbls;
kernLeft = I;
kernRight = SZ;
lastChange = "2022-06-05 19:17:50 +0000";
layers = (
{
layerId = m01;
shapes = (
{
attr = {
fillColor = (0,255);
identifier = ID0x60000ffc08c0;
lineCapEnd = "2";
strokeHeight = 50;
strokeWidth = 50;
};
closed = 0;
nodes = (
(110,1374,l),
(110,3,l)
);
},
{
attr = {
fillColor = (0,255);
identifier = ID0x60000ffc08c0;
lineCapEnd = "2";
lineCapStart = "2";
strokeHeight = 50;
strokeWidth = 50;
};
closed = 0;
nodes = (
(311,25,l),
(691,25,ls),
(878,25,o),
(1029,176,o),
(1029,362,cs),
(1029,549,o),
(878,700,o),
(691,700,cs),
(448,700,l)
);
},
{
attr = {
fillColor = (0,255);
identifier = ID0x60000ffc08c0;
lineCapEnd = "2";
lineCapStart = "1";
strokeHeight = 50;
strokeWidth = 50;
};
closed = 0;
nodes = (
(110,1375,l),
(970,1375,ls)
);
},
{
attr = {
fillColor = (0,255);
identifier = ID0x60000ffc08c0;
lineCapEnd = "2";
lineCapStart = "1";
strokeHeight = 50;
strokeWidth = 50;
};
closed = 0;
nodes = (
(645,962,l),
(960,1393,l)
);
}
);
width = 1097;
},
{
layerId = "19FA402B-9607-46D9-AAD6-815AECBA5B6B";
shapes = (
{
attr = {
fillColor = (0,255);
identifier = ID0x60000ffc08c0;
lineCapEnd = "2";
strokeHeight = 120;
strokeWidth = 120;
};
closed = 0;
nodes = (
(160,1336,l),
(160,0,l)
);
},
{
attr = {
fillColor = (0,255);
identifier = ID0x60000ffc08c0;
lineCapEnd = "2";
lineCapStart = "2";
strokeHeight = 120;
strokeWidth = 120;
};
closed = 0;
nodes = (
(380,60,l),
(740,60,ls),
(917,60,o),
(1060,203,o),
(1060,380,cs),
(1060,557,o),
(917,700,o),
(740,700,cs),
(510,700,l)
);
},
{
attr = {
fillColor = (0,255);
identifier = ID0x60000ffc08c0;
lineCapEnd = "2";
lineCapStart = "1";
strokeHeight = 120;
strokeWidth = 120;
};
closed = 0;
nodes = (
(160,1340,l),
(1000,1340,ls)
);
},
{
attr = {
fillColor = (0,255);
identifier = ID0x60000ffc08c0;
lineCapEnd = "2";
lineCapStart = "1";
strokeHeight = 120;
strokeWidth = 120;
};
closed = 0;
nodes = (
(742,1044,l),
(972,1376,l)
);
}
);
width = 1170;
},
{
layerId = "FF87E3F2-B049-41CB-BF2F-09DB15105515";
shapes = (
{
attr = {
fillColor = (0,255);
identifier = ID0x60000ffc08c0;
lineCapEnd = "2";
strokeHeight = 300;
strokeWidth = 300;
};
closed = 0;
nodes = (
(260,1246,l),
(260,15,l)
);
},
{
attr = {
fillColor = (0,255);
identifier = ID0x600001f639c0;
lineCapEnd = 2;
lineCapStart = 2;
strokeHeight = 300;
strokePos = 0;
strokeWidth = 300;
};
closed = 0;
nodes = (
(486,300,l),
(910,300,ls),
(962,300,o),
(1004,342,o),
(1004,394,cs),
(1004,446,o),
(962,488,o),
(910,488,cs),
(651,488,l)
);
},
{
attr = {
fillColor = (0,255);
identifier = ID0x60000ffc08c0;
lineCapEnd = "2";
lineCapStart = "1";
strokeHeight = 300;
strokeWidth = 300;
};
closed = 0;
nodes = (
(260,1250,l),
(1210,1250,ls)
);
},
{
attr = {
fillColor = (0,255);
identifier = ID0x60000ffc08c0;
lineCapEnd = "2";
lineCapStart = "1";
strokeHeight = 300;
strokeWidth = 300;
};
closed = 0;
nodes = (
(888,992,l),
(1154,1359,l)
);
}
);
width = 1359;
}
);
metricLeft = H;
metricRight = B;
unicode = (7838,223);
},
{
color = 4;
glyphname = T;
kernLeft = T;
kernRight = T;
lastChange = "2022-06-05 19:17:41 +0000";
layers = (
{
anchors = (
{
name = bottom;
pos = (542,0);
},
{
name = center;
pos = (612,700);
},
{
name = top;
pos = (612,1400);
}
);
layerId = m01;
shapes = (
{
attr = {
fillColor = (0,255);
lineCapStart = "2";
strokeHeight = 50;
strokeWidth = 50;
};
closed = 0;
nodes = (
(611,3,l),
(611,1375,l)
);
},
{
attr = {
fillColor = (0,255);
lineCapEnd = "2";
lineCapStart = "2";
strokeHeight = 50;
strokePos = "1";
strokeWidth = 50;
};
closed = 0;
nodes = (
(633,1400,l),
(62,1400,l)
);
},
{
attr = {
fillColor = (0,255);
lineCapEnd = "2";
lineCapStart = "2";
strokeHeight = 50;
strokePos = "1";
strokeWidth = 50;
};
closed = 0;
nodes = (
(1160,1400,l),
(847,1400,l)
);
}
);
width = 1223;
},
{
anchors = (
{
name = bottom;
pos = (565,0);
},
{
name = center;
pos = (625,700);
},
{
name = top;
pos = (625,1400);
}
);
layerId = "19FA402B-9607-46D9-AAD6-815AECBA5B6B";
shapes = (
{
attr = {
fillColor = (0,255);
lineCapStart = 2;
strokeHeight = 120;
strokeWidth = 120;
};
closed = 0;
nodes = (
(625,6,l),
(625,1346,l)
);
},
{
attr = {
fillColor = (0,255);
lineCapEnd = 2;
lineCapStart = 2;
strokeHeight = 120;
strokePos = 1;
strokeWidth = 120;
};
closed = 0;
nodes = (
(679,1400,l),
(76,1400,l)
);
},
{
attr = {
fillColor = (0,255);
lineCapEnd = "2";
lineCapStart = "2";
strokeHeight = 120;
strokePos = "1";
strokeWidth = 120;
};
closed = 0;
nodes = (
(1174,1400,l),
(861,1400,l)
);
}
);
width = 1250;
},
{
anchors = (
{
name = bottom;
pos = (619,0);
},
{
name = center;
pos = (669,700);
},
{
name = top;
pos = (669,1400);
}
);
layerId = "FF87E3F2-B049-41CB-BF2F-09DB15105515";
shapes = (
{
attr = {
fillColor = (0,255);
lineCapStart = "2";
strokeHeight = 300;
strokeWidth = 300;
};
closed = 0;
nodes = (
(669,15,l),
(669,1246,l)
);
},
{
attr = {
fillColor = (0,255);
lineCapEnd = "2";
lineCapStart = "2";
strokeHeight = 300;
strokePos = "1";
strokeWidth = 300;
};
closed = 0;
nodes = (
(804,1400,l),
(100,1400,l)
);
},
{
attr = {
fillColor = (0,255);
lineCapEnd = "2";
lineCapStart = "2";
strokeHeight = 300;
strokePos = "1";
strokeWidth = 300;
};
closed = 0;
nodes = (
(1238,1400,l),
(905,1400,l)
);
}
);
width = 1338;
}
);
metricLeft = A;
metricRight = A;
unicode = (84,116);
},
{
color = 4;
glyphname = U;
kernLeft = U;
kernRight = U;
lastChange = "2022-06-05 19:22:19 +0000";
layers = (
{
anchors = (
{
name = bottom;
pos = (583,0);
},
{
name = ogonek;
pos = (583,0);
},
{
name = top;
pos = (583,1400);
},
{
name = topright;
pos = (1030,1396);
}
);
layerId = m01;
shapes = (
{
attr = {
lineCapEnd = "1";
lineCapStart = "2";
strokeHeight = 50;
strokePos = "1";
strokeWidth = 50;
};
closed = 0;
nodes = (
(85,1397,l),
(85,899,l)
);
},
{
attr = {
fillColor = (0,255);
identifier = ID0x600002858380;
lineCapEnd = "1";
lineCapStart = "2";
strokeHeight = 50;
strokePos = 0;
strokeWidth = 50;
};
closed = 0;
nodes = (
(135,498,l),
(135,250,o),
(335,50,o),
(583,50,cs),
(830,50,o),
(1030,250,o),
(1030,498,cs),
(1030,1397,l)
);
}
);
width = 1165;
},
{
anchors = (
{
name = bottom;
pos = (598,0);
},
{
name = ogonek;
pos = (628,2);
},
{
name = top;
pos = (598,1400);
},
{
name = topright;
pos = (977,1341);
}
);
layerId = "19FA402B-9607-46D9-AAD6-815AECBA5B6B";
shapes = (
{
attr = {
lineCapEnd = "1";
lineCapStart = 2;
strokeHeight = 120;
strokePos = "1";
strokeWidth = 120;
};
closed = 0;
nodes = (
(100,1394,l),
(100,899,l)
);
},
{
attr = {
lineCapEnd = 2;
lineCapStart = 1;
strokePos = 0;
strokeWidth = 120;
};
closed = 0;
nodes = (
(221,498,l),
(221,289,o),
(390,120,o),
(599,120,cs),
(807,120,o),
(976,289,o),
(976,498,cs),
(976,1394,l)
);
}
);
width = 1196;
},
{
anchors = (
{
name = bottom;
pos = (670,0);
},
{
name = ogonek;
pos = (670,0);
},
{
name = top;
pos = (670,1400);
},
{
name = topright;
pos = (929,1251);
}
);
layerId = "FF87E3F2-B049-41CB-BF2F-09DB15105515";
shapes = (
{
attr = {
lineCapEnd = "1";
lineCapStart = "2";
strokeHeight = 300;
strokePos = "1";
strokeWidth = 300;
};
closed = 0;
nodes = (
(110,1385,l),
(110,996,l)
);
},
{
attr = {
lineCapEnd = "1";
lineCapStart = "1";
strokeHeight = 300;
strokePos = "0";
strokeWidth = 300;
};
closed = 0;
nodes = (
(413,548,l),
(413,405,o),
(529,290,o),
(671,290,cs),
(813,290,o),
(929,405,o),
(929,548,cs),
(929,1249,l)
);
}
);
width = 1339;
}
);
metricLeft = H;
metricRight = H;
unicode = (85,117);
},
{
color = 4;
glyphname = V;
kernLeft = V;
kernRight = V;
lastChange = "2022-06-05 19:17:41 +0000";
layers = (
{
anchors = (
{
name = bottom;
pos = (676,0);
},
{
name = top;
pos = (676,1400);
}
);
layerId = m01;
shapes = (
{
attr = {
fillColor = (0,255);
identifier = ID0x60000283dce0;
lineCapEnd = "2";
lineCapStart = "2";
strokeHeight = 50;
strokeWidth = 50;
};
closed = 0;
nodes = (
(76,1396,l),
(375,689,l)
);
},
{
attr = {
fillColor = (0,255);
identifier = ID0x60000283dce0;
lineCapEnd = "2";
lineCapStart = "2";
strokeHeight = 50;
strokeWidth = 50;
};
closed = 0;
nodes = (
(1276,1396,l),
(679,4,l)
);
}
);
width = 1352;
},
{
anchors = (
{
name = bottom;
pos = (706,0);
},
{
name = top;
pos = (706,1400);
}
);
layerId = "19FA402B-9607-46D9-AAD6-815AECBA5B6B";
shapes = (
{
attr = {
fillColor = (0,255);
lineCapEnd = "2";
lineCapStart = "2";
strokeHeight = 120;
strokeWidth = 120;
};
closed = 0;
nodes = (
(109,1390,l),
(405,689,l)
);
},
{
attr = {
fillColor = (0,255);
lineCapEnd = "2";
lineCapStart = "2";
strokeHeight = 120;
strokeWidth = 120;
};
closed = 0;
nodes = (
(1303,1390,l),
(712,10,l)
);
}
);
width = 1412;
},
{
anchors = (
{
name = bottom;
pos = (768,0);
},
{
name = top;
pos = (768,1400);
}
);
layerId = "FF87E3F2-B049-41CB-BF2F-09DB15105515";
shapes = (
{
attr = {
fillColor = (0,255);
identifier = ID0x6000028b0380;
lineCapEnd = "2";
lineCapStart = "2";
strokeHeight = 300;
strokeWidth = 300;
};
closed = 0;
nodes = (
(178,1372,l),
(497,689,l)
);
},
{
attr = {
fillColor = (0,255);
identifier = ID0x6000028b0380;
lineCapEnd = "2";
lineCapStart = "2";
strokeHeight = 300;
strokeWidth = 300;
};
closed = 0;
nodes = (
(1358,1373,l),
(732,28,l)
);
}
);
width = 1536;
}
);
metricLeft = A;
metricRight = A;
unicode = (86,118);
},
{
color = 4;
glyphname = W;
kernLeft = W;
kernRight = W;
lastChange = "2022-06-05 19:17:41 +0000";
layers = (
{
anchors = (
{
name = bottom;
pos = (954,0);
},
{
name = top;
pos = (954,1400);
}
);
layerId = m01;
shapes = (
{
closed = 1;
nodes = (
(1404,0,o),
(1414,8,o),
(1417,18,cs),
(1847,1368,ls),
(1852,1383,o),
(1840,1400,o),
(1823,1400,cs),
(1812,1400,o),
(1802,1392,o),
(1799,1382,cs),
(1369,32,ls),
(1364,17,o),
(1376,0,o),
(1393,0,cs)
);
},
{
closed = 1;
nodes = (
(311,685,o),
(323,702,o),
(318,717,cs),
(109,1382,ls),
(106,1392,o),
(96,1400,o),
(85,1400,cs),
(68,1400,o),
(56,1383,o),
(61,1368,cs),
(270,703,ls),
(273,693,o),
(283,685,o),
(294,685,cs)
);
},
{
closed = 1;
nodes = (
(545,0,o),
(555,8,o),
(558,19,cs),
(978,1368,ls),
(983,1383,o),
(971,1400,o),
(954,1400,cs),
(943,1400,o),
(933,1392,o),
(930,1381,cs),
(510,32,ls),
(505,17,o),
(517,0,o),
(534,0,cs)
);
},
{
closed = 1;
nodes = (
(1169,686,o),
(1181,702,o),
(1177,717,cs),
(979,1382,ls),
(976,1393,o),
(966,1400,o),
(954,1400,cs),
(938,1400,o),
(926,1384,o),
(930,1369,cs),
(1128,704,ls),
(1131,693,o),
(1141,686,o),
(1153,686,cs)
);
}
);
width = 1908;
},
{
anchors = (
{
name = bottom;
pos = (987,0);
},
{
name = top;
pos = (987,1400);
}
);
layerId = "19FA402B-9607-46D9-AAD6-815AECBA5B6B";
shapes = (
{
closed = 1;
nodes = (
(1465,1,o),
(1488,20,o),
(1495,45,cs),
(1902,1320,ls),
(1913,1355,o),
(1891,1399,o),
(1845,1399,cs),
(1817,1399,o),
(1794,1380,o),
(1787,1355,cs),
(1380,80,ls),
(1369,45,o),
(1391,1,o),
(1437,1,cs)
);
},
{
closed = 1;
nodes = (
(362,681,o),
(385,722,o),
(375,757,cs),
(187,1355,ls),
(180,1380,o),
(157,1398,o),
(129,1398,cs),
(85,1398,o),
(62,1357,o),
(72,1322,cs),
(260,724,ls),
(267,699,o),
(290,681,o),
(318,681,cs)
);
},
{
closed = 1;
nodes = (
(606,1,o),
(629,20,o),
(636,44,cs),
(1044,1321,ls),
(1055,1356,o),
(1032,1400,o),
(987,1400,cs),
(959,1400,o),
(936,1381,o),
(929,1357,cs),
(521,80,ls),
(510,45,o),
(533,1,o),
(578,1,cs)
);
},
{
closed = 1;
nodes = (
(1220,681,o),
(1243,722,o),
(1233,757,cs),
(1045,1355,ls),
(1038,1380,o),
(1015,1398,o),
(987,1398,cs),
(943,1398,o),
(920,1357,o),
(930,1322,cs),
(1118,724,ls),
(1125,699,o),
(1148,681,o),
(1176,681,cs)
);
}
);
width = 1975;
},
{
anchors = (
{
name = bottom;
pos = (1033,0);
},
{
name = top;
pos = (1033,1400);
}
);
layerId = "FF87E3F2-B049-41CB-BF2F-09DB15105515";
shapes = (
{
closed = 1;
nodes = (
(1550,0,o),
(1608,45,o),
(1626,108,cs),
(1975,1208,ls),
(2003,1303,o),
(1931,1400,o),
(1831,1400,cs),
(1763,1400,o),
(1705,1355,o),
(1687,1292,cs),
(1338,192,ls),
(1310,97,o),
(1382,0,o),
(1482,0,cs)
);
},
{
closed = 1;
nodes = (
(470,668,o),
(542,763,o),
(514,859,cs),
(379,1291,ls),
(361,1354,o),
(304,1400,o),
(235,1400,cs),
(135,1400,o),
(63,1305,o),
(91,1209,cs),
(226,777,ls),
(244,714,o),
(301,668,o),
(370,668,cs)
);
},
{
closed = 1;
nodes = (
(751,0,o),
(809,45,o),
(827,108,cs),
(1176,1208,ls),
(1204,1303,o),
(1132,1400,o),
(1032,1400,cs),
(964,1400,o),
(906,1355,o),
(888,1292,cs),
(539,192,ls),
(511,97,o),
(583,0,o),
(683,0,cs)
);
},
{
closed = 1;
nodes = (
(1299,572,o),
(1371,667,o),
(1343,763,cs),
(1178,1291,ls),
(1160,1354,o),
(1103,1400,o),
(1034,1400,cs),
(934,1400,o),
(862,1305,o),
(890,1209,cs),
(1055,681,ls),
(1073,618,o),
(1130,572,o),
(1199,572,cs)
);
}
);
width = 2066;
}
);
metricLeft = A;
metricRight = A;
unicode = (87,119);
},
{
color = 4;
glyphname = X;
kernLeft = X;
kernRight = X;
lastChange = "2022-06-05 19:17:41 +0000";
layers = (
{
anchors = (
{
name = bottom;
pos = (616,0);
},
{
name = top;
pos = (616,1400);
}
);
layerId = m01;
shapes = (
{
attr = {
fillColor = (0,255);
lineCapEnd = "1";
lineCapStart = "2";
strokeHeight = 50;
strokeWidth = 50;
};
closed = 0;
nodes = (
(71,7,l),
(381,402,l)
);
},
{
attr = {
fillColor = (0,255);
lineCapEnd = "2";
lineCapStart = "2";
strokeHeight = 50;
strokeWidth = 50;
};
closed = 0;
nodes = (
(1160,7,l),
(71,1393,l)
);
},
{
attr = {
fillColor = (0,255);
lineCapEnd = "2";
lineCapStart = "1";
strokeHeight = 50;
strokeWidth = 50;
};
closed = 0;
nodes = (
(850,998,l),
(1159,1393,l)
);
}
);
width = 1231;
},
{
anchors = (
{
name = bottom;
pos = (635,0);
},
{
name = top;
pos = (635,1400);
}
);
layerId = "19FA402B-9607-46D9-AAD6-815AECBA5B6B";
shapes = (
{
attr = {
fillColor = (0,255);
lineCapEnd = 1;
lineCapStart = 2;
strokeHeight = 120;
strokeWidth = 120;
};
closed = 0;
nodes = (
(97,16,l),
(400,402,l)
);
},
{
attr = {
fillColor = (0,255);
lineCapEnd = 2;
lineCapStart = 2;
strokeHeight = 120;
strokeWidth = 120;
};
closed = 0;
nodes = (
(1170,18,l),
(99,1382,l)
);
},
{
attr = {
fillColor = (0,255);
lineCapEnd = 2;
lineCapStart = 1;
strokeHeight = 120;
strokeWidth = 120;
};
closed = 0;
nodes = (
(869,998,l),
(1170,1382,l)
);
}
);
width = 1267;
},
{
anchors = (
{
name = bottom;
pos = (667,0);
},
{
name = top;
pos = (667,1400);
}
);
layerId = "FF87E3F2-B049-41CB-BF2F-09DB15105515";
shapes = (
{
attr = {
fillColor = (0,255);
lineCapEnd = "1";
lineCapStart = "2";
strokeHeight = 300;
strokeWidth = 300;
};
closed = 0;
nodes = (
(152,44,l),
(403,364,l)
);
},
{
attr = {
fillColor = (0,255);
lineCapEnd = "2";
lineCapStart = "2";
strokeHeight = 300;
strokeWidth = 300;
};
closed = 0;
nodes = (
(1179,44,l),
(156,1356,l)
);
},
{
attr = {
fillColor = (0,255);
lineCapEnd = 2;
lineCapStart = 1;
strokeHeight = 300;
strokeWidth = 300;
};
closed = 0;
nodes = (
(930,1036,l),
(1181,1356,l)
);
}
);
width = 1333;
}
);
metricLeft = A;
metricRight = A;
unicode = (88,120);
},
{
color = 4;
glyphname = Y;
kernLeft = Y;
kernRight = Y;
lastChange = "2022-06-05 19:17:41 +0000";
layers = (
{
anchors = (
{
name = bottom;
pos = (616,0);
},
{
name = top;
pos = (616,1400);
},
{
name = topleft;
pos = (20,1400);
}
);
layerId = m01;
shapes = (
{
attr = {
fillColor = (0,255);
lineCapEnd = "2";
lineCapStart = "2";
strokeHeight = 50;
strokeWidth = 50;
};
closed = 0;
nodes = (
(616,3,l),
(616,719,l)
);
},
{
attr = {
fillColor = (0,255);
lineCapEnd = "1";
lineCapStart = "2";
strokeHeight = 50;
strokeWidth = 50;
};
closed = 0;
nodes = (
(71,1393,l),
(381,998,l)
);
},
{
attr = {
fillColor = (0,255);
lineCapEnd = "2";
lineCapStart = "1";
strokeHeight = 50;
strokeWidth = 50;
};
closed = 0;
nodes = (
(616,699,l),
(1160,1393,l)
);
}
);
width = 1231;
},
{
anchors = (
{
name = bottom;
pos = (633,0);
},
{
name = top;
pos = (633,1400);
},
{
name = topleft;
pos = (19,1400);
}
);
layerId = "19FA402B-9607-46D9-AAD6-815AECBA5B6B";
shapes = (
{
attr = {
fillColor = (0,255);
lineCapEnd = "2";
lineCapStart = "2";
strokeHeight = 120;
strokeWidth = 120;
};
closed = 0;
nodes = (
(633,6,l),
(633,739,l)
);
},
{
attr = {
fillColor = (0,255);
lineCapEnd = "1";
lineCapStart = "2";
strokeHeight = 120;
strokeWidth = 120;
};
closed = 0;
nodes = (
(97,1382,l),
(398,998,l)
);
},
{
attr = {
fillColor = (0,255);
lineCapEnd = "2";
lineCapStart = "1";
strokeHeight = 120;
strokeWidth = 120;
};
closed = 0;
nodes = (
(633,699,l),
(1169,1383,l)
);
}
);
width = 1266;
},
{
anchors = (
{
name = bottom;
pos = (666,0);
},
{
name = top;
pos = (666,1400);
},
{
name = topleft;
pos = (5,1400);
}
);
layerId = "FF87E3F2-B049-41CB-BF2F-09DB15105515";
shapes = (
{
attr = {
fillColor = (0,255);
lineCapEnd = "2";
lineCapStart = "2";
strokeHeight = 300;
strokeWidth = 300;
};
closed = 0;
nodes = (
(667,15,l),
(667,829,l)
);
},
{
attr = {
fillColor = (0,255);
lineCapEnd = 1;
lineCapStart = 2;
strokeHeight = 300;
strokeWidth = 300;
};
closed = 0;
nodes = (
(152,1356,l),
(403,1036,l)
);
},
{
attr = {
fillColor = (0,255);
lineCapEnd = "2";
lineCapStart = "1";
strokeHeight = 300;
strokeWidth = 300;
};
closed = 0;
nodes = (
(667,699,l),
(1179,1356,l)
);
}
);
width = 1331;
}
);
metricLeft = A;
metricRight = A;
unicode = (89,121);
},
{
color = 4;
glyphname = Z;
kernLeft = Z;
kernRight = Z;
lastChange = "2022-06-05 19:17:41 +0000";
layers = (
{
anchors = (
{
name = bottom;
pos = (610,0);
},
{
name = center;
pos = (610,700);
},
{
name = top;
pos = (610,1400);
}
);
layerId = m01;
shapes = (
{
attr = {
fillColor = (0,255);
lineCapEnd = "2";
lineCapStart = "2";
strokeHeight = 50;
strokePos = "1";
strokeWidth = 50;
};
closed = 0;
nodes = (
(62,0,l),
(1156,0,l)
);
},
{
attr = {
fillColor = (0,255);
lineCapEnd = "2";
lineCapStart = "2";
strokeHeight = 50;
strokeWidth = 50;
};
closed = 0;
nodes = (
(686,795,l),
(76,14,l)
);
},
{
attr = {
fillColor = (0,255);
lineCapEnd = "2";
lineCapStart = "2";
strokeHeight = 50;
strokePos = "0";
strokeWidth = 50;
};
closed = 0;
nodes = (
(62,1396,l),
(1156,1396,l)
);
}
);
width = 1219;
},
{
anchors = (
{
name = bottom;
pos = (623,0);
},
{
name = center;
pos = (623,700);
},
{
name = top;
pos = (623,1400);
}
);
layerId = "19FA402B-9607-46D9-AAD6-815AECBA5B6B";
shapes = (
{
attr = {
fillColor = (0,255);
lineCapEnd = 2;
lineCapStart = 2;
strokeHeight = 120;
strokePos = 1;
strokeWidth = 120;
};
closed = 0;
nodes = (
(76,0,l),
(1170,0,l)
);
},
{
attr = {
fillColor = (0,255);
lineCapEnd = 2;
lineCapStart = 2;
strokeHeight = 120;
strokeWidth = 120;
};
closed = 0;
nodes = (
(700,795,l),
(99,21,l)
);
},
{
attr = {
fillColor = (0,255);
lineCapEnd = 2;
lineCapStart = 2;
strokeHeight = 120;
strokePos = 0;
strokeWidth = 120;
};
closed = 0;
nodes = (
(76,1396,l),
(1170,1396,l)
);
}
);
width = 1246;
},
{
anchors = (
{
name = bottom;
pos = (648,0);
},
{
name = center;
pos = (648,700);
},
{
name = top;
pos = (648,1400);
}
);
layerId = "FF87E3F2-B049-41CB-BF2F-09DB15105515";
shapes = (
{
attr = {
fillColor = (0,255);
lineCapEnd = "2";
lineCapStart = "2";
strokeHeight = 300;
strokePos = "1";
strokeWidth = 300;
};
closed = 0;
nodes = (
(102,0,l),
(1196,0,l)
);
},
{
attr = {
fillColor = (0,255);
lineCapEnd = "2";
lineCapStart = "2";
strokeHeight = 300;
strokeWidth = 300;
};
closed = 0;
nodes = (
(726,795,l),
(152,56,l)
);
},
{
attr = {
fillColor = (0,255);
lineCapEnd = "2";
lineCapStart = "2";
strokeHeight = 300;
strokePos = "0";
strokeWidth = 300;
};
closed = 0;
nodes = (
(102,1396,l),
(1196,1396,l)
);
}
);
width = 1296;
}
);
metricLeft = A;
metricRight = A;
unicode = (90,122);
},
{
color = 6;
glyphname = C_O;
kernLeft = O;
kernRight = I;
lastChange = "2022-06-05 19:17:50 +0000";
layers = (
{
layerId = m01;
shapes = (
{
ref = C;
},
{
closed = 1;
nodes = (
(485,988,o),
(496,999,o),
(496,1013,cs),
(496,1027,o),
(485,1038,o),
(471,1038,cs),
(456,1038,o),
(445,1027,o),
(445,1013,cs),
(445,999,o),
(456,988,o),
(471,988,cs)
);
},
{
attr = {
identifier = ID0x600001eacd20;
lineCapEnd = "1";
lineCapStart = "1";
strokePos = "0";
strokeWidth = 50;
};
closed = 0;
nodes = (
(373,690,l),
(373,464,o),
(556,281,o),
(783,281,cs),
(1009,281,o),
(1193,464,o),
(1193,690,cs),
(1193,917,o),
(1009,1100,o),
(783,1100,c)
);
}
);
width = 1287;
},
{
layerId = "19FA402B-9607-46D9-AAD6-815AECBA5B6B";
shapes = (
{
ref = C;
},
{
closed = 1;
nodes = (
(551,932,o),
(578,959,o),
(578,992,cs),
(578,1025,o),
(551,1052,o),
(518,1052,cs),
(485,1052,o),
(458,1025,o),
(458,992,cs),
(458,959,o),
(485,932,o),
(518,932,cs)
);
},
{
attr = {
identifier = ID0x600001eacb60;
lineCapEnd = "1";
lineCapStart = "1";
strokeHeight = 120;
strokePos = "0";
strokeWidth = 120;
};
closed = 0;
nodes = (
(471,691,l),
(471,512,o),
(615,369,o),
(793,369,cs),
(971,369,o),
(1115,512,o),
(1115,691,cs),
(1115,869,o),
(971,1013,o),
(793,1013,c)
);
}
);
width = 1285;
},
{
layerId = "FF87E3F2-B049-41CB-BF2F-09DB15105515";
shapes = (
{
ref = C;
},
{
closed = 1;
nodes = (
(716,825,o),
(746,855,o),
(746,892,cs),
(746,929,o),
(716,958,o),
(679,958,cs),
(643,958,o),
(613,929,o),
(613,892,cs),
(613,855,o),
(643,825,o),
(679,825,cs)
);
},
{
attr = {
identifier = ID0x600001eacc40;
lineCapEnd = "1";
lineCapStart = "1";
strokeHeight = 133;
strokePos = "0";
strokeWidth = 133;
};
closed = 0;
nodes = (
(693,701,l),
(693,603,o),
(772,523,o),
(871,523,cs),
(969,523,o),
(1049,603,o),
(1049,701,cs),
(1049,800,o),
(969,879,o),
(871,879,c)
);
}
);
width = 1270;
}
);
metricLeft = C;
metricRight = C;
},
{
color = 6;
glyphname = F_F;
kernLeft = E;
kernRight = F;
lastChange = "2022-06-05 19:17:50 +0000";
layers = (
{
layerId = m01;
shapes = (
{
ref = F;
},
{
pos = (1001,0);
ref = F;
},
{
closed = 1;
nodes = (
(907,1350,l),
(1112,1350,l),
(1112,1400,l),
(907,1400,l)
);
}
);
width = 2002;
},
{
layerId = "19FA402B-9607-46D9-AAD6-815AECBA5B6B";
shapes = (
{
ref = F;
},
{
pos = (1069,0);
ref = F;
},
{
closed = 1;
nodes = (
(928,1280,l),
(1233,1280,l),
(1233,1400,l),
(928,1400,l)
);
}
);
width = 2138;
},
{
layerId = "FF87E3F2-B049-41CB-BF2F-09DB15105515";
shapes = (
{
ref = F;
},
{
pos = (1258,0);
ref = F;
},
{
closed = 1;
nodes = (
(987,1100,l),
(1575,1100,l),
(1575,1400,l),
(987,1400,l)
);
}
);
width = 2458;
}
);
metricLeft = F;
metricRight = F;
},
{
color = 6;
glyphname = F_L;
kernLeft = E;
kernRight = L;
lastChange = "2022-06-05 19:17:50 +0000";
layers = (
{
layerId = m01;
shapes = (
{
ref = F;
},
{
pos = (1001,0);
ref = L;
},
{
closed = 1;
nodes = (
(907,1350,l),
(1112,1350,l),
(1112,1400,l),
(907,1400,l)
);
}
);
width = 2166;
},
{
layerId = "19FA402B-9607-46D9-AAD6-815AECBA5B6B";
shapes = (
{
ref = F;
},
{
pos = (1069,0);
ref = L;
},
{
closed = 1;
nodes = (
(928,1280,l),
(1233,1280,l),
(1233,1400,l),
(928,1400,l)
);
}
);
width = 2266;
},
{
layerId = "FF87E3F2-B049-41CB-BF2F-09DB15105515";
shapes = (
{
ref = F;
},
{
pos = (1258,0);
ref = L;
},
{
closed = 1;
nodes = (
(987,1100,l),
(1575,1100,l),
(1575,1400,l),
(987,1400,l)
);
}
);
width = 2498;
}
);
metricLeft = F;
metricRight = L;
},
{
color = 6;
glyphname = H_E;
kernLeft = I;
kernRight = E;
lastChange = "2022-06-05 19:17:50 +0000";
layers = (
{
layerId = m01;
shapes = (
{
attr = {
fillColor = (0,255);
identifier = ID0x600001e1e4c0;
lineCapEnd = "2";
lineCapStart = "2";
strokeHeight = "50\\";
strokeWidth = 50;
};
closed = 0;
nodes = (
(110,405,l),
(110,3,l)
);
},
{
attr = {
fillColor = (0,255);
identifier = ID0x600001e1e4c0;
lineCapEnd = "2";
lineCapStart = "1";
strokeHeight = "50\\";
strokeWidth = 50;
};
closed = 0;
nodes = (
(110,700,l),
(110,1397,l)
);
},
{
attr = {
identifier = ID0x600001e1e4c0;
lineCapEnd = "3";
lineCapStart = "3";
strokeHeight = "50\\";
strokeWidth = 50;
};
closed = 0;
nodes = (
(135,700,l),
(1091,700,l)
);
},
{
attr = {
fillColor = (0,255);
identifier = ID0x600001e1e4c0;
lineCapEnd = "1";
lineCapStart = "2";
strokeHeight = "50\\";
strokeWidth = 50;
};
closed = 0;
nodes = (
(1116,3,l),
(1116,700,l)
);
},
{
attr = {
fillColor = (0,255);
identifier = ID0x600001e1ddc0;
lineCapEnd = "2";
lineCapStart = "1";
strokeHeight = 50;
strokeWidth = 50;
};
closed = 0;
nodes = (
(1116,25,l),
(1934,25,l)
);
},
{
attr = {
fillColor = (0,255);
identifier = ID0x600001e1ddc0;
lineCapEnd = "2";
lineCapStart = "2";
strokeHeight = 50;
strokeWidth = 50;
};
closed = 0;
nodes = (
(1934,700,l),
(1389,700,l)
);
},
{
attr = {
fillColor = (0,255);
identifier = ID0x600001e1ddc0;
lineCapEnd = "1";
lineCapStart = "2";
strokeHeight = 50;
strokeWidth = 50;
};
closed = 0;
nodes = (
(1934,1375,l),
(1116,1375,l)
);
}
);
width = 2007;
},
{
layerId = "19FA402B-9607-46D9-AAD6-815AECBA5B6B";
shapes = (
{
attr = {
fillColor = (0,255);
identifier = ID0x600001e1e680;
lineCapEnd = "2";
lineCapStart = "2";
strokeHeight = 120;
strokeWidth = 120;
};
closed = 0;
nodes = (
(160,405,l),
(160,6,l)
);
},
{
attr = {
fillColor = (0,255);
identifier = ID0x600001e1e680;
lineCapEnd = "2";
lineCapStart = "1";
strokeHeight = 120;
strokeWidth = 120;
};
closed = 0;
nodes = (
(160,700,l),
(160,1394,l)
);
},
{
attr = {
identifier = ID0x600001e1e680;
lineCapEnd = "3";
lineCapStart = "3";
strokeHeight = 120;
strokeWidth = 120;
};
closed = 0;
nodes = (
(220,700,l),
(1106,700,l)
);
},
{
attr = {
fillColor = (0,255);
identifier = ID0x600001e1e680;
lineCapEnd = "1";
lineCapStart = 2;
strokeHeight = 120;
strokeWidth = 120;
};
closed = 0;
nodes = (
(1166,6,l),
(1166,700,l)
);
},
{
attr = {
fillColor = (0,255);
identifier = ID0x600001e1e5a0;
lineCapEnd = "2";
lineCapStart = "1";
strokeHeight = 120;
strokeWidth = 120;
};
closed = 0;
nodes = (
(1166,60,l),
(1984,60,l)
);
},
{
attr = {
fillColor = (0,255);
identifier = ID0x600001e1e5a0;
lineCapEnd = "2";
lineCapStart = "2";
strokeHeight = 120;
strokeWidth = 120;
};
closed = 0;
nodes = (
(1984,700,l),
(1439,700,l)
);
},
{
attr = {
fillColor = (0,255);
identifier = ID0x600001e1e5a0;
lineCapEnd = "1";
lineCapStart = "2";
strokeHeight = 120;
strokeWidth = 120;
};
closed = 0;
nodes = (
(1984,1340,l),
(1166,1340,l)
);
}
);
width = 2070;
},
{
layerId = "FF87E3F2-B049-41CB-BF2F-09DB15105515";
shapes = (
{
attr = {
fillColor = (0,255);
identifier = ID0x600001e1ef40;
lineCapEnd = "2";
lineCapStart = "2";
strokeHeight = 300;
strokeWidth = 300;
};
closed = 0;
nodes = (
(260,405,l),
(260,15,l)
);
},
{
attr = {
fillColor = (0,255);
identifier = ID0x600001e1ef40;
lineCapEnd = "2";
lineCapStart = "1";
strokeHeight = 300;
strokeWidth = 300;
};
closed = 0;
nodes = (
(260,700,l),
(260,1385,l)
);
},
{
attr = {
identifier = ID0x600001e1ef40;
lineCapEnd = "3";
lineCapStart = "3";
strokeHeight = 300;
strokeWidth = 300;
};
closed = 0;
nodes = (
(410,700,l),
(1116,700,l)
);
},
{
attr = {
fillColor = (0,255);
identifier = ID0x600001e1ef40;
lineCapEnd = "1";
lineCapStart = "2";
strokeHeight = 300;
strokeWidth = 300;
};
closed = 0;
nodes = (
(1266,15,l),
(1266,700,l)
);
},
{
attr = {
fillColor = (0,255);
identifier = ID0x600001e1ea00;
lineCapEnd = "2";
lineCapStart = "1";
strokeHeight = 300;
strokeWidth = 300;
};
closed = 0;
nodes = (
(1266,150,l),
(2084,150,l)
);
},
{
attr = {
fillColor = (0,255);
identifier = ID0x600001e1ea00;
lineCapEnd = "2";
lineCapStart = "2";
strokeHeight = 300;
strokeWidth = 300;
};
closed = 0;
nodes = (
(2084,700,l),
(1549,700,l)
);
},
{
attr = {
fillColor = (0,255);
identifier = ID0x600001e1ea00;
lineCapEnd = "1";
lineCapStart = "2";
strokeHeight = 300;
strokeWidth = 300;
};
closed = 0;
nodes = (
(2084,1250,l),
(1266,1250,l)
);
}
);
width = 2201;
}
);
metricLeft = H;
metricRight = E;
},
{
color = 6;
glyphname = L_A;
kernLeft = I;
kernRight = A;
lastChange = "2022-06-05 19:17:50 +0000";
layers = (
{
layerId = m01;
shapes = (
{
attr = {
fillColor = (0,255);
identifier = ID0x600001e888c0;
lineCapEnd = "2";
lineCapStart = "2";
strokeHeight = 50;
strokePos = "1";
strokeWidth = 50;
};
closed = 0;
nodes = (
(87,0,l),
(1102,0,l)
);
},
{
attr = {
fillColor = (0,255);
identifier = ID0x600001e888c0;
lineCapEnd = "1";
lineCapStart = "2";
strokeHeight = 50;
strokePos = "1";
strokeWidth = 50;
};
closed = 0;
nodes = (
(87,1397,l),
(87,402,l)
);
},
{
attr = {
fillColor = (0,255);
identifier = ID0x600001e88d20;
lineCapEnd = "2";
lineCapStart = "2";
strokeHeight = 50;
strokeWidth = 50;
};
closed = 0;
nodes = (
(880,711,l),
(724,342,l)
);
},
{
attr = {
fillColor = (0,255);
identifier = ID0x600001e88d20;
lineCapEnd = "2";
lineCapStart = "2";
strokeHeight = 50;
strokeWidth = 50;
};
closed = 0;
nodes = (
(1184,1396,l),
(1781,4,l)
);
}
);
width = 1857;
},
{
layerId = "19FA402B-9607-46D9-AAD6-815AECBA5B6B";
shapes = (
{
attr = {
fillColor = (0,255);
identifier = ID0x600001e89ce0;
lineCapEnd = "2";
lineCapStart = "2";
strokeHeight = 120;
strokePos = "1";
strokeWidth = 120;
};
closed = 0;
nodes = (
(106,0,l),
(1121,0,l)
);
},
{
attr = {
fillColor = (0,255);
identifier = ID0x600001e89ce0;
lineCapEnd = "1";
lineCapStart = "2";
strokeHeight = 120;
strokePos = "1";
strokeWidth = 120;
};
closed = 0;
nodes = (
(106,1394,l),
(106,402,l)
);
},
{
attr = {
fillColor = (0,255);
identifier = ID0x600001e890a0;
lineCapEnd = "2";
lineCapStart = "2";
strokeHeight = 120;
strokeWidth = 120;
};
closed = 0;
nodes = (
(982,711,l),
(826,342,l)
);
},
{
attr = {
fillColor = (0,255);
identifier = ID0x600001e890a0;
lineCapEnd = "2";
lineCapStart = "2";
strokeHeight = 120;
strokeWidth = 120;
};
closed = 0;
nodes = (
(1289,1390,l),
(1880,10,l)
);
}
);
width = 1989;
},
{
layerId = "FF87E3F2-B049-41CB-BF2F-09DB15105515";
shapes = (
{
attr = {
fillColor = (0,255);
identifier = ID0x600001e882a0;
lineCapEnd = "2";
lineCapStart = "2";
strokeHeight = 300;
strokePos = "1";
strokeWidth = 300;
};
closed = 0;
nodes = (
(125,0,l),
(1140,0,l)
);
},
{
attr = {
fillColor = (0,255);
identifier = ID0x600001e882a0;
lineCapEnd = "1";
lineCapStart = "2";
strokeHeight = 300;
strokePos = "1";
strokeWidth = 300;
};
closed = 0;
nodes = (
(125,1385,l),
(125,602,l)
);
},
{
attr = {
fillColor = (0,255);
identifier = ID0x600001e88a80;
lineCapEnd = "2";
lineCapStart = "2";
strokeHeight = 300;
strokeWidth = 300;
};
closed = 0;
nodes = (
(1037,711,l),
(883,381,l)
);
},
{
attr = {
fillColor = (0,255);
identifier = ID0x600001e88a80;
lineCapEnd = "2";
lineCapStart = "2";
strokeHeight = 300;
strokeWidth = 300;
};
closed = 0;
nodes = (
(1272,1372,l),
(1898,28,l)
);
}
);
width = 2076;
}
);
metricLeft = L;
metricRight = A;
},
{
color = 6;
glyphname = L_I;
kernLeft = I;
kernRight = I;
lastChange = "2022-06-05 19:17:50 +0000";
layers = (
{
layerId = m01;
shapes = (
{
ref = L;
},
{
attr = {
fillColor = (0,255);
identifier = ID0x600001e31880;
lineCapEnd = "2";
lineCapStart = "1";
strokeHeight = 50;
strokeWidth = 50;
};
closed = 0;
nodes = (
(1075,661,l),
(1075,254,l)
);
},
{
attr = {
fillColor = (0,255);
identifier = ID0x600001e31880;
lineCapEnd = "1";
lineCapStart = "2";
strokeHeight = 50;
strokeWidth = 50;
};
closed = 0;
nodes = (
(1075,1397,l),
(1075,989,l)
);
}
);
width = 1190;
},
{
layerId = "19FA402B-9607-46D9-AAD6-815AECBA5B6B";
shapes = (
{
ref = L;
},
{
attr = {
fillColor = (0,255);
identifier = ID0x600001e31880;
lineCapEnd = "2";
lineCapStart = "1";
strokeHeight = 120;
strokeWidth = 120;
};
closed = 0;
nodes = (
(1067,686,l),
(1067,295,l)
);
},
{
attr = {
fillColor = (0,255);
identifier = ID0x600001e31880;
lineCapEnd = "1";
lineCapStart = "2";
strokeHeight = 120;
strokeWidth = 120;
};
closed = 0;
nodes = (
(1067,1394,l),
(1067,1002,l)
);
}
);
width = 1227;
},
{
layerId = "FF87E3F2-B049-41CB-BF2F-09DB15105515";
shapes = (
{
ref = L;
},
{
attr = {
fillColor = (0,255);
identifier = ID0x600001e31880;
lineCapEnd = "2";
lineCapStart = "1";
strokeHeight = 300;
strokeWidth = 300;
};
closed = 0;
nodes = (
(1045,691,l),
(1045,454,l)
);
},
{
attr = {
fillColor = (0,255);
identifier = ID0x600001e31880;
lineCapEnd = "1";
lineCapStart = "2";
strokeHeight = 300;
strokeWidth = 300;
};
closed = 0;
nodes = (
(1045,1385,l),
(1045,1147,l)
);
}
);
width = 1305;
}
);
metricLeft = L;
metricRight = I;
},
{
color = 6;
glyphname = L_N;
kernLeft = I;
kernRight = I;
lastChange = "2022-06-05 19:17:50 +0000";
layers = (
{
layerId = m01;
shapes = (
{
ref = L;
},
{
attr = {
fillColor = (0,255);
identifier = ID0x600001e80c40;
lineCapEnd = "2";
lineCapStart = "2";
strokeHeight = 50;
strokePos = "1";
strokeWidth = 50;
};
closed = 0;
nodes = (
(1050,1397,l),
(1050,253,l)
);
},
{
attr = {
fillColor = (0,255);
identifier = ID0x600001e80c40;
lineCapEnd = "1";
strokeHeight = 50;
strokeWidth = 50;
};
closed = 0;
nodes = (
(2237,26,l),
(1508,1000,l)
);
},
{
attr = {
fillColor = (0,255);
identifier = ID0x600001e80c40;
lineCapEnd = "2";
lineCapStart = "2";
strokeHeight = 50;
strokePos = "0";
strokeWidth = 50;
};
closed = 0;
nodes = (
(2263,1397,l),
(2263,3,l)
);
}
);
width = 2348;
},
{
layerId = "19FA402B-9607-46D9-AAD6-815AECBA5B6B";
shapes = (
{
ref = L;
},
{
attr = {
fillColor = (0,255);
identifier = ID0x600001e81f80;
lineCapEnd = "2";
lineCapStart = "2";
strokeHeight = 120;
strokePos = "1";
strokeWidth = 120;
};
closed = 0;
nodes = (
(1007,1394,l),
(1007,296,l)
);
},
{
attr = {
fillColor = (0,255);
identifier = ID0x600001e81f80;
lineCapEnd = "1";
strokeHeight = 120;
strokeWidth = 120;
};
closed = 0;
nodes = (
(2162,57,l),
(1465,1000,l)
);
},
{
attr = {
fillColor = (0,255);
identifier = ID0x600001e81f80;
lineCapEnd = "2";
lineCapStart = "2";
strokeHeight = 120;
strokePos = "0";
strokeWidth = 120;
};
closed = 0;
nodes = (
(2220,1394,l),
(2220,6,l)
);
}
);
width = 2320;
},
{
layerId = "FF87E3F2-B049-41CB-BF2F-09DB15105515";
shapes = (
{
alignment = -1;
ref = L;
},
{
attr = {
fillColor = (0,255);
identifier = ID0x600001eb3480;
lineCapEnd = "2";
lineCapStart = "2";
strokeHeight = 300;
strokePos = "1";
strokeWidth = 300;
};
closed = 0;
nodes = (
(895,1385,l),
(895,455,l)
);
},
{
attr = {
fillColor = (0,255);
identifier = ID0x600001eb3480;
lineCapEnd = "1";
strokeHeight = 300;
strokeWidth = 300;
};
closed = 0;
nodes = (
(2050,138,l),
(1487,767,l)
);
},
{
attr = {
fillColor = (0,255);
identifier = ID0x600001eb3480;
lineCapEnd = "2";
lineCapStart = "2";
strokeHeight = 300;
strokePos = "0";
strokeWidth = 300;
};
closed = 0;
nodes = (
(2188,1385,l),
(2188,15,l)
);
}
);
width = 2298;
}
);
metricLeft = L;
metricRight = N;
},
{
color = 6;
glyphname = T_E;
kernLeft = T;
kernRight = E;
lastChange = "2022-06-05 19:17:50 +0000";
layers = (
{
layerId = m01;
shapes = (
{
ref = T;
},
{
alignment = -1;
pos = (1030,0);
ref = E;
},
{
closed = 1;
nodes = (
(1114,1350,l),
(1164,1350,l),
(1164,1400,l),
(1114,1400,l)
);
}
);
width = 2031;
},
{
layerId = "19FA402B-9607-46D9-AAD6-815AECBA5B6B";
shapes = (
{
ref = T;
},
{
alignment = -1;
pos = (1030,0);
ref = E;
},
{
closed = 1;
nodes = (
(1120,1280,l),
(1190,1280,l),
(1190,1400,l),
(1120,1400,l)
);
}
);
width = 2094;
},
{
layerId = "FF87E3F2-B049-41CB-BF2F-09DB15105515";
shapes = (
{
ref = T;
},
{
alignment = -1;
pos = (1118,0);
ref = E;
},
{
closed = 1;
nodes = (
(1123,1100,l),
(1415,1100,l),
(1415,1400,l),
(1123,1400,l)
);
}
);
width = 2313;
}
);
metricLeft = T;
metricRight = E;
},
{
color = 6;
glyphname = T_T;
kernLeft = T;
kernRight = T;
lastChange = "2022-06-05 19:17:50 +0000";
layers = (
{
layerId = m01;
shapes = (
{
ref = T;
},
{
alignment = -1;
pos = (1053,0);
ref = T;
},
{
closed = 1;
nodes = (
(1113,1350,l),
(1163,1350,l),
(1163,1400,l),
(1113,1400,l)
);
}
);
width = 2276;
},
{
layerId = "19FA402B-9607-46D9-AAD6-815AECBA5B6B";
shapes = (
{
ref = T;
},
{
alignment = -1;
pos = (1053,0);
ref = T;
},
{
closed = 1;
nodes = (
(1121,1280,l),
(1183,1280,l),
(1183,1400,l),
(1121,1400,l)
);
}
);
width = 2303;
},
{
layerId = "FF87E3F2-B049-41CB-BF2F-09DB15105515";
shapes = (
{
ref = T;
},
{
alignment = -1;
pos = (1168,0);
ref = T;
},
{
closed = 1;
nodes = (
(1117,1100,l),
(1418,1100,l),
(1418,1400,l),
(1117,1400,l)
);
}
);
width = 2506;
}
);
metricLeft = T;
metricRight = T;
},
{
color = 5;
glyphname = fi;
kernLeft = E;
kernRight = I;
lastChange = "2022-06-05 19:17:50 +0000";
layers = (
{
anchors = (
{
name = caret_1;
pos = (623,0);
}
);
layerId = m01;
shapes = (
{
attr = {
fillColor = (0,255);
identifier = ID0x60000288b3a0;
lineCapEnd = 3;
lineCapStart = 1;
strokeHeight = 50;
strokeWidth = 50;
};
closed = 0;
nodes = (
(110,25,l),
(110,675,l)
);
},
{
attr = {
fillColor = (0,255);
identifier = ID0x60000288b3a0;
lineCapEnd = 2;
lineCapStart = 1;
strokeHeight = 50;
strokeWidth = 50;
};
closed = 0;
nodes = (
(110,700,l),
(836,700,l)
);
},
{
attr = {
fillColor = (0,255);
identifier = ID0x600002888540;
lineCapEnd = "2";
lineCapStart = "1";
strokeHeight = 50;
strokeWidth = 50;
};
closed = 0;
nodes = (
(1136,500,l),
(1136,3,l)
);
},
{
attr = {
fillColor = (0,255);
identifier = ID0x60000288b3a0;
lineCapEnd = "1";
strokeHeight = 50;
strokeWidth = 50;
};
closed = 0;
nodes = (
(1137,1375,l),
(110,1375,l)
);
},
{
attr = {
fillColor = (0,255);
identifier = ID0x600002888540;
lineCapEnd = "1";
lineCapStart = "2";
strokeHeight = 50;
strokeWidth = 50;
};
closed = 0;
nodes = (
(1136,1397,l),
(1136,900,l)
);
}
);
width = 1246;
},
{
anchors = (
{
name = caret_1;
pos = (679.5,0);
}
);
layerId = "19FA402B-9607-46D9-AAD6-815AECBA5B6B";
shapes = (
{
attr = {
fillColor = (0,255);
identifier = ID0x600000ba8000;
lineCapEnd = "3";
lineCapStart = "1";
strokeHeight = 120;
strokeWidth = 120;
};
closed = 0;
nodes = (
(160,60,l),
(160,640,l)
);
},
{
attr = {
fillColor = (0,255);
identifier = ID0x600000ba8000;
lineCapEnd = "2";
lineCapStart = "1";
strokeHeight = 120;
strokeWidth = 120;
};
closed = 0;
nodes = (
(160,700,l),
(883,700,l)
);
},
{
attr = {
fillColor = (0,255);
identifier = ID0x600000ba82a0;
lineCapEnd = "2";
lineCapStart = "1";
strokeHeight = 120;
strokeWidth = 120;
};
closed = 0;
nodes = (
(1199,500,l),
(1199,6,l)
);
},
{
attr = {
fillColor = (0,255);
identifier = ID0x600000ba8000;
lineCapEnd = "1";
strokeHeight = 120;
strokeWidth = 120;
};
closed = 0;
nodes = (
(1199,1340,l),
(160,1340,l)
);
},
{
attr = {
fillColor = (0,255);
identifier = ID0x600000ba82a0;
lineCapEnd = "1";
lineCapStart = "2";
strokeHeight = 120;
strokeWidth = 120;
};
closed = 0;
nodes = (
(1199,1394,l),
(1199,900,l)
);
}
);
width = 1359;
},
{
anchors = (
{
name = caret_1;
pos = (889,0);
}
);
layerId = "FF87E3F2-B049-41CB-BF2F-09DB15105515";
shapes = (
{
attr = {
fillColor = (0,255);
identifier = ID0x60000288b020;
lineCapEnd = "3";
lineCapStart = "1";
strokeHeight = 300;
strokeWidth = 300;
};
closed = 0;
nodes = (
(260,150,l),
(260,560,l)
);
},
{
attr = {
fillColor = (0,255);
identifier = ID0x60000288b020;
lineCapEnd = "2";
lineCapStart = "1";
strokeHeight = 300;
strokeWidth = 300;
};
closed = 0;
nodes = (
(260,700,l),
(983,700,l)
);
},
{
attr = {
fillColor = (0,255);
identifier = ID0x600002fedb20;
lineCapEnd = "2";
lineCapStart = "1";
strokeHeight = 300;
strokeWidth = 300;
};
closed = 0;
nodes = (
(1518,440,l),
(1518,6,l)
);
},
{
attr = {
fillColor = (0,255);
identifier = ID0x60000288b020;
lineCapEnd = "1";
strokeHeight = 300;
strokeWidth = 300;
};
closed = 0;
nodes = (
(1513,1250,l),
(260,1250,l)
);
},
{
attr = {
fillColor = (0,255);
identifier = ID0x600002fedb20;
lineCapEnd = "1";
lineCapStart = "2";
strokeHeight = 300;
strokeWidth = 300;
};
closed = 0;
nodes = (
(1518,1385,l),
(1518,960,l)
);
}
);
width = 1778;
}
);
metricLeft = F;
metricRight = I;
unicode = 64257;
},
{
color = 5;
glyphname = fl;
kernLeft = E;
kernRight = L;
lastChange = "2022-06-05 19:17:50 +0000";
layers = (
{
anchors = (
{
name = caret_1;
pos = (1083,0);
}
);
layerId = m01;
shapes = (
{
attr = {
fillColor = (0,255);
identifier = ID0x60000286c8c0;
lineCapEnd = "3";
lineCapStart = "1";
strokeHeight = 50;
strokeWidth = 50;
};
closed = 0;
nodes = (
(110,25,l),
(110,675,l)
);
},
{
attr = {
fillColor = (0,255);
identifier = ID0x60000286c8c0;
lineCapEnd = "2";
lineCapStart = "1";
strokeHeight = 50;
strokeWidth = 50;
};
closed = 0;
nodes = (
(110,700,l),
(836,700,l)
);
},
{
attr = {
fillColor = (0,255);
identifier = ID0x60000288ff00;
lineCapEnd = "2";
lineCapStart = "2";
strokeHeight = 50;
strokePos = "1";
strokeWidth = 50;
};
closed = 0;
nodes = (
(1113,4,l),
(2128,4,l)
);
},
{
attr = {
fillColor = (0,255);
identifier = ID0x60000286c8c0;
lineCapEnd = "1";
strokeHeight = 50;
strokeWidth = 50;
};
closed = 0;
nodes = (
(1139,1375,l),
(110,1375,l)
);
},
{
attr = {
fillColor = (0,255);
identifier = ID0x60000288ff00;
lineCapEnd = "1";
lineCapStart = "2";
strokeHeight = 50;
strokePos = "1";
strokeWidth = 50;
};
closed = 0;
nodes = (
(1113,1397,l),
(1113,402,l)
);
}
);
width = 2191;
},
{
anchors = (
{
name = caret_1;
pos = (1118,0);
}
);
layerId = "19FA402B-9607-46D9-AAD6-815AECBA5B6B";
shapes = (
{
attr = {
fillColor = (0,255);
identifier = ID0x600000ba80e0;
lineCapEnd = "3";
lineCapStart = "1";
strokeHeight = 120;
strokeWidth = 120;
};
closed = 0;
nodes = (
(160,60,l),
(160,640,l)
);
},
{
attr = {
fillColor = (0,255);
identifier = ID0x600000ba80e0;
lineCapEnd = "2";
lineCapStart = "1";
strokeHeight = 120;
strokeWidth = 120;
};
closed = 0;
nodes = (
(160,700,l),
(883,700,l)
);
},
{
attr = {
fillColor = (0,255);
identifier = ID0x600000ba8460;
lineCapEnd = "2";
lineCapStart = "2";
strokeHeight = 120;
strokePos = "1";
strokeWidth = 120;
};
closed = 0;
nodes = (
(1145,4,l),
(2160,4,l)
);
},
{
attr = {
fillColor = (0,255);
identifier = ID0x600000ba80e0;
lineCapEnd = "1";
strokeHeight = 120;
strokeWidth = 120;
};
closed = 0;
nodes = (
(1204,1340,l),
(160,1340,l)
);
},
{
attr = {
fillColor = (0,255);
identifier = ID0x600000ba8460;
lineCapEnd = "1";
lineCapStart = "2";
strokeHeight = 120;
strokePos = "1";
strokeWidth = 120;
};
closed = 0;
nodes = (
(1145,1394,l),
(1145,402,l)
);
}
);
width = 2236;
},
{
anchors = (
{
name = caret_1;
pos = (1237,0);
}
);
layerId = "FF87E3F2-B049-41CB-BF2F-09DB15105515";
shapes = (
{
attr = {
fillColor = (0,255);
identifier = ID0x60000288ed80;
lineCapEnd = "3";
lineCapStart = "1";
strokeHeight = 300;
strokeWidth = 300;
};
closed = 0;
nodes = (
(260,150,l),
(260,560,l)
);
},
{
attr = {
fillColor = (0,255);
identifier = ID0x60000288ed80;
lineCapEnd = "2";
lineCapStart = "1";
strokeHeight = 300;
strokeWidth = 300;
};
closed = 0;
nodes = (
(260,700,l),
(983,700,l)
);
},
{
attr = {
fillColor = (0,255);
identifier = ID0x60000288d420;
lineCapEnd = "2";
lineCapStart = "2";
strokeHeight = 300;
strokePos = "1";
strokeWidth = 300;
};
closed = 0;
nodes = (
(1383,4,l),
(2398,4,l)
);
},
{
attr = {
fillColor = (0,255);
identifier = ID0x60000288ed80;
lineCapEnd = "1";
strokeHeight = 300;
strokeWidth = 300;
};
closed = 0;
nodes = (
(1533,1250,l),
(260,1250,l)
);
},
{
attr = {
fillColor = (0,255);
identifier = ID0x60000288d420;
lineCapEnd = "1";
lineCapStart = "2";
strokeHeight = 300;
strokePos = "1";
strokeWidth = 300;
};
closed = 0;
nodes = (
(1383,1385,l),
(1383,602,l)
);
}
);
width = 2498;
}
);
metricLeft = F;
metricRight = L;
unicode = 64258;
},
{
color = 8;
glyphname = ordfeminine;
lastChange = "2022-06-05 19:17:50 +0000";
layers = (
{
layerId = m01;
shapes = (
{
attr = {
fillColor = (0,255);
lineCapEnd = "2";
lineCapStart = "2";
strokeHeight = 50;
strokeWidth = 50;
};
closed = 0;
nodes = (
(196,1122,l),
(76,840,l)
);
},
{
attr = {
fillColor = (0,255);
lineCapEnd = "2";
lineCapStart = "2";
strokeHeight = 50;
strokeWidth = 50;
};
closed = 0;
nodes = (
(317,1396,l),
(556,840,l)
);
}
);
width = 632;
},
{
layerId = "19FA402B-9607-46D9-AAD6-815AECBA5B6B";
shapes = (
{
attr = {
fillColor = (0,255);
lineCapEnd = "2";
lineCapStart = "2";
strokeHeight = 120;
strokeWidth = 120;
};
closed = 0;
nodes = (
(228,1118,l),
(109,837,l)
);
},
{
attr = {
fillColor = (0,255);
lineCapEnd = "2";
lineCapStart = "2";
strokeHeight = 120;
strokeWidth = 120;
};
closed = 0;
nodes = (
(351,1390,l),
(588,837,l)
);
}
);
width = 697;
},
{
layerId = "FF87E3F2-B049-41CB-BF2F-09DB15105515";
shapes = (
{
attr = {
fillColor = (0,255);
identifier = ID0x60000289aa00;
lineCapEnd = "2";
lineCapStart = "2";
strokeHeight = 300;
strokeWidth = 300;
};
closed = 0;
nodes = (
(340,1023,l),
(178,673,l)
);
},
{
attr = {
fillColor = (0,255);
identifier = ID0x60000289aa00;
lineCapEnd = "2";
lineCapStart = "2";
strokeHeight = 300;
strokeWidth = 300;
};
closed = 0;
nodes = (
(425,1371,l),
(819,687,l)
);
}
);
width = 987;
}
);
metricLeft = A;
metricRight = A;
unicode = 170;
},
{
color = 8;
glyphname = ordmasculine;
lastChange = "2022-06-05 19:17:50 +0000";
layers = (
{
layerId = m01;
shapes = (
{
closed = 1;
nodes = (
(186,1263,o),
(197,1274,o),
(197,1288,cs),
(197,1302,o),
(186,1313,o),
(172,1313,cs),
(158,1313,o),
(147,1302,o),
(147,1288,cs),
(147,1274,o),
(158,1263,o),
(172,1263,cs)
);
},
{
attr = {
lineCapEnd = "1";
lineCapStart = "1";
strokePos = "0";
strokeWidth = 50;
};
closed = 0;
nodes = (
(110,1090,l),
(110,946,o),
(226,830,o),
(370,830,cs),
(514,830,o),
(630,946,o),
(630,1090,cs),
(630,1234,o),
(514,1350,o),
(370,1350,c)
);
}
);
width = 740;
},
{
layerId = "19FA402B-9607-46D9-AAD6-815AECBA5B6B";
shapes = (
{
closed = 1;
nodes = (
(185,1259,o),
(212,1286,o),
(212,1318,cs),
(212,1351,o),
(185,1378,o),
(153,1378,cs),
(120,1378,o),
(93,1351,o),
(93,1318,cs),
(93,1286,o),
(120,1259,o),
(153,1259,cs)
);
},
{
attr = {
lineCapEnd = "1";
lineCapStart = "1";
strokeHeight = 120;
strokePos = 0;
strokeWidth = 120;
};
closed = 0;
nodes = (
(190,1119,l),
(190,1030,o),
(262,959,o),
(351,959,cs),
(440,959,o),
(511,1030,o),
(511,1119,cs),
(511,1208,o),
(440,1280,o),
(351,1280,c)
);
}
);
width = 701;
},
{
layerId = "FF87E3F2-B049-41CB-BF2F-09DB15105515";
shapes = (
{
closed = 1;
nodes = (
(250,1195,o),
(287,1230,o),
(287,1276,cs),
(287,1321,o),
(250,1358,o),
(206,1358,cs),
(161,1358,o),
(124,1321,o),
(124,1276,cs),
(124,1230,o),
(161,1195,o),
(206,1195,cs)
);
},
{
attr = {
lineCapEnd = "1";
lineCapStart = "1";
strokeHeight = 300;
strokePos = "0";
strokeWidth = 300;
};
closed = 0;
nodes = (
(385,1023,l),
(385,983,o),
(419,949,o),
(459,949,cs),
(499,949,o),
(533,983,o),
(533,1023,cs),
(533,1064,o),
(499,1097,o),
(459,1097,c)
);
}
);
width = 918;
}
);
metricLeft = A;
metricRight = A;
unicode = 186;
},
{
color = 5;
glyphname = Delta;
lastChange = "2022-06-05 19:17:50 +0000";
layers = (
{
layerId = m01;
shapes = (
{
attr = {
fillColor = (0,255);
lineCapEnd = "2";
lineCapStart = "2";
strokeHeight = 50;
strokePos = "1";
strokeWidth = 50;
};
closed = 0;
nodes = (
(62,0,l),
(1282,0,l)
);
},
{
attr = {
fillColor = (0,255);
lineCapEnd = "2";
strokeHeight = 50;
strokePos = "0";
strokeWidth = 50;
};
closed = 0;
nodes = (
(61,34,l),
(501,963,l)
);
},
{
attr = {
fillColor = (0,255);
lineCapEnd = "2";
lineCapStart = "2";
strokeHeight = 50;
strokeWidth = 50;
};
closed = 0;
nodes = (
(1134,339,l),
(664,1396,l)
);
}
);
width = 1345;
},
{
layerId = "19FA402B-9607-46D9-AAD6-815AECBA5B6B";
shapes = (
{
attr = {
fillColor = (0,255);
lineCapEnd = 2;
lineCapStart = 2;
strokeHeight = 120;
strokePos = 1;
strokeWidth = 120;
};
closed = 0;
nodes = (
(76,0,l),
(1296,0,l)
);
},
{
attr = {
fillColor = (0,255);
lineCapEnd = 2;
strokeHeight = 120;
strokePos = 0;
strokeWidth = 120;
};
closed = 0;
nodes = (
(74,82,l),
(490,963,l)
);
},
{
attr = {
fillColor = (0,255);
lineCapEnd = 2;
lineCapStart = 2;
strokeHeight = 120;
strokeWidth = 120;
};
closed = 0;
nodes = (
(1148,339,l),
(682,1388,l)
);
}
);
width = 1372;
},
{
layerId = "FF87E3F2-B049-41CB-BF2F-09DB15105515";
shapes = (
{
attr = {
fillColor = (0,255);
lineCapEnd = "2";
lineCapStart = "2";
strokeHeight = 300;
strokePos = "1";
strokeWidth = 300;
};
closed = 0;
nodes = (
(100,0,l),
(1320,0,l)
);
},
{
attr = {
fillColor = (0,255);
lineCapEnd = "2";
strokeHeight = 300;
strokePos = "0";
strokeWidth = 300;
};
closed = 0;
nodes = (
(96,207,l),
(453,963,l)
);
},
{
attr = {
fillColor = (0,255);
lineCapEnd = "2";
lineCapStart = "2";
strokeHeight = 300;
strokeWidth = 300;
};
closed = 0;
nodes = (
(1114,469,l),
(713,1373,l)
);
}
);
width = 1420;
}
);
metricLeft = A;
metricRight = A;
unicode = (916,8710);
},
{
color = 5;
glyphname = Omega;
lastChange = "2022-06-05 19:17:50 +0000";
layers = (
{
layerId = m01;
shapes = (
{
attr = {
strokeHeight = 50;
strokePos = "0";
strokeWidth = 50;
};
closed = 1;
nodes = (
(854,463,o),
(1053,662,o),
(1053,907,cs),
(1053,1151,o),
(854,1350,o),
(610,1350,cs),
(365,1350,o),
(166,1151,o),
(166,907,cs),
(166,662,o),
(365,463,o),
(610,463,cs)
);
},
{
attr = {
fillColor = (0,255);
lineCapEnd = "2";
lineCapStart = "2";
strokeHeight = 50;
strokePos = "1";
strokeWidth = 50;
};
closed = 0;
nodes = (
(62,0,l),
(1156,0,l)
);
}
);
width = 1219;
},
{
layerId = "19FA402B-9607-46D9-AAD6-815AECBA5B6B";
shapes = (
{
attr = {
strokeHeight = 120;
strokePos = 0;
strokeWidth = 120;
};
closed = 1;
nodes = (
(844,481,o),
(1023,660,o),
(1023,881,cs),
(1023,1101,o),
(844,1280,o),
(624,1280,cs),
(403,1280,o),
(224,1101,o),
(224,881,cs),
(224,660,o),
(403,481,o),
(624,481,cs)
);
},
{
attr = {
fillColor = (0,255);
lineCapEnd = "2";
lineCapStart = "2";
strokeHeight = 120;
strokePos = "1";
strokeWidth = 120;
};
closed = 0;
nodes = (
(76,4,l),
(1170,4,l)
);
}
);
width = 1246;
},
{
layerId = "FF87E3F2-B049-41CB-BF2F-09DB15105515";
shapes = (
{
attr = {
strokeHeight = 300;
strokePos = "0";
strokeWidth = 300;
};
closed = 1;
nodes = (
(769,661,o),
(867,759,o),
(867,881,cs),
(867,1002,o),
(769,1100,o),
(648,1100,cs),
(526,1100,o),
(428,1002,o),
(428,881,cs),
(428,759,o),
(526,661,o),
(648,661,cs)
);
},
{
attr = {
fillColor = (0,255);
lineCapEnd = "2";
lineCapStart = "2";
strokeHeight = 300;
strokePos = "1";
strokeWidth = 300;
};
closed = 0;
nodes = (
(100,4,l),
(1194,4,l)
);
}
);
width = 1294;
}
);
metricLeft = A;
metricRight = A;
unicode = 937;
},
{
color = 5;
glyphname = pi;
lastChange = "2022-06-05 19:17:50 +0000";
layers = (
{
layerId = m01;
shapes = (
{
attr = {
fillColor = (0,255);
identifier = ID0x60000ffd02a0;
lineCapEnd = "2";
lineCapStart = "2";
strokeHeight = 50;
strokeWidth = 50;
};
closed = 0;
nodes = (
(302,645,l),
(302,3,l)
);
},
{
attr = {
identifier = ID0x60000ffd02a0;
lineCapEnd = "3";
lineCapStart = "1";
strokeHeight = 50;
strokePos = "0";
strokeWidth = 50;
};
closed = 0;
nodes = (
(85,1000,l),
(850,1000,l)
);
},
{
attr = {
lineCapEnd = "1";
lineCapStart = "1";
strokeHeight = 50;
strokePos = "0";
strokeWidth = 50;
};
closed = 0;
nodes = (
(895,975,l),
(895,220,ls),
(895,126,o),
(970,50,o),
(1064,50,c)
);
}
);
width = 1149;
},
{
layerId = "19FA402B-9607-46D9-AAD6-815AECBA5B6B";
shapes = (
{
attr = {
fillColor = (0,255);
identifier = ID0x60000ffd02a0;
lineCapEnd = "2";
lineCapStart = "2";
strokeHeight = 120;
strokeWidth = 120;
};
closed = 0;
nodes = (
(347,645,l),
(347,6,l)
);
},
{
attr = {
identifier = ID0x60000ffd02a0;
lineCapEnd = "3";
lineCapStart = "1";
strokeHeight = 120;
strokePos = 0;
strokeWidth = 120;
};
closed = 0;
nodes = (
(130,1000,l),
(826,1000,l)
);
},
{
attr = {
lineCapEnd = 1;
lineCapStart = 1;
strokeHeight = 120;
strokePos = 0;
strokeWidth = 120;
};
closed = 0;
nodes = (
(946,940,l),
(946,277,ls),
(946,190,o),
(1016,120,o),
(1103,120,c)
);
}
);
width = 1233;
},
{
layerId = "FF87E3F2-B049-41CB-BF2F-09DB15105515";
shapes = (
{
attr = {
fillColor = (0,255);
identifier = ID0x60000ffd02a0;
lineCapEnd = "2";
lineCapStart = "2";
strokeHeight = 300;
strokeWidth = 300;
};
closed = 0;
nodes = (
(452,545,l),
(452,15,l)
);
},
{
attr = {
identifier = ID0x60000ffd02a0;
lineCapEnd = "3";
lineCapStart = "1";
strokeHeight = 300;
strokePos = "0";
strokeWidth = 300;
};
closed = 0;
nodes = (
(235,1000,l),
(764,1000,l)
);
},
{
attr = {
lineCapEnd = "1";
lineCapStart = "1";
strokeHeight = 300;
strokePos = "0";
strokeWidth = 300;
};
closed = 0;
nodes = (
(1070,850,l),
(1070,418,ls),
(1070,353,o),
(1123,300,o),
(1189,300,c)
);
}
);
width = 1424;
}
);
metricLeft = A;
metricRight = A;
unicode = 960;
},
{
color = 1;
glyphname = zero;
lastChange = "2022-06-03 22:35:53 +0000";
layers = (
{
layerId = m01;
shapes = (
{
attr = {
lineCapEnd = "1";
lineCapStart = "1";
strokeHeight = 50;
strokePos = "0";
strokeWidth = 50;
};
closed = 0;
nodes = (
(130,307,l),
(130,165,o),
(245,50,o),
(387,50,cs),
(529,50,o),
(644,165,o),
(644,307,cs),
(644,588,l)
);
},
{
attr = {
fillColor = (0,255);
lineCapEnd = "1";
lineCapStart = "1";
strokeHeight = 50;
strokeWidth = 50;
};
closed = 0;
nodes = (
(219,588,l),
(555,812,l)
);
},
{
attr = {
lineCapEnd = "1";
lineCapStart = "1";
strokeHeight = 50;
strokePos = "0";
strokeWidth = 50;
};
closed = 0;
nodes = (
(644,1093,l),
(644,1235,o),
(529,1350,o),
(387,1350,cs),
(245,1350,o),
(130,1235,o),
(130,1093,cs),
(130,812,l)
);
}
);
width = 774;
},
{
layerId = "19FA402B-9607-46D9-AAD6-815AECBA5B6B";
shapes = (
{
attr = {
lineCapEnd = "1";
lineCapStart = "1";
strokeHeight = 120;
strokePos = "0";
strokeWidth = 120;
};
closed = 0;
nodes = (
(220,352,l),
(220,226,o),
(322,124,o),
(448,124,cs),
(574,124,o),
(676,226,o),
(676,352,cs),
(676,601,l)
);
},
{
attr = {
fillColor = (0,255);
lineCapEnd = 1;
lineCapStart = 1;
strokeHeight = 120;
strokeWidth = 120;
};
closed = 0;
nodes = (
(299,601,l),
(597,799,l)
);
},
{
attr = {
lineCapEnd = 1;
lineCapStart = 1;
strokeHeight = 120;
strokePos = 0;
strokeWidth = 120;
};
closed = 0;
nodes = (
(676,1048,l),
(676,1174,o),
(574,1276,o),
(448,1276,cs),
(322,1276,o),
(220,1174,o),
(220,1048,cs),
(220,799,l)
);
}
);
width = 896;
},
{
layerId = "FF87E3F2-B049-41CB-BF2F-09DB15105515";
shapes = (
{
attr = {
lineCapEnd = "1";
lineCapStart = "1";
strokeHeight = 300;
strokePos = "0";
strokeWidth = 300;
};
closed = 0;
nodes = (
(391,449,l),
(391,361,o),
(462,290,o),
(549,290,cs),
(636,290,o),
(707,361,o),
(707,449,cs),
(707,461,l)
);
},
{
attr = {
fillColor = (0,255);
lineCapEnd = "1";
lineCapStart = "1";
strokeHeight = 300;
strokeWidth = 300;
};
closed = 0;
nodes = (
(482,678,l),
(616,722,l)
);
},
{
attr = {
lineCapEnd = "1";
lineCapStart = "1";
strokeHeight = 300;
strokePos = "0";
strokeWidth = 300;
};
closed = 0;
nodes = (
(707,951,l),
(707,1039,o),
(636,1110,o),
(549,1110,cs),
(462,1110,o),
(391,1039,o),
(391,951,cs),
(391,939,l)
);
}
);
width = 1098;
}
);
unicode = 48;
},
{
color = 1;
glyphname = one;
lastChange = "2022-06-01 20:42:43 +0000";
layers = (
{
layerId = m01;
shapes = (
{
attr = {
fillColor = (0,255);
lineCapEnd = "2";
lineCapStart = "1";
strokeHeight = 50;
strokeWidth = 50;
};
closed = 0;
nodes = (
(472,440,l),
(472,3,l)
);
},
{
attr = {
fillColor = (0,255);
lineCapEnd = "1";
lineCapStart = "1";
strokeHeight = 50;
strokeWidth = 50;
};
closed = 0;
nodes = (
(175,1138,l),
(472,1374,l)
);
},
{
attr = {
fillColor = (0,255);
lineCapEnd = "1";
lineCapStart = "2";
strokeHeight = 50;
strokeWidth = 50;
};
closed = 0;
nodes = (
(472,1397,l),
(472,840,l)
);
}
);
width = 774;
},
{
layerId = "19FA402B-9607-46D9-AAD6-815AECBA5B6B";
shapes = (
{
attr = {
fillColor = (0,255);
lineCapEnd = "2";
lineCapStart = "1";
strokeHeight = 120;
strokeWidth = 120;
};
closed = 0;
nodes = (
(528,440,l),
(528,6,l)
);
},
{
attr = {
fillColor = (0,255);
lineCapEnd = 1;
lineCapStart = 1;
strokeHeight = 120;
strokeWidth = 120;
};
closed = 0;
nodes = (
(231,1138,l),
(528,1342,l)
);
},
{
attr = {
fillColor = (0,255);
lineCapEnd = "1";
lineCapStart = "2";
strokeHeight = 120;
strokeWidth = 120;
};
closed = 0;
nodes = (
(528,1394,l),
(528,840,l)
);
}
);
width = 896;
},
{
layerId = "FF87E3F2-B049-41CB-BF2F-09DB15105515";
shapes = (
{
attr = {
fillColor = (0,255);
lineCapEnd = "2";
lineCapStart = "1";
strokeHeight = 300;
strokeWidth = 300;
};
closed = 0;
nodes = (
(614,410,l),
(614,15,l)
);
},
{
attr = {
fillColor = (0,255);
lineCapEnd = "1";
lineCapStart = "1";
strokeHeight = 300;
strokeWidth = 300;
};
closed = 0;
nodes = (
(317,1053,l),
(614,1250,l)
);
},
{
attr = {
fillColor = (0,255);
lineCapEnd = "1";
lineCapStart = "2";
strokeHeight = 300;
strokeWidth = 300;
};
closed = 0;
nodes = (
(614,1385,l),
(614,850,l)
);
}
);
width = 1098;
}
);
unicode = 49;
},
{
color = 1;
glyphname = two;
lastChange = "2022-06-03 22:36:02 +0000";
layers = (
{
layerId = m01;
shapes = (
{
attr = {
fillColor = (0,255);
lineCapEnd = "2";
lineCapStart = "2";
strokeHeight = 50;
strokePos = "0";
strokeWidth = 50;
};
closed = 0;
nodes = (
(692,0,l),
(81,0,l)
);
},
{
attr = {
fillColor = (0,255);
lineCapEnd = "2";
lineCapStart = "1";
strokeHeight = 50;
strokeWidth = 50;
};
closed = 0;
nodes = (
(397,501,l),
(96,20,l)
);
},
{
attr = {
lineCapEnd = "1";
lineCapStart = "1";
strokeHeight = 50;
strokePos = "0";
strokeWidth = 50;
};
closed = 0;
nodes = (
(644,1093,l),
(644,1235,o),
(529,1350,o),
(387,1350,cs),
(245,1350,o),
(130,1235,o),
(130,1093,c)
);
}
);
width = 774;
},
{
layerId = "19FA402B-9607-46D9-AAD6-815AECBA5B6B";
shapes = (
{
attr = {
fillColor = (0,255);
lineCapEnd = 2;
lineCapStart = 2;
strokeHeight = 120;
strokePos = 0;
strokeWidth = 120;
};
closed = 0;
nodes = (
(790,0,l),
(106,0,l)
);
},
{
attr = {
fillColor = (0,255);
lineCapEnd = "2";
lineCapStart = "1";
strokeHeight = 120;
strokeWidth = 120;
};
closed = 0;
nodes = (
(497,501,l),
(121,20,l)
);
},
{
attr = {
lineCapEnd = "1";
lineCapStart = "1";
strokeHeight = 120;
strokePos = 0;
strokeWidth = 120;
};
closed = 0;
nodes = (
(678,1050,l),
(678,1177,o),
(575,1280,o),
(448,1280,cs),
(321,1280,o),
(218,1177,o),
(218,1050,c)
);
}
);
width = 896;
},
{
layerId = "FF87E3F2-B049-41CB-BF2F-09DB15105515";
shapes = (
{
attr = {
fillColor = (0,255);
lineCapEnd = "2";
lineCapStart = "2";
strokeHeight = 300;
strokePos = "0";
strokeWidth = 300;
};
closed = 0;
nodes = (
(1012,0,l),
(108,0,l)
);
},
{
attr = {
fillColor = (0,255);
lineCapEnd = "2";
lineCapStart = "1";
strokeHeight = 300;
strokeWidth = 300;
};
closed = 0;
nodes = (
(559,501,l),
(162,64,l)
);
},
{
attr = {
lineCapEnd = "1";
lineCapStart = "1";
strokeHeight = 300;
strokePos = "0";
strokeWidth = 300;
};
closed = 0;
nodes = (
(708,951,l),
(708,1039,o),
(637,1110,o),
(550,1110,cs),
(463,1110,o),
(392,1039,o),
(392,951,c)
);
}
);
width = 1098;
}
);
unicode = 50;
},
{
color = 1;
glyphname = three;
lastChange = "2022-06-03 22:36:06 +0000";
layers = (
{
layerId = m01;
shapes = (
{
attr = {
lineCapEnd = 1;
lineCapStart = 1;
strokeHeight = 50;
strokePos = 0;
strokeWidth = 50;
};
closed = 0;
nodes = (
(130,307,l),
(130,165,o),
(245,50,o),
(387,50,cs),
(529,50,o),
(644,165,o),
(644,307,c)
);
},
{
attr = {
lineCapEnd = "1";
lineCapStart = "1";
strokeHeight = 50;
strokePos = "0";
strokeWidth = 50;
};
closed = 0;
nodes = (
(387,836,l),
(529,836,o),
(644,951,o),
(644,1093,cs),
(644,1235,o),
(529,1350,o),
(387,1350,cs),
(245,1350,o),
(130,1235,o),
(130,1093,c)
);
}
);
width = 774;
},
{
layerId = "19FA402B-9607-46D9-AAD6-815AECBA5B6B";
shapes = (
{
attr = {
lineCapEnd = "1";
lineCapStart = "1";
strokeHeight = 120;
strokePos = "0";
strokeWidth = 120;
};
closed = 0;
nodes = (
(218,350,l),
(218,223,o),
(321,120,o),
(448,120,cs),
(575,120,o),
(678,223,o),
(678,350,c)
);
},
{
attr = {
lineCapEnd = 1;
lineCapStart = 1;
strokeHeight = 120;
strokePos = 0;
strokeWidth = 120;
};
closed = 0;
nodes = (
(450,820,l),
(577,820,o),
(680,923,o),
(680,1050,cs),
(680,1177,o),
(577,1280,o),
(450,1280,cs),
(323,1280,o),
(220,1177,o),
(220,1050,c)
);
}
);
width = 896;
},
{
layerId = "FF87E3F2-B049-41CB-BF2F-09DB15105515";
shapes = (
{
attr = {
lineCapEnd = "1";
lineCapStart = "1";
strokeHeight = 300;
strokePos = "0";
strokeWidth = 300;
};
closed = 0;
nodes = (
(427,411,l),
(427,344,o),
(481,290,o),
(548,290,cs),
(616,290,o),
(670,344,o),
(670,411,c)
);
},
{
attr = {
lineCapEnd = "1";
lineCapStart = "1";
strokeHeight = 300;
strokePos = "0";
strokeWidth = 300;
};
closed = 0;
nodes = (
(550,867,l),
(617,867,o),
(671,922,o),
(671,989,cs),
(671,1056,o),
(617,1110,o),
(550,1110,cs),
(482,1110,o),
(428,1056,o),
(428,989,c)
);
}
);
width = 1098;
}
);
unicode = 51;
},
{
color = 1;
glyphname = four;
lastChange = "2022-06-02 05:48:04 +0000";
layers = (
{
layerId = m01;
shapes = (
{
attr = {
fillColor = (0,255);
lineCapEnd = "1";
lineCapStart = "2";
strokeHeight = 50;
strokeWidth = 50;
};
closed = 0;
nodes = (
(46,400,l),
(435,400,l)
);
},
{
attr = {
fillColor = (0,255);
lineCapEnd = "1";
lineCapStart = "2";
strokeHeight = 50;
strokeWidth = 50;
};
closed = 0;
nodes = (
(695,3,l),
(695,1000,l)
);
},
{
attr = {
fillColor = (0,255);
lineCapEnd = "1";
lineCapStart = "2";
strokeHeight = 50;
strokeWidth = 50;
};
closed = 0;
nodes = (
(533,1395,l),
(68,400,l)
);
}
);
width = 774;
},
{
layerId = "19FA402B-9607-46D9-AAD6-815AECBA5B6B";
shapes = (
{
attr = {
fillColor = (0,255);
lineCapEnd = "1";
lineCapStart = "2";
strokeHeight = 120;
strokeWidth = 120;
};
closed = 0;
nodes = (
(86,400,l),
(475,400,l)
);
},
{
attr = {
fillColor = (0,255);
lineCapEnd = "1";
lineCapStart = "2";
strokeHeight = 120;
strokeWidth = 120;
};
closed = 0;
nodes = (
(735,6,l),
(735,1000,l)
);
},
{
attr = {
fillColor = (0,255);
lineCapEnd = "1";
lineCapStart = "2";
strokeHeight = 120;
strokeWidth = 120;
};
closed = 0;
nodes = (
(570,1389,l),
(125,400,l)
);
}
);
width = 896;
},
{
layerId = "FF87E3F2-B049-41CB-BF2F-09DB15105515";
shapes = (
{
attr = {
fillColor = (0,255);
lineCapEnd = "1";
lineCapStart = "2";
strokeHeight = 300;
strokeWidth = 300;
};
closed = 0;
nodes = (
(88,400,l),
(517,400,l)
);
},
{
attr = {
fillColor = (0,255);
lineCapEnd = "1";
lineCapStart = "2";
strokeHeight = 300;
strokeWidth = 300;
};
closed = 0;
nodes = (
(877,15,l),
(877,1000,l)
);
},
{
attr = {
fillColor = (0,255);
lineCapEnd = "1";
lineCapStart = "2";
strokeHeight = 300;
strokeWidth = 300;
};
closed = 0;
nodes = (
(606,1375,l),
(207,400,l)
);
}
);
width = 1098;
}
);
unicode = 52;
},
{
color = 1;
glyphname = five;
lastChange = "2022-06-03 22:36:10 +0000";
layers = (
{
layerId = m01;
shapes = (
{
attr = {
lineCapEnd = "1";
lineCapStart = "1";
strokeHeight = 50;
strokePos = "0";
strokeWidth = 50;
};
closed = 0;
nodes = (
(107,341,l),
(107,180,o),
(237,50,o),
(398,50,cs),
(559,50,o),
(689,180,o),
(689,341,cs),
(689,467,ls),
(689,628,o),
(559,758,o),
(398,758,c)
);
},
{
attr = {
fillColor = (0,255);
lineCapEnd = "1";
strokeHeight = 50;
strokePos = "1";
strokeWidth = 50;
};
closed = 0;
nodes = (
(56,1378,l),
(56,880,l)
);
},
{
attr = {
fillColor = (0,255);
lineCapEnd = "2";
lineCapStart = "2";
strokeHeight = 50;
strokePos = "1";
strokeWidth = 50;
};
closed = 0;
nodes = (
(736,1400,l),
(58,1400,l)
);
}
);
width = 774;
},
{
layerId = "19FA402B-9607-46D9-AAD6-815AECBA5B6B";
shapes = (
{
attr = {
lineCapEnd = "1";
lineCapStart = "1";
strokeHeight = 120;
strokePos = "0";
strokeWidth = 120;
};
closed = 0;
nodes = (
(218,350,l),
(218,223,o),
(321,120,o),
(448,120,cs),
(575,120,o),
(678,223,o),
(678,350,cs),
(678,450,ls),
(678,577,o),
(575,680,o),
(448,680,c)
);
},
{
attr = {
fillColor = (0,255);
lineCapEnd = "1";
strokeHeight = 120;
strokePos = 1;
strokeWidth = 120;
};
closed = 0;
nodes = (
(101,1338,l),
(101,930,l)
);
},
{
attr = {
fillColor = (0,255);
lineCapEnd = 2;
lineCapStart = "2";
strokeHeight = 120;
strokePos = 1;
strokeWidth = 120;
};
closed = 0;
nodes = (
(807,1400,l),
(107,1400,l)
);
}
);
width = 896;
},
{
layerId = "FF87E3F2-B049-41CB-BF2F-09DB15105515";
shapes = (
{
attr = {
lineCapEnd = "1";
lineCapStart = "1";
strokeHeight = 300;
strokePos = "0";
strokeWidth = 300;
};
closed = 0;
nodes = (
(392,449,l),
(392,361,o),
(463,290,o),
(550,290,cs),
(637,290,o),
(708,361,o),
(708,449,cs),
(708,479,ls),
(708,567,o),
(637,638,o),
(550,638,c)
);
},
{
attr = {
fillColor = (0,255);
lineCapEnd = "1";
strokeHeight = 300;
strokePos = "1";
strokeWidth = 300;
};
closed = 0;
nodes = (
(92,1238,l),
(92,930,l)
);
},
{
attr = {
fillColor = (0,255);
lineCapEnd = "2";
lineCapStart = "2";
strokeHeight = 300;
strokePos = "1";
strokeWidth = 300;
};
closed = 0;
nodes = (
(994,1400,l),
(107,1400,l)
);
}
);
width = 1098;
}
);
unicode = 53;
},
{
color = 1;
glyphname = six;
lastChange = "2022-06-03 22:36:12 +0000";
layers = (
{
layerId = m01;
shapes = (
{
attr = {
strokeHeight = 50;
strokePos = "0";
strokeWidth = 50;
};
closed = 1;
nodes = (
(543,50,o),
(671,176,o),
(671,334,cs),
(671,490,o),
(543,618,o),
(387,618,cs),
(231,618,o),
(103,490,o),
(103,334,cs),
(103,176,o),
(231,50,o),
(387,50,cs)
);
},
{
attr = {
fillColor = (0,255);
lineCapEnd = "2";
lineCapStart = "1";
strokeHeight = 50;
strokeWidth = 50;
};
closed = 0;
nodes = (
(297,910,l),
(552,1395,l)
);
}
);
width = 774;
},
{
layerId = "19FA402B-9607-46D9-AAD6-815AECBA5B6B";
shapes = (
{
attr = {
strokeHeight = 120;
strokePos = "0";
strokeWidth = 120;
};
closed = 1;
nodes = (
(573,120,o),
(676,223,o),
(676,350,cs),
(676,477,o),
(573,580,o),
(446,580,cs),
(319,580,o),
(216,477,o),
(216,350,cs),
(216,223,o),
(319,120,o),
(446,120,cs)
);
},
{
attr = {
fillColor = (0,255);
lineCapEnd = 2;
lineCapStart = 1;
strokeHeight = 120;
strokeWidth = 120;
};
closed = 0;
nodes = (
(356,910,l),
(607,1388,l)
);
}
);
width = 896;
},
{
layerId = "FF87E3F2-B049-41CB-BF2F-09DB15105515";
shapes = (
{
attr = {
strokeHeight = 300;
strokePos = "0";
strokeWidth = 300;
};
closed = 1;
nodes = (
(631,290,o),
(703,362,o),
(703,450,cs),
(703,538,o),
(631,610,o),
(543,610,cs),
(455,610,o),
(383,538,o),
(383,450,cs),
(383,362,o),
(455,290,o),
(543,290,cs)
);
},
{
attr = {
fillColor = (0,255);
lineCapEnd = "2";
lineCapStart = "1";
strokeHeight = 300;
strokeWidth = 300;
};
closed = 0;
nodes = (
(567,1103,l),
(769,1355,l)
);
}
);
width = 1098;
}
);
unicode = 54;
},
{
color = 1;
glyphname = seven;
lastChange = "2022-06-02 04:01:11 +0000";
layers = (
{
layerId = m01;
shapes = (
{
closed = 1;
nodes = (
(230,0,o),
(240,7,o),
(243,16,cs),
(729,1366,ls),
(734,1380,o),
(725,1400,o),
(705,1400,cs),
(695,1400,o),
(685,1393,o),
(682,1384,cs),
(196,34,ls),
(191,20,o),
(200,0,o),
(220,0,cs)
);
},
{
attr = {
fillColor = (0,255);
lineCapEnd = "2";
lineCapStart = "2";
strokeHeight = 50;
strokePos = "0";
strokeWidth = 50;
};
closed = 0;
nodes = (
(61,1400,l),
(441,1400,l)
);
}
);
width = 774;
},
{
layerId = "19FA402B-9607-46D9-AAD6-815AECBA5B6B";
shapes = (
{
closed = 1;
nodes = (
(308,0,o),
(330,16,o),
(338,38,cs),
(799,1319,ls),
(814,1358,o),
(785,1400,o),
(743,1400,cs),
(717,1400,o),
(695,1384,o),
(687,1362,cs),
(226,81,ls),
(211,42,o),
(240,0,o),
(282,0,cs)
);
},
{
attr = {
fillColor = (0,255);
lineCapEnd = 2;
lineCapStart = 2;
strokeHeight = 120;
strokePos = 0;
strokeWidth = 120;
};
closed = 0;
nodes = (
(111,1400,l),
(491,1400,l)
);
}
);
width = 896;
},
{
layerId = "FF87E3F2-B049-41CB-BF2F-09DB15105515";
shapes = (
{
closed = 1;
nodes = (
(468,0,o),
(520,36,o),
(544,87,cs),
(1020,1188,ls),
(1060,1276,o),
(1003,1400,o),
(883,1400,cs),
(823,1400,o),
(771,1364,o),
(747,1313,cs),
(271,212,ls),
(231,124,o),
(288,0,o),
(408,0,cs)
);
},
{
attr = {
fillColor = (0,255);
lineCapEnd = "2";
lineCapStart = "2";
strokeHeight = 300;
strokePos = "0";
strokeWidth = 300;
};
closed = 0;
nodes = (
(94,1400,l),
(574,1400,l)
);
}
);
width = 1098;
}
);
unicode = 55;
},
{
color = 1;
glyphname = eight;
lastChange = "2022-06-03 22:36:17 +0000";
layers = (
{
layerId = m01;
shapes = (
{
attr = {
lineCapEnd = "1";
lineCapStart = "1";
strokeHeight = 50;
strokePos = "0";
strokeWidth = 50;
};
closed = 0;
nodes = (
(437,50,l),
(579,50,o),
(694,165,o),
(694,307,c)
);
},
{
attr = {
lineCapEnd = "1";
lineCapStart = "1";
strokeHeight = 50;
strokeWidth = 50;
};
closed = 0;
nodes = (
(105,418,l),
(105,574,o),
(231,700,o),
(387,700,cs),
(543,700,o),
(669,826,o),
(669,982,c)
);
},
{
attr = {
lineCapEnd = 1;
lineCapStart = 1;
strokeHeight = 50;
strokePos = 0;
strokeWidth = 50;
};
closed = 0;
nodes = (
(387,1350,l),
(245,1350,o),
(130,1235,o),
(130,1093,c)
);
}
);
width = 774;
},
{
layerId = "19FA402B-9607-46D9-AAD6-815AECBA5B6B";
shapes = (
{
attr = {
lineCapEnd = "1";
lineCapStart = "1";
strokeHeight = 120;
strokePos = "0";
strokeWidth = 120;
};
closed = 0;
nodes = (
(448,120,l),
(575,120,o),
(678,223,o),
(678,350,c)
);
},
{
attr = {
lineCapEnd = "1";
lineCapStart = "1";
strokeHeight = 120;
strokeWidth = 120;
};
closed = 0;
nodes = (
(156,409,l),
(156,569,o),
(286,699,o),
(446,699,cs),
(606,699,o),
(736,829,o),
(736,989,c)
);
},
{
attr = {
lineCapEnd = "1";
lineCapStart = "1";
strokeHeight = 120;
strokePos = "0";
strokeWidth = 120;
};
closed = 0;
nodes = (
(448,1280,l),
(321,1280,o),
(218,1177,o),
(218,1050,c)
);
}
);
width = 896;
},
{
layerId = "FF87E3F2-B049-41CB-BF2F-09DB15105515";
shapes = (
{
attr = {
lineCapEnd = "1";
lineCapStart = "1";
strokeHeight = 300;
strokePos = 0;
strokeWidth = 300;
};
closed = 0;
nodes = (
(540,290,l),
(623,290,o),
(698,358,o),
(698,449,c)
);
},
{
attr = {
lineCapEnd = "1";
lineCapStart = "1";
strokeHeight = 300;
strokeWidth = 300;
};
closed = 0;
nodes = (
(254,403,l),
(254,573,o),
(394,700,o),
(549,700,cs),
(704,700,o),
(844,827,o),
(844,997,c)
);
},
{
attr = {
lineCapEnd = "1";
lineCapStart = "1";
strokeHeight = 300;
strokePos = 0;
strokeWidth = 300;
};
closed = 0;
nodes = (
(558,1110,l),
(475,1110,o),
(400,1042,o),
(400,951,c)
);
}
);
width = 1098;
}
);
unicode = 56;
},
{
color = 1;
glyphname = nine;
lastChange = "2022-06-03 22:36:20 +0000";
layers = (
{
layerId = m01;
shapes = (
{
attr = {
identifier = ID0x600003e5c460;
strokeHeight = 50;
strokePos = "0";
strokeWidth = 50;
};
closed = 1;
nodes = (
(543,782,o),
(671,910,o),
(671,1066,cs),
(671,1224,o),
(543,1350,o),
(387,1350,cs),
(231,1350,o),
(103,1224,o),
(103,1066,cs),
(103,910,o),
(231,782,o),
(387,782,cs)
);
},
{
attr = {
fillColor = (0,255);
identifier = ID0x600003e5c460;
lineCapEnd = "2";
lineCapStart = "1";
strokeHeight = 50;
strokeWidth = 50;
};
closed = 0;
nodes = (
(477,490,l),
(222,5,l)
);
}
);
width = 774;
},
{
layerId = "19FA402B-9607-46D9-AAD6-815AECBA5B6B";
shapes = (
{
attr = {
strokeHeight = 120;
strokePos = "0";
strokeWidth = 120;
};
closed = 1;
nodes = (
(577,820,o),
(680,923,o),
(680,1050,cs),
(680,1177,o),
(577,1280,o),
(450,1280,cs),
(323,1280,o),
(220,1177,o),
(220,1050,cs),
(220,923,o),
(323,820,o),
(450,820,cs)
);
},
{
attr = {
fillColor = (0,255);
lineCapEnd = "2";
lineCapStart = "1";
strokeHeight = 120;
strokeWidth = 120;
};
closed = 0;
nodes = (
(540,490,l),
(289,12,l)
);
}
);
width = 896;
},
{
layerId = "FF87E3F2-B049-41CB-BF2F-09DB15105515";
shapes = (
{
attr = {
strokeHeight = 300;
strokePos = "0";
strokeWidth = 300;
};
closed = 1;
nodes = (
(643,790,o),
(715,862,o),
(715,950,cs),
(715,1038,o),
(643,1110,o),
(555,1110,cs),
(467,1110,o),
(395,1038,o),
(395,950,cs),
(395,862,o),
(467,790,o),
(555,790,cs)
);
},
{
attr = {
fillColor = (0,255);
lineCapEnd = 2;
lineCapStart = 1;
strokeHeight = 300;
strokeWidth = 300;
};
closed = 0;
nodes = (
(531,297,l),
(330,46,l)
);
}
);
width = 1098;
}
);
unicode = 57;
},
{
color = 2;
glyphname = fraction;
lastChange = "2022-06-01 21:40:13 +0000";
layers = (
{
layerId = m01;
shapes = (
{
attr = {
lineCapEnd = "2";
lineCapStart = "2";
strokeHeight = 50;
strokeWidth = 50;
};
closed = 0;
nodes = (
(-405,19,l),
(751,1381,l)
);
}
);
width = 346;
},
{
layerId = "19FA402B-9607-46D9-AAD6-815AECBA5B6B";
shapes = (
{
attr = {
lineCapEnd = "2";
lineCapStart = "2";
strokeHeight = 120;
strokeWidth = 120;
};
closed = 0;
nodes = (
(-405,19,l),
(751,1381,l)
);
}
);
width = 346;
},
{
layerId = "FF87E3F2-B049-41CB-BF2F-09DB15105515";
shapes = (
{
attr = {
lineCapEnd = "2";
lineCapStart = "2";
strokeHeight = 200;
strokeWidth = 200;
};
closed = 0;
nodes = (
(-405,28,l),
(751,1372,l)
);
}
);
width = 346;
}
);
unicode = 8260;
},
{
color = 2;
glyphname = zerosuperior;
lastChange = "2022-06-02 20:29:32 +0000";
layers = (
{
layerId = m01;
shapes = (
{
attr = {
lineCapEnd = "1";
lineCapStart = "1";
strokeHeight = 50;
strokePos = "0";
strokeWidth = 50;
};
closed = 0;
nodes = (
(100,1208,l),
(100,1134,o),
(160,1074,o),
(234,1074,cs),
(308,1074,o),
(368,1134,o),
(368,1208,cs),
(368,1354,l)
);
},
{
attr = {
fillColor = (0,255);
lineCapEnd = "1";
lineCapStart = "1";
strokeHeight = 50;
strokeWidth = 50;
};
closed = 0;
nodes = (
(147,1354,l),
(321,1470,l)
);
},
{
attr = {
lineCapEnd = "1";
lineCapStart = "1";
strokeHeight = 50;
strokePos = "0";
strokeWidth = 50;
};
closed = 0;
nodes = (
(368,1616,l),
(368,1690,o),
(308,1750,o),
(234,1750,cs),
(160,1750,o),
(100,1690,o),
(100,1616,cs),
(100,1470,l)
);
}
);
width = 468;
},
{
layerId = "19FA402B-9607-46D9-AAD6-815AECBA5B6B";
shapes = (
{
attr = {
identifier = ID0x6000024447e0;
lineCapEnd = "1";
lineCapStart = "1";
strokeHeight = 100;
strokePos = "0";
strokeWidth = 100;
};
closed = 0;
nodes = (
(156,1238,l),
(156,1175,o),
(207,1124,o),
(270,1124,cs),
(333,1124,o),
(384,1175,o),
(384,1238,cs),
(384,1303,l)
);
},
{
attr = {
fillColor = (0,255);
identifier = ID0x6000024447e0;
lineCapEnd = 1;
lineCapStart = 1;
strokeHeight = 100;
strokeWidth = 100;
};
closed = 0;
nodes = (
(196,1363,l),
(345,1462,l)
);
},
{
attr = {
identifier = ID0x6000024447e0;
lineCapEnd = 1;
lineCapStart = 1;
strokeHeight = 100;
strokePos = 0;
strokeWidth = 100;
};
closed = 0;
nodes = (
(384,1586,l),
(384,1649,o),
(333,1700,o),
(270,1700,cs),
(207,1700,o),
(156,1649,o),
(156,1586,cs),
(156,1522,l)
);
}
);
width = 540;
},
{
layerId = "FF87E3F2-B049-41CB-BF2F-09DB15105515";
shapes = (
{
attr = {
identifier = ID0x6000024447e0;
lineCapEnd = "1";
lineCapStart = "1";
strokeHeight = 150;
strokePos = "0";
strokeWidth = 150;
};
closed = 0;
nodes = (
(225,1268,l),
(225,1216,o),
(267,1174,o),
(319,1174,cs),
(371,1174,o),
(413,1216,o),
(413,1268,cs),
(413,1322,l)
);
},
{
attr = {
fillColor = (0,255);
identifier = ID0x6000024447e0;
lineCapEnd = "1";
lineCapStart = "1";
strokeHeight = 150;
strokeWidth = 150;
};
closed = 0;
nodes = (
(276,1383,l),
(363,1441,l)
);
},
{
attr = {
identifier = ID0x6000024447e0;
lineCapEnd = "1";
lineCapStart = "1";
strokeHeight = 150;
strokePos = "0";
strokeWidth = 150;
};
closed = 0;
nodes = (
(413,1556,l),
(413,1608,o),
(371,1650,o),
(319,1650,cs),
(267,1650,o),
(225,1608,o),
(225,1556,cs),
(225,1503,l)
);
}
);
width = 638;
}
);
unicode = 8304;
},
{
color = 2;
glyphname = onesuperior;
lastChange = "2022-06-02 20:29:32 +0000";
layers = (
{
layerId = m01;
shapes = (
{
attr = {
fillColor = (0,255);
lineCapEnd = "2";
lineCapStart = "1";
strokeHeight = 50;
strokeWidth = 50;
};
closed = 0;
nodes = (
(254,1268,l),
(254,1027,l)
);
},
{
attr = {
fillColor = (0,255);
lineCapEnd = "1";
lineCapStart = "1";
strokeHeight = 50;
strokeWidth = 50;
};
closed = 0;
nodes = (
(89,1645,l),
(254,1775,l)
);
},
{
attr = {
fillColor = (0,255);
lineCapEnd = "1";
lineCapStart = "2";
strokeHeight = 50;
strokeWidth = 50;
};
closed = 0;
nodes = (
(254,1797,l),
(254,1489,l)
);
}
);
width = 468;
},
{
layerId = "19FA402B-9607-46D9-AAD6-815AECBA5B6B";
shapes = (
{
attr = {
fillColor = (0,255);
identifier = ID0x60000241c7e0;
lineCapEnd = "2";
lineCapStart = "1";
strokeHeight = 100;
strokeWidth = 100;
};
closed = 0;
nodes = (
(304,1302,l),
(304,1029,l)
);
},
{
attr = {
fillColor = (0,255);
identifier = ID0x60000241c7e0;
lineCapEnd = "1";
lineCapStart = "1";
strokeHeight = 100;
strokeWidth = 100;
};
closed = 0;
nodes = (
(156,1648,l),
(304,1750,l)
);
},
{
attr = {
fillColor = (0,255);
identifier = ID0x60000241c7e0;
lineCapEnd = "1";
lineCapStart = "2";
strokeHeight = 100;
strokeWidth = 100;
};
closed = 0;
nodes = (
(304,1795,l),
(304,1502,l)
);
}
);
width = 540;
},
{
layerId = "FF87E3F2-B049-41CB-BF2F-09DB15105515";
shapes = (
{
attr = {
fillColor = (0,255);
lineCapEnd = "2";
lineCapStart = "1";
strokeHeight = 150;
strokeWidth = 150;
};
closed = 0;
nodes = (
(334,1251,l),
(334,1031,l)
);
},
{
attr = {
fillColor = (0,255);
lineCapEnd = "1";
lineCapStart = "1";
strokeHeight = 150;
strokeWidth = 150;
};
closed = 0;
nodes = (
(169,1616,l),
(334,1725,l)
);
},
{
attr = {
fillColor = (0,255);
lineCapEnd = "1";
lineCapStart = "2";
strokeHeight = 150;
strokeWidth = 150;
};
closed = 0;
nodes = (
(334,1792,l),
(334,1495,l)
);
}
);
width = 638;
}
);
unicode = 185;
},
{
color = 2;
glyphname = twosuperior;
lastChange = "2022-06-02 20:29:32 +0000";
layers = (
{
layerId = m01;
shapes = (
{
attr = {
fillColor = (0,255);
lineCapEnd = "2";
lineCapStart = "2";
strokeHeight = 50;
strokePos = "0";
strokeWidth = 50;
};
closed = 0;
nodes = (
(416,1024,l),
(52,1024,l)
);
},
{
attr = {
fillColor = (0,255);
lineCapEnd = "2";
lineCapStart = "1";
strokeHeight = 50;
strokeWidth = 50;
};
closed = 0;
nodes = (
(242,1294,l),
(63,1032,l)
);
},
{
attr = {
lineCapEnd = "1";
lineCapStart = "1";
strokeHeight = 50;
strokePos = "0";
strokeWidth = 50;
};
closed = 0;
nodes = (
(368,1616,l),
(368,1690,o),
(308,1750,o),
(234,1750,cs),
(160,1750,o),
(100,1690,o),
(100,1616,c)
);
}
);
width = 468;
},
{
layerId = "19FA402B-9607-46D9-AAD6-815AECBA5B6B";
shapes = (
{
attr = {
fillColor = (0,255);
identifier = ID0x600002450b60;
lineCapEnd = "2";
lineCapStart = "2";
strokeHeight = 100;
strokePos = "0";
strokeWidth = 100;
};
closed = 0;
nodes = (
(478,1024,l),
(56,1024,l)
);
},
{
attr = {
fillColor = (0,255);
identifier = ID0x600002450b60;
lineCapEnd = "2";
lineCapStart = "1";
strokeHeight = 100;
strokeWidth = 100;
};
closed = 0;
nodes = (
(262,1282,l),
(74,1041,l)
);
},
{
attr = {
identifier = ID0x600002450b60;
lineCapEnd = "1";
lineCapStart = "1";
strokeHeight = 100;
strokePos = 0;
strokeWidth = 100;
};
closed = 0;
nodes = (
(381,1585,l),
(381,1648,o),
(329,1700,o),
(266,1700,cs),
(203,1700,o),
(151,1648,o),
(151,1585,c)
);
}
);
width = 540;
},
{
layerId = "FF87E3F2-B049-41CB-BF2F-09DB15105515";
shapes = (
{
attr = {
fillColor = (0,255);
lineCapEnd = "2";
lineCapStart = "2";
strokeHeight = 150;
strokePos = "0";
strokeWidth = 150;
};
closed = 0;
nodes = (
(553,1023,l),
(86,1023,l)
);
},
{
attr = {
fillColor = (0,255);
lineCapEnd = "2";
lineCapStart = "1";
strokeHeight = 150;
strokeWidth = 150;
};
closed = 0;
nodes = (
(315,1308,l),
(110,1046,l)
);
},
{
attr = {
lineCapEnd = "1";
lineCapStart = "1";
strokeHeight = 150;
strokePos = "0";
strokeWidth = 150;
};
closed = 0;
nodes = (
(410,1559,l),
(410,1610,o),
(370,1650,o),
(320,1650,cs),
(271,1650,o),
(230,1610,o),
(230,1559,c)
);
}
);
width = 638;
}
);
unicode = 178;
},
{
color = 2;
glyphname = threesuperior;
lastChange = "2022-06-02 20:29:32 +0000";
layers = (
{
layerId = m01;
shapes = (
{
attr = {
lineCapEnd = "1";
lineCapStart = "1";
strokeHeight = 50;
strokePos = "0";
strokeWidth = 50;
};
closed = 0;
nodes = (
(100,1208,l),
(100,1134,o),
(160,1074,o),
(234,1074,cs),
(308,1074,o),
(368,1134,o),
(368,1208,c)
);
},
{
attr = {
lineCapEnd = "1";
lineCapStart = "1";
strokeHeight = 50;
strokePos = "0";
strokeWidth = 50;
};
closed = 0;
nodes = (
(234,1483,l),
(308,1483,o),
(368,1543,o),
(368,1616,cs),
(368,1690,o),
(308,1750,o),
(234,1750,cs),
(160,1750,o),
(100,1690,o),
(100,1616,c)
);
}
);
width = 468;
},
{
layerId = "19FA402B-9607-46D9-AAD6-815AECBA5B6B";
shapes = (
{
attr = {
identifier = ID0x600002422840;
lineCapEnd = "1";
lineCapStart = "1";
strokeHeight = 100;
strokePos = "0";
strokeWidth = 100;
};
closed = 0;
nodes = (
(152,1241,l),
(152,1178,o),
(204,1126,o),
(267,1126,cs),
(331,1126,o),
(382,1178,o),
(382,1241,c)
);
},
{
attr = {
identifier = ID0x600002422840;
lineCapEnd = 1;
lineCapStart = 1;
strokeHeight = 100;
strokePos = 0;
strokeWidth = 100;
};
closed = 0;
nodes = (
(268,1474,l),
(331,1474,o),
(383,1526,o),
(383,1589,cs),
(383,1652,o),
(331,1704,o),
(268,1704,cs),
(205,1704,o),
(153,1652,o),
(153,1589,c)
);
}
);
width = 540;
},
{
layerId = "FF87E3F2-B049-41CB-BF2F-09DB15105515";
shapes = (
{
attr = {
lineCapEnd = "1";
lineCapStart = "1";
strokeHeight = 150;
strokePos = "0";
strokeWidth = 150;
};
closed = 0;
nodes = (
(244,1245,l),
(244,1205,o),
(276,1173,o),
(316,1173,cs),
(357,1173,o),
(390,1205,o),
(390,1245,c)
);
},
{
attr = {
lineCapEnd = "1";
lineCapStart = "1";
strokeHeight = 150;
strokePos = "0";
strokeWidth = 150;
};
closed = 0;
nodes = (
(318,1504,l),
(358,1504,o),
(390,1537,o),
(390,1577,cs),
(390,1618,o),
(358,1650,o),
(318,1650,cs),
(277,1650,o),
(244,1618,o),
(244,1577,c)
);
}
);
width = 638;
}
);
unicode = 179;
},
{
color = 2;
glyphname = foursuperior;
lastChange = "2022-06-02 20:29:32 +0000";
layers = (
{
layerId = m01;
shapes = (
{
attr = {
fillColor = (0,255);
lineCapEnd = "1";
strokeHeight = 50;
strokeWidth = 50;
};
closed = 0;
nodes = (
(63,1246,l),
(256,1246,l)
);
},
{
attr = {
fillColor = (0,255);
lineCapEnd = "1";
lineCapStart = "2";
strokeHeight = 50;
strokeWidth = 50;
};
closed = 0;
nodes = (
(380,1027,l),
(380,1577,l)
);
},
{
attr = {
fillColor = (0,255);
lineCapEnd = "1";
lineCapStart = "2";
strokeHeight = 50;
strokeWidth = 50;
};
closed = 0;
nodes = (
(300,1796,l),
(64,1246,l)
);
}
);
width = 468;
},
{
layerId = "19FA402B-9607-46D9-AAD6-815AECBA5B6B";
shapes = (
{
attr = {
fillColor = (0,255);
identifier = ID0x6000024448c0;
lineCapEnd = "1";
strokeHeight = 100;
strokeWidth = 100;
};
closed = 0;
nodes = (
(107,1229,l),
(268,1229,l)
);
},
{
attr = {
fillColor = (0,255);
identifier = ID0x6000024448c0;
lineCapEnd = "1";
lineCapStart = "2";
strokeHeight = 100;
strokeWidth = 100;
};
closed = 0;
nodes = (
(418,1029,l),
(418,1469,l)
);
},
{
attr = {
fillColor = (0,255);
identifier = ID0x6000024448c0;
lineCapEnd = "1";
lineCapStart = "2";
strokeHeight = 100;
strokeWidth = 100;
};
closed = 0;
nodes = (
(345,1790,l),
(103,1229,l)
);
}
);
width = 540;
},
{
layerId = "FF87E3F2-B049-41CB-BF2F-09DB15105515";
shapes = (
{
attr = {
fillColor = (0,255);
identifier = ID0x600001f06e60;
lineCapEnd = "1";
strokeHeight = 150;
strokeWidth = 150;
};
closed = 0;
nodes = (
(140,1245,l),
(291,1245,l)
);
},
{
attr = {
fillColor = (0,255);
identifier = ID0x600001f06e60;
lineCapEnd = "1";
lineCapStart = "2";
strokeHeight = 150;
strokeWidth = 150;
};
closed = 0;
nodes = (
(470,1024,l),
(470,1498,l)
);
},
{
attr = {
fillColor = (0,255);
identifier = ID0x600001f06e60;
lineCapEnd = "1";
lineCapStart = "2";
strokeHeight = 150;
strokeWidth = 150;
};
closed = 0;
nodes = (
(390,1785,l),
(141,1245,l)
);
}
);
width = 638;
}
);
unicode = 8308;
},
{
color = 2;
glyphname = fivesuperior;
lastChange = "2022-06-02 20:29:32 +0000";
layers = (
{
layerId = m01;
shapes = (
{
attr = {
lineCapEnd = "1";
lineCapStart = "1";
strokeHeight = 50;
strokePos = "0";
strokeWidth = 50;
};
closed = 0;
nodes = (
(100,1208,l),
(100,1134,o),
(160,1074,o),
(234,1074,cs),
(308,1074,o),
(368,1134,o),
(368,1208,cs),
(368,1298,ls),
(368,1372,o),
(308,1432,o),
(234,1432,c)
);
},
{
attr = {
fillColor = (0,255);
lineCapEnd = "1";
strokeHeight = 50;
strokePos = "1";
strokeWidth = 50;
};
closed = 0;
nodes = (
(58,1775,l),
(58,1527,l)
);
},
{
attr = {
fillColor = (0,255);
lineCapEnd = "2";
lineCapStart = "2";
strokeHeight = 50;
strokePos = "1";
strokeWidth = 50;
};
closed = 0;
nodes = (
(414,1800,l),
(60,1800,l)
);
}
);
width = 468;
},
{
layerId = "19FA402B-9607-46D9-AAD6-815AECBA5B6B";
shapes = (
{
attr = {
identifier = ID0x600002441f80;
lineCapEnd = "1";
lineCapStart = "1";
strokeHeight = 100;
strokePos = "0";
strokeWidth = 100;
};
closed = 0;
nodes = (
(159,1241,l),
(159,1178,o),
(211,1126,o),
(274,1126,cs),
(338,1126,o),
(389,1178,o),
(389,1241,cs),
(389,1291,ls),
(389,1355,o),
(338,1406,o),
(274,1406,c)
);
},
{
attr = {
fillColor = (0,255);
identifier = ID0x600002441f80;
lineCapEnd = "1";
strokeHeight = 100;
strokePos = 1;
strokeWidth = 100;
};
closed = 0;
nodes = (
(69,1753,l),
(69,1529,l)
);
},
{
attr = {
fillColor = (0,255);
identifier = ID0x600002441f80;
lineCapEnd = 2;
lineCapStart = "2";
strokeHeight = 100;
strokePos = 1;
strokeWidth = 100;
};
closed = 0;
nodes = (
(479,1800,l),
(74,1800,l)
);
}
);
width = 540;
},
{
layerId = "FF87E3F2-B049-41CB-BF2F-09DB15105515";
shapes = (
{
attr = {
lineCapEnd = "1";
lineCapStart = "1";
strokeHeight = 150;
strokePos = "0";
strokeWidth = 150;
};
closed = 0;
nodes = (
(249,1245,l),
(249,1205,o),
(281,1173,o),
(321,1173,cs),
(362,1173,o),
(395,1205,o),
(395,1245,cs),
(395,1272,ls),
(395,1312,o),
(362,1344,o),
(321,1344,c)
);
},
{
attr = {
fillColor = (0,255);
lineCapEnd = "1";
strokeHeight = 150;
strokePos = "1";
strokeWidth = 150;
};
closed = 0;
nodes = (
(99,1725,l),
(99,1541,l)
);
},
{
attr = {
fillColor = (0,255);
lineCapEnd = "2";
lineCapStart = "2";
strokeHeight = 150;
strokePos = "1";
strokeWidth = 150;
};
closed = 0;
nodes = (
(535,1800,l),
(106,1800,l)
);
}
);
width = 638;
}
);
unicode = 8309;
},
{
color = 2;
glyphname = sixsuperior;
lastChange = "2022-06-02 20:29:32 +0000";
layers = (
{
layerId = m01;
shapes = (
{
attr = {
lineCapEnd = "1";
lineCapStart = "1";
strokeHeight = 50;
strokePos = "0";
strokeWidth = 50;
};
closed = 1;
nodes = (
(308,1074,o),
(368,1134,o),
(368,1208,cs),
(368,1282,o),
(308,1342,o),
(234,1342,cs),
(160,1342,o),
(100,1282,o),
(100,1208,cs),
(100,1134,o),
(160,1074,o),
(234,1074,cs)
);
},
{
attr = {
fillColor = (0,255);
lineCapEnd = "2";
lineCapStart = "1";
strokeHeight = 50;
strokeWidth = 50;
};
closed = 0;
nodes = (
(178,1503,l),
(312,1795,l)
);
}
);
width = 468;
},
{
layerId = "19FA402B-9607-46D9-AAD6-815AECBA5B6B";
shapes = (
{
attr = {
identifier = ID0x600002441ce0;
strokeHeight = 100;
strokePos = "0";
strokeWidth = 100;
};
closed = 1;
nodes = (
(331,1123,o),
(382,1175,o),
(382,1238,cs),
(382,1302,o),
(331,1353,o),
(267,1353,cs),
(204,1353,o),
(152,1302,o),
(152,1238,cs),
(152,1175,o),
(204,1123,o),
(267,1123,cs)
);
},
{
attr = {
fillColor = (0,255);
identifier = ID0x600002441ce0;
lineCapEnd = 2;
lineCapStart = 1;
strokeHeight = 100;
strokeWidth = 100;
};
closed = 0;
nodes = (
(222,1552,l),
(347,1790,l)
);
}
);
width = 540;
},
{
layerId = "FF87E3F2-B049-41CB-BF2F-09DB15105515";
shapes = (
{
attr = {
strokeHeight = 150;
strokePos = 0;
strokeWidth = 150;
};
closed = 1;
nodes = (
(371,1174,o),
(413,1216,o),
(413,1268,cs),
(413,1320,o),
(371,1362,o),
(319,1362,cs),
(267,1362,o),
(225,1320,o),
(225,1268,cs),
(225,1216,o),
(267,1174,o),
(319,1174,cs)
);
},
{
attr = {
fillColor = (0,255);
lineCapEnd = "2";
lineCapStart = "1";
strokeHeight = 150;
strokeWidth = 150;
};
closed = 0;
nodes = (
(297,1614,l),
(393,1784,l)
);
}
);
width = 638;
}
);
unicode = 8310;
},
{
color = 2;
glyphname = sevensuperior;
lastChange = "2022-06-02 20:29:32 +0000";
layers = (
{
layerId = m01;
shapes = (
{
closed = 1;
nodes = (
(205,1025,o),
(215,1033,o),
(217,1043,cs),
(421,1769,ls),
(425,1785,o),
(413,1800,o),
(397,1800,cs),
(385,1800,o),
(375,1792,o),
(373,1782,cs),
(169,1056,ls),
(165,1040,o),
(177,1025,o),
(193,1025,cs)
);
},
{
attr = {
fillColor = (0,255);
identifier = ID0x600002442f40;
lineCapEnd = "2";
lineCapStart = "2";
strokeHeight = 50;
strokePos = "0";
strokeWidth = 50;
};
closed = 0;
nodes = (
(66,1800,l),
(256,1800,l)
);
}
);
width = 468;
},
{
layerId = "19FA402B-9607-46D9-AAD6-815AECBA5B6B";
shapes = (
{
closed = 1;
nodes = (
(221,1022,o),
(240,1037,o),
(246,1057,cs),
(472,1734,ls),
(480,1762,o),
(461,1798,o),
(424,1798,cs),
(401,1798,o),
(382,1783,o),
(376,1763,cs),
(150,1086,ls),
(142,1058,o),
(161,1022,o),
(198,1022,cs)
);
},
{
attr = {
fillColor = (0,255);
identifier = ID0x600002442f40;
lineCapEnd = "2";
lineCapStart = "2";
strokeHeight = 100;
strokePos = "0";
strokeWidth = 100;
};
closed = 0;
nodes = (
(83,1800,l),
(283,1800,l)
);
}
);
width = 540;
},
{
layerId = "FF87E3F2-B049-41CB-BF2F-09DB15105515";
shapes = (
{
closed = 1;
nodes = (
(275,1023,o),
(302,1043,o),
(313,1071,cs),
(541,1700,ls),
(558,1743,o),
(530,1803,o),
(471,1803,cs),
(439,1803,o),
(412,1783,o),
(401,1755,cs),
(173,1126,ls),
(156,1083,o),
(184,1023,o),
(243,1023,cs)
);
},
{
attr = {
fillColor = (0,255);
identifier = ID0x600002442f40;
lineCapEnd = "2";
lineCapStart = "2";
strokeHeight = 150;
strokePos = "0";
strokeWidth = 150;
};
closed = 0;
nodes = (
(109,1800,l),
(319,1800,l)
);
}
);
width = 638;
}
);
unicode = 8311;
},
{
color = 2;
glyphname = eightsuperior;
lastChange = "2022-06-02 20:29:32 +0000";
layers = (
{
layerId = m01;
shapes = (
{
attr = {
lineCapEnd = "1";
lineCapStart = "1";
strokeHeight = 50;
strokePos = "0";
strokeWidth = 50;
};
closed = 0;
nodes = (
(234,1074,l),
(308,1074,o),
(368,1134,o),
(368,1208,c)
);
},
{
attr = {
lineCapEnd = "1";
lineCapStart = "1";
strokeHeight = 50;
strokeWidth = 50;
};
closed = 0;
nodes = (
(75,1247,l),
(75,1335,o),
(146,1406,o),
(234,1406,cs),
(322,1406,o),
(393,1477,o),
(393,1577,c)
);
},
{
attr = {
lineCapEnd = "1";
lineCapStart = "1";
strokeHeight = 50;
strokePos = "0";
strokeWidth = 50;
};
closed = 0;
nodes = (
(234,1750,l),
(160,1750,o),
(100,1690,o),
(100,1616,c)
);
}
);
width = 468;
},
{
layerId = "19FA402B-9607-46D9-AAD6-815AECBA5B6B";
shapes = (
{
attr = {
identifier = ID0x6000024431e0;
lineCapEnd = "1";
lineCapStart = 1;
strokeHeight = 100;
strokePos = "0";
strokeWidth = 100;
};
closed = 0;
nodes = (
(260,1124,l),
(324,1124,o),
(375,1176,o),
(375,1239,c)
);
},
{
attr = {
identifier = ID0x6000024431e0;
lineCapEnd = "1";
lineCapStart = "1";
strokeHeight = 100;
strokeWidth = 100;
};
closed = 0;
nodes = (
(114,1258,l),
(114,1344,o),
(184,1414,o),
(270,1414,cs),
(356,1414,o),
(426,1484,o),
(426,1570,c)
);
},
{
attr = {
identifier = ID0x6000024431e0;
lineCapEnd = "1";
lineCapStart = 1;
strokeHeight = 100;
strokePos = "0";
strokeWidth = 100;
};
closed = 0;
nodes = (
(280,1704,l),
(216,1704,o),
(165,1652,o),
(165,1589,c)
);
}
);
width = 540;
},
{
layerId = "FF87E3F2-B049-41CB-BF2F-09DB15105515";
shapes = (
{
attr = {
lineCapEnd = "1";
lineCapStart = "1";
strokeHeight = 150;
strokePos = "0";
strokeWidth = 150;
};
closed = 0;
nodes = (
(318,1173,l),
(359,1173,o),
(392,1205,o),
(392,1245,c)
);
},
{
attr = {
lineCapEnd = 1;
lineCapStart = 1;
strokeHeight = 150;
strokeWidth = 150;
};
closed = 0;
nodes = (
(173,1268,l),
(173,1349,o),
(239,1413,o),
(320,1413,cs),
(401,1413,o),
(467,1476,o),
(467,1555,c)
);
},
{
attr = {
lineCapEnd = "1";
lineCapStart = "1";
strokeHeight = 150;
strokePos = "0";
strokeWidth = 150;
};
closed = 0;
nodes = (
(320,1650,l),
(279,1650,o),
(246,1618,o),
(246,1577,c)
);
}
);
width = 638;
}
);
unicode = 8312;
},
{
color = 2;
glyphname = ninesuperior;
lastChange = "2022-06-02 20:29:32 +0000";
layers = (
{
layerId = m01;
shapes = (
{
attr = {
lineCapEnd = "1";
lineCapStart = "1";
strokeHeight = 50;
strokePos = "0";
strokeWidth = 50;
};
closed = 1;
nodes = (
(308,1482,o),
(368,1542,o),
(368,1616,cs),
(368,1690,o),
(308,1750,o),
(234,1750,cs),
(160,1750,o),
(100,1690,o),
(100,1616,cs),
(100,1542,o),
(160,1482,o),
(234,1482,cs)
);
},
{
attr = {
fillColor = (0,255);
lineCapEnd = "2";
lineCapStart = "1";
strokeHeight = 50;
strokeWidth = 50;
};
closed = 0;
nodes = (
(290,1321,l),
(156,1029,l)
);
}
);
width = 468;
},
{
layerId = "19FA402B-9607-46D9-AAD6-815AECBA5B6B";
shapes = (
{
attr = {
identifier = ID0x600002441ce0;
strokeHeight = 100;
strokePos = "0";
strokeWidth = 100;
};
closed = 1;
nodes = (
(336,1470,o),
(388,1521,o),
(388,1585,cs),
(388,1648,o),
(336,1700,o),
(273,1700,cs),
(209,1700,o),
(158,1648,o),
(158,1585,cs),
(158,1521,o),
(209,1470,o),
(273,1470,cs)
);
},
{
attr = {
fillColor = (0,255);
identifier = ID0x600002441ce0;
lineCapEnd = "2";
lineCapStart = "1";
strokeHeight = 100;
strokeWidth = 100;
};
closed = 0;
nodes = (
(318,1271,l),
(193,1033,l)
);
}
);
width = 540;
},
{
layerId = "FF87E3F2-B049-41CB-BF2F-09DB15105515";
shapes = (
{
attr = {
strokeHeight = 150;
strokePos = "0";
strokeWidth = 150;
};
closed = 1;
nodes = (
(371,1462,o),
(413,1504,o),
(413,1556,cs),
(413,1608,o),
(371,1650,o),
(319,1650,cs),
(267,1650,o),
(225,1608,o),
(225,1556,cs),
(225,1504,o),
(267,1462,o),
(319,1462,cs)
);
},
{
attr = {
fillColor = (0,255);
lineCapEnd = "2";
lineCapStart = "1";
strokeHeight = 150;
strokeWidth = 150;
};
closed = 0;
nodes = (
(341,1210,l),
(245,1040,l)
);
}
);
width = 638;
}
);
unicode = 8313;
},
{
color = 11;
glyphname = .notdef;
lastChange = "2022-06-05 19:17:41 +0000";
layers = (
{
layerId = m01;
shapes = (
{
attr = {
fillColor = (0,255);
lineCapEnd = "2";
lineCapStart = "2";
strokeHeight = 50;
strokeWidth = 50;
};
closed = 0;
nodes = (
(594,530,l),
(73,9,l)
);
},
{
attr = {
lineCapEnd = "1";
lineCapStart = "1";
strokeHeight = 50;
strokePos = "0";
strokeWidth = 50;
};
closed = 0;
nodes = (
(417,99,l),
(1112,100,l)
);
},
{
attr = {
lineCapEnd = "1";
lineCapStart = "1";
strokeHeight = 50;
strokePos = "0";
strokeWidth = 50;
};
closed = 0;
nodes = (
(164,1048,l),
(165,353,l)
);
},
{
attr = {
fillColor = (0,255);
lineCapEnd = "1";
lineCapStart = "2";
strokeHeight = 50;
strokeWidth = 50;
};
closed = 0;
nodes = (
(73,1391,l),
(1439,25,l)
);
},
{
attr = {
lineCapEnd = "1";
lineCapStart = "1";
strokeHeight = 50;
strokePos = "0";
strokeWidth = 50;
};
closed = 0;
nodes = (
(1112,1300,l),
(417,1301,l)
);
},
{
attr = {
lineCapEnd = "1";
lineCapStart = "1";
strokeHeight = 50;
strokePos = "1";
strokeWidth = 50;
};
closed = 0;
nodes = (
(1365,1048,l),
(1364,353,l)
);
},
{
attr = {
fillColor = (0,255);
lineCapEnd = "1";
lineCapStart = "2";
strokeHeight = 50;
strokeWidth = 50;
};
closed = 0;
nodes = (
(1456,1391,l),
(935,870,l)
);
}
);
width = 1529;
},
{
layerId = "19FA402B-9607-46D9-AAD6-815AECBA5B6B";
shapes = (
{
attr = {
fillColor = (0,255);
lineCapEnd = 2;
lineCapStart = "2";
strokeHeight = 120;
strokeWidth = 120;
};
closed = 0;
nodes = (
(610,530,l),
(102,22,l)
);
},
{
attr = {
lineCapEnd = 1;
lineCapStart = 1;
strokeHeight = 120;
strokePos = "0";
strokeWidth = 120;
};
closed = 0;
nodes = (
(559,163,l),
(1002,164,l)
);
},
{
attr = {
lineCapEnd = 1;
lineCapStart = 1;
strokeHeight = 120;
strokePos = "0";
strokeWidth = 120;
};
closed = 0;
nodes = (
(244,922,l),
(245,479,l)
);
},
{
attr = {
fillColor = (0,255);
lineCapEnd = "1";
lineCapStart = "2";
strokeHeight = 120;
strokeWidth = 120;
};
closed = 0;
nodes = (
(102,1378,l),
(1420,60,l)
);
},
{
attr = {
lineCapEnd = 1;
lineCapStart = 1;
strokeHeight = 120;
strokePos = "0";
strokeWidth = 120;
};
closed = 0;
nodes = (
(1002,1236,l),
(559,1237,l)
);
},
{
attr = {
lineCapEnd = 1;
lineCapStart = 1;
strokeHeight = 120;
strokePos = 1;
strokeWidth = 120;
};
closed = 0;
nodes = (
(1317,922,l),
(1316,479,l)
);
},
{
attr = {
fillColor = (0,255);
lineCapEnd = "1";
lineCapStart = "2";
strokeHeight = 120;
strokeWidth = 120;
};
closed = 0;
nodes = (
(1459,1378,l),
(951,870,l)
);
}
);
width = 1561;
},
{
layerId = "FF87E3F2-B049-41CB-BF2F-09DB15105515";
shapes = (
{
attr = {
fillColor = (0,255);
lineCapEnd = "2";
lineCapStart = "2";
strokeHeight = 300;
strokeWidth = 300;
};
closed = 0;
nodes = (
(600,500,l),
(157,57,l)
);
},
{
attr = {
lineCapEnd = "1";
lineCapStart = "1";
strokeHeight = 300;
strokePos = 0;
strokeWidth = 300;
};
closed = 0;
nodes = (
(404,747,l),
(404,653,l)
);
},
{
attr = {
lineCapEnd = "1";
lineCapStart = "1";
strokeHeight = 300;
strokePos = "0";
strokeWidth = 300;
};
closed = 0;
nodes = (
(754,304,l),
(848,304,l)
);
},
{
attr = {
fillColor = (0,255);
lineCapEnd = "1";
lineCapStart = "2";
strokeHeight = 300;
strokeWidth = 300;
};
closed = 0;
nodes = (
(155,1345,l),
(1350,150,l)
);
},
{
attr = {
lineCapEnd = "1";
lineCapStart = "1";
strokeHeight = 300;
strokePos = "0";
strokeWidth = 300;
};
closed = 0;
nodes = (
(848,1096,l),
(754,1096,l)
);
},
{
attr = {
lineCapEnd = "1";
lineCapStart = "1";
strokeHeight = 300;
strokePos = 1;
strokeWidth = 300;
};
closed = 0;
nodes = (
(1197,747,l),
(1197,653,l)
);
},
{
attr = {
fillColor = (0,255);
lineCapEnd = "2";
lineCapStart = "2";
strokeHeight = 300;
strokeWidth = 300;
};
closed = 0;
nodes = (
(1444,1343,l),
(1001,900,l)
);
}
);
width = 1600;
}
);
metricLeft = O;
metricRight = O;
},
{
color = 9;
glyphname = period;
kernLeft = PERIOD;
kernRight = PERIOD;
lastChange = "2022-05-31 21:46:56 +0000";
layers = (
{
layerId = m01;
shapes = (
{
closed = 1;
nodes = (
(138,0,o),
(155,17,o),
(155,38,cs),
(155,58,o),
(138,75,o),
(118,75,cs),
(97,75,o),
(80,58,o),
(80,38,cs),
(80,17,o),
(97,0,o),
(118,0,cs)
);
}
);
width = 235;
},
{
layerId = "19FA402B-9607-46D9-AAD6-815AECBA5B6B";
shapes = (
{
closed = 1;
nodes = (
(216,0,o),
(250,34,o),
(250,75,cs),
(250,116,o),
(216,150,o),
(175,150,cs),
(134,150,o),
(100,116,o),
(100,75,cs),
(100,34,o),
(134,0,o),
(175,0,cs)
);
}
);
width = 350;
},
{
layerId = "FF87E3F2-B049-41CB-BF2F-09DB15105515";
shapes = (
{
closed = 1;
nodes = (
(402,0,o),
(476,73,o),
(476,162,cs),
(476,251,o),
(402,325,o),
(313,325,cs),
(224,325,o),
(150,251,o),
(150,162,cs),
(150,73,o),
(224,0,o),
(313,0,cs)
);
}
);
width = 626;
}
);
unicode = 46;
},
{
color = 9;
glyphname = comma;
kernLeft = COMMA;
kernRight = COMMA;
lastChange = "2022-06-01 01:28:06 +0000";
layers = (
{
layerId = m01;
shapes = (
{
closed = 1;
nodes = (
(121,-187,o),
(131,-178,o),
(134,-166,cs),
(228,186,ls),
(232,203,o),
(220,220,o),
(201,220,cs),
(188,220,o),
(178,211,o),
(175,199,cs),
(81,-153,ls),
(77,-170,o),
(89,-187,o),
(108,-187,cs)
);
}
);
width = 309;
},
{
layerId = "19FA402B-9607-46D9-AAD6-815AECBA5B6B";
shapes = (
{
closed = 1;
nodes = (
(188,-193,o),
(212,-173,o),
(218,-147,cs),
(297,152,ls),
(306,187,o),
(280,226,o),
(239,226,cs),
(211,226,o),
(187,206,o),
(181,180,cs),
(102,-119,ls),
(93,-154,o),
(119,-193,o),
(160,-193,cs)
);
}
);
width = 399;
},
{
layerId = "FF87E3F2-B049-41CB-BF2F-09DB15105515";
shapes = (
{
closed = 1;
nodes = (
(372,-279,o),
(432,-228,o),
(447,-160,cs),
(514,122,ls),
(533,215,o),
(464,304,o),
(367,304,cs),
(295,304,o),
(235,253,o),
(220,185,cs),
(153,-97,ls),
(134,-190,o),
(203,-279,o),
(300,-279,cs)
);
}
);
width = 667;
}
);
metricLeft = period;
metricRight = period;
unicode = 44;
},
{
color = 9;
glyphname = colon;
kernLeft = COLON;
kernRight = COLON;
lastChange = "2022-05-31 21:43:17 +0000";
layers = (
{
layerId = m01;
shapes = (
{
closed = 1;
nodes = (
(138,983,o),
(155,1000,o),
(155,1020,cs),
(155,1041,o),
(138,1058,o),
(117,1058,cs),
(97,1058,o),
(80,1041,o),
(80,1020,cs),
(80,1000,o),
(97,983,o),
(117,983,cs)
);
},
{
closed = 1;
nodes = (
(138,343,o),
(155,360,o),
(155,380,cs),
(155,401,o),
(138,418,o),
(117,418,cs),
(97,418,o),
(80,401,o),
(80,380,cs),
(80,360,o),
(97,343,o),
(117,343,cs)
);
}
);
width = 235;
},
{
layerId = "19FA402B-9607-46D9-AAD6-815AECBA5B6B";
shapes = (
{
closed = 1;
nodes = (
(216,945,o),
(250,979,o),
(250,1020,cs),
(250,1061,o),
(216,1095,o),
(175,1095,cs),
(134,1095,o),
(100,1061,o),
(100,1020,cs),
(100,979,o),
(134,945,o),
(175,945,cs)
);
},
{
closed = 1;
nodes = (
(216,305,o),
(250,339,o),
(250,380,cs),
(250,421,o),
(216,455,o),
(175,455,cs),
(134,455,o),
(100,421,o),
(100,380,cs),
(100,339,o),
(134,305,o),
(175,305,cs)
);
}
);
width = 350;
},
{
layerId = "FF87E3F2-B049-41CB-BF2F-09DB15105515";
shapes = (
{
closed = 1;
nodes = (
(401,857,o),
(475,931,o),
(475,1020,cs),
(475,1109,o),
(401,1183,o),
(312,1183,cs),
(223,1183,o),
(150,1109,o),
(150,1020,cs),
(150,931,o),
(223,857,o),
(312,857,cs)
);
},
{
closed = 1;
nodes = (
(401,218,o),
(475,291,o),
(475,380,cs),
(475,469,o),
(401,543,o),
(312,543,cs),
(223,543,o),
(150,469,o),
(150,380,cs),
(150,291,o),
(223,218,o),
(312,218,cs)
);
}
);
width = 625;
}
);
metricLeft = period;
metricRight = period;
unicode = 58;
},
{
color = 9;
glyphname = semicolon;
kernLeft = SEMICOLON;
kernRight = SEMICOLON;
lastChange = "2022-06-01 01:27:02 +0000";
layers = (
{
layerId = m01;
shapes = (
{
closed = 1;
nodes = (
(222,785,o),
(239,802,o),
(239,822,cs),
(239,843,o),
(222,860,o),
(201,860,cs),
(181,860,o),
(164,843,o),
(164,822,cs),
(164,802,o),
(181,785,o),
(201,785,cs)
);
},
{
ref = comma;
}
);
width = 319;
},
{
layerId = "19FA402B-9607-46D9-AAD6-815AECBA5B6B";
shapes = (
{
closed = 1;
nodes = (
(280,731,o),
(314,765,o),
(314,806,cs),
(314,847,o),
(280,881,o),
(239,881,cs),
(198,881,o),
(164,847,o),
(164,806,cs),
(164,765,o),
(198,731,o),
(239,731,cs)
);
},
{
ref = comma;
}
);
width = 414;
},
{
layerId = "FF87E3F2-B049-41CB-BF2F-09DB15105515";
shapes = (
{
closed = 1;
nodes = (
(458,618,o),
(532,692,o),
(532,781,cs),
(532,870,o),
(458,944,o),
(369,944,cs),
(280,944,o),
(207,870,o),
(207,781,cs),
(207,692,o),
(280,618,o),
(369,618,cs)
);
},
{
ref = comma;
}
);
width = 682;
}
);
metricLeft = period;
metricRight = period;
unicode = 59;
},
{
color = 9;
glyphname = exclam;
lastChange = "2022-06-05 19:17:41 +0000";
layers = (
{
layerId = m01;
shapes = (
{
closed = 1;
nodes = (
(143,0,o),
(160,17,o),
(160,38,cs),
(160,58,o),
(143,75,o),
(122,75,cs),
(102,75,o),
(85,58,o),
(85,38,cs),
(85,17,o),
(102,0,o),
(122,0,cs)
);
},
{
attr = {
fillColor = (0,255);
lineCapEnd = "2";
lineCapStart = "2";
strokeHeight = "50\\";
strokeWidth = 50;
};
closed = 0;
nodes = (
(122,359,l),
(122,1397,l)
);
}
);
width = 245;
},
{
layerId = "19FA402B-9607-46D9-AAD6-815AECBA5B6B";
shapes = (
{
closed = 1;
nodes = (
(216,0,o),
(250,34,o),
(250,75,cs),
(250,116,o),
(216,150,o),
(175,150,cs),
(134,150,o),
(100,116,o),
(100,75,cs),
(100,34,o),
(134,0,o),
(175,0,cs)
);
},
{
attr = {
fillColor = (0,255);
lineCapEnd = "2";
lineCapStart = "2";
strokeHeight = 120;
strokeWidth = 120;
};
closed = 0;
nodes = (
(175,359,l),
(175,1394,l)
);
}
);
width = 350;
},
{
layerId = "FF87E3F2-B049-41CB-BF2F-09DB15105515";
shapes = (
{
closed = 1;
nodes = (
(361,0,o),
(434,74,o),
(434,163,cs),
(434,251,o),
(361,325,o),
(272,325,cs),
(183,325,o),
(110,251,o),
(110,163,cs),
(110,74,o),
(183,0,o),
(272,0,cs)
);
},
{
attr = {
fillColor = (0,255);
lineCapEnd = "2";
lineCapStart = "2";
strokeHeight = 300;
strokeWidth = 300;
};
closed = 0;
nodes = (
(272,479,l),
(272,1385,l)
);
}
);
width = 544;
}
);
metricLeft = I;
metricRight = I;
unicode = 33;
},
{
color = 9;
glyphname = exclamdown;
lastChange = "2022-06-05 19:17:50 +0000";
layers = (
{
layerId = m01;
shapes = (
{
closed = 1;
nodes = (
(102,1400,o),
(85,1383,o),
(85,1362,cs),
(85,1342,o),
(102,1325,o),
(122,1325,cs),
(143,1325,o),
(160,1342,o),
(160,1362,cs),
(160,1383,o),
(143,1400,o),
(122,1400,cs)
);
},
{
attr = {
fillColor = (0,255);
identifier = ID0x600001f38460;
lineCapEnd = "2";
lineCapStart = "2";
strokeHeight = "50\\";
strokeWidth = 50;
};
closed = 0;
nodes = (
(122,3,l),
(122,1041,l)
);
}
);
width = 245;
},
{
layerId = "19FA402B-9607-46D9-AAD6-815AECBA5B6B";
shapes = (
{
closed = 1;
nodes = (
(134,1400,o),
(100,1366,o),
(100,1325,cs),
(100,1284,o),
(134,1250,o),
(175,1250,cs),
(216,1250,o),
(250,1284,o),
(250,1325,cs),
(250,1366,o),
(216,1400,o),
(175,1400,cs)
);
},
{
attr = {
fillColor = (0,255);
identifier = ID0x600001f38540;
lineCapEnd = "2";
lineCapStart = "2";
strokeHeight = 120;
strokeWidth = 120;
};
closed = 0;
nodes = (
(175,6,l),
(175,1041,l)
);
}
);
width = 350;
},
{
layerId = "FF87E3F2-B049-41CB-BF2F-09DB15105515";
shapes = (
{
closed = 1;
nodes = (
(183,1400,o),
(110,1326,o),
(110,1237,cs),
(110,1149,o),
(183,1075,o),
(272,1075,cs),
(361,1075,o),
(434,1149,o),
(434,1237,cs),
(434,1326,o),
(361,1400,o),
(272,1400,cs)
);
},
{
attr = {
fillColor = (0,255);
identifier = ID0x600001fdfaa0;
lineCapEnd = "2";
lineCapStart = "2";
strokeHeight = 300;
strokeWidth = 300;
};
closed = 0;
nodes = (
(272,15,l),
(272,921,l)
);
}
);
width = 544;
}
);
metricLeft = "=|exclam";
metricRight = "=|exclam";
unicode = 161;
},
{
color = 9;
glyphname = question;
lastChange = "2022-06-05 19:17:41 +0000";
layers = (
{
layerId = m01;
shapes = (
{
closed = 1;
nodes = (
(426,0,o),
(443,17,o),
(443,38,cs),
(443,58,o),
(426,75,o),
(405,75,cs),
(385,75,o),
(368,58,o),
(368,38,cs),
(368,17,o),
(385,0,o),
(405,0,cs)
);
},
{
attr = {
fillColor = (0,255);
lineCapEnd = "2";
lineCapStart = "2";
strokeHeight = 50;
strokeWidth = 50;
};
closed = 0;
nodes = (
(405,299,l),
(405,538,l)
);
},
{
attr = {
lineCapEnd = "1";
lineCapStart = "1";
strokeHeight = 50;
strokePos = "0";
strokeWidth = 50;
};
closed = 0;
nodes = (
(648,721,l),
(793,865,o),
(793,1097,o),
(648,1242,cs),
(504,1386,o),
(272,1386,o),
(128,1242,c)
);
}
);
width = 892;
},
{
layerId = "19FA402B-9607-46D9-AAD6-815AECBA5B6B";
shapes = (
{
closed = 1;
nodes = (
(442,0,o),
(476,34,o),
(476,75,cs),
(476,116,o),
(442,150,o),
(401,150,cs),
(360,150,o),
(326,116,o),
(326,75,cs),
(326,34,o),
(360,0,o),
(401,0,cs)
);
},
{
attr = {
fillColor = (0,255);
lineCapEnd = 2;
lineCapStart = 2;
strokeHeight = 120;
strokeWidth = 120;
};
closed = 0;
nodes = (
(401,299,l),
(401,638,l)
);
},
{
attr = {
lineCapEnd = 1;
lineCapStart = 1;
strokeHeight = 120;
strokePos = "0";
strokeWidth = 120;
};
closed = 0;
nodes = (
(600,799,l),
(711,909,o),
(711,1087,o),
(600,1198,cs),
(490,1308,o),
(312,1308,o),
(202,1198,c)
);
}
);
width = 903;
},
{
layerId = "FF87E3F2-B049-41CB-BF2F-09DB15105515";
shapes = (
{
closed = 1;
nodes = (
(530,0,o),
(603,74,o),
(603,163,cs),
(603,251,o),
(530,325,o),
(441,325,cs),
(352,325,o),
(279,251,o),
(279,163,cs),
(279,74,o),
(352,0,o),
(441,0,cs)
);
},
{
attr = {
fillColor = (0,255);
lineCapEnd = "2";
lineCapStart = "2";
strokeHeight = 300;
strokeWidth = 300;
};
closed = 0;
nodes = (
(441,362,l),
(441,639,l)
);
},
{
attr = {
lineCapEnd = "1";
lineCapStart = "1";
strokeHeight = 300;
strokePos = "0";
strokeWidth = 300;
};
closed = 0;
nodes = (
(570,854,l),
(627,911,o),
(627,1001,o),
(570,1059,cs),
(513,1116,o),
(423,1116,o),
(366,1059,c)
);
}
);
width = 1023;
}
);
metricLeft = asterisk;
metricRight = asterisk;
unicode = 63;
},
{
color = 9;
glyphname = asterisk;
lastChange = "2022-06-05 19:17:41 +0000";
layers = (
{
layerId = m01;
shapes = (
{
closed = 1;
nodes = (
(589,1196,o),
(606,1212,o),
(606,1233,cs),
(606,1254,o),
(589,1271,o),
(568,1271,cs),
(547,1271,o),
(531,1254,o),
(531,1233,cs),
(531,1212,o),
(547,1196,o),
(568,1196,cs)
);
},
{
closed = 1;
nodes = (
(143,938,o),
(160,954,o),
(160,975,cs),
(160,996,o),
(143,1013,o),
(122,1013,cs),
(101,1013,o),
(85,996,o),
(85,975,cs),
(85,954,o),
(101,938,o),
(122,938,cs)
);
},
{
closed = 1;
nodes = (
(365,810,o),
(382,826,o),
(382,847,cs),
(382,868,o),
(365,885,o),
(344,885,cs),
(323,885,o),
(307,868,o),
(307,847,cs),
(307,826,o),
(323,810,o),
(344,810,cs)
);
},
{
attr = {
fillColor = (0,255);
lineCapEnd = "2";
lineCapStart = "2";
strokeHeight = 50;
strokeWidth = 50;
};
closed = 0;
nodes = (
(599,957,l),
(91,1251,l)
);
},
{
closed = 1;
nodes = (
(366,1325,o),
(383,1341,o),
(383,1362,cs),
(383,1383,o),
(366,1400,o),
(345,1400,cs),
(324,1400,o),
(308,1383,o),
(308,1362,cs),
(308,1341,o),
(324,1325,o),
(345,1325,cs)
);
}
);
width = 691;
},
{
layerId = "19FA402B-9607-46D9-AAD6-815AECBA5B6B";
shapes = (
{
closed = 1;
nodes = (
(639,1151,o),
(666,1178,o),
(666,1211,cs),
(666,1244,o),
(639,1271,o),
(606,1271,cs),
(573,1271,o),
(546,1244,o),
(546,1211,cs),
(546,1178,o),
(573,1151,o),
(606,1151,cs)
);
},
{
closed = 1;
nodes = (
(193,893,o),
(220,920,o),
(220,953,cs),
(220,986,o),
(193,1013,o),
(160,1013,cs),
(127,1013,o),
(100,986,o),
(100,953,cs),
(100,920,o),
(127,893,o),
(160,893,cs)
);
},
{
closed = 1;
nodes = (
(415,765,o),
(442,792,o),
(442,825,cs),
(442,858,o),
(415,885,o),
(382,885,cs),
(349,885,o),
(322,858,o),
(322,825,cs),
(322,792,o),
(349,765,o),
(382,765,cs)
);
},
{
attr = {
fillColor = (0,255);
lineCapEnd = "2";
lineCapStart = "2";
strokeHeight = 120;
strokeWidth = 120;
};
closed = 0;
nodes = (
(653,926,l),
(113,1238,l)
);
},
{
closed = 1;
nodes = (
(416,1280,o),
(443,1307,o),
(443,1340,cs),
(443,1373,o),
(416,1400,o),
(383,1400,cs),
(350,1400,o),
(323,1373,o),
(323,1340,cs),
(323,1307,o),
(350,1280,o),
(383,1280,cs)
);
}
);
width = 766;
},
{
layerId = "FF87E3F2-B049-41CB-BF2F-09DB15105515";
shapes = (
{
closed = 1;
nodes = (
(711,1071,o),
(756,1116,o),
(756,1171,cs),
(756,1226,o),
(711,1271,o),
(656,1271,cs),
(601,1271,o),
(556,1226,o),
(556,1171,cs),
(556,1116,o),
(601,1071,o),
(656,1071,cs)
);
},
{
closed = 1;
nodes = (
(265,813,o),
(310,858,o),
(310,913,cs),
(310,968,o),
(265,1013,o),
(210,1013,cs),
(155,1013,o),
(110,968,o),
(110,913,cs),
(110,858,o),
(155,813,o),
(210,813,cs)
);
},
{
closed = 1;
nodes = (
(487,685,o),
(532,730,o),
(532,785,cs),
(532,840,o),
(487,885,o),
(432,885,cs),
(377,885,o),
(332,840,o),
(332,785,cs),
(332,730,o),
(377,685,o),
(432,685,cs)
);
},
{
attr = {
fillColor = (0,255);
lineCapEnd = "2";
lineCapStart = "2";
strokeHeight = 120;
strokeWidth = 300;
};
closed = 0;
nodes = (
(737,866,l),
(129,1218,l)
);
},
{
closed = 1;
nodes = (
(488,1200,o),
(533,1245,o),
(533,1300,cs),
(533,1355,o),
(488,1400,o),
(433,1400,cs),
(378,1400,o),
(333,1355,o),
(333,1300,cs),
(333,1245,o),
(378,1200,o),
(433,1200,cs)
);
}
);
width = 866;
}
);
metricLeft = I;
metricRight = I;
unicode = 42;
},
{
color = 9;
glyphname = numbersign;
lastChange = "2022-06-05 19:17:50 +0000";
layers = (
{
layerId = m01;
shapes = (
{
closed = 1;
nodes = (
(1029,928,o),
(1040,939,o),
(1040,953,cs),
(1040,967,o),
(1029,978,o),
(1015,978,cs),
(1001,978,o),
(990,967,o),
(990,953,cs),
(990,939,o),
(1001,928,o),
(1015,928,cs)
);
},
{
closed = 1;
nodes = (
(124,422,o),
(135,433,o),
(135,447,cs),
(135,461,o),
(124,472,o),
(110,472,cs),
(96,472,o),
(85,461,o),
(85,447,cs),
(85,433,o),
(96,422,o),
(110,422,cs)
);
},
{
attr = {
lineCapEnd = "2";
lineCapStart = "2";
strokeHeight = 50;
strokeWidth = 50;
};
closed = 0;
nodes = (
(354,1397,l),
(354,3,l)
);
},
{
closed = 1;
nodes = (
(124,928,o),
(135,939,o),
(135,953,cs),
(135,967,o),
(124,978,o),
(110,978,cs),
(96,978,o),
(85,967,o),
(85,953,cs),
(85,939,o),
(96,928,o),
(110,928,cs)
);
},
{
closed = 1;
nodes = (
(1029,422,o),
(1040,433,o),
(1040,447,cs),
(1040,461,o),
(1029,472,o),
(1015,472,cs),
(1001,472,o),
(990,461,o),
(990,447,cs),
(990,433,o),
(1001,422,o),
(1015,422,cs)
);
},
{
attr = {
lineCapEnd = "2";
lineCapStart = "2";
strokeHeight = 50;
strokeWidth = 50;
};
closed = 0;
nodes = (
(772,1397,l),
(772,3,l)
);
}
);
width = 1125;
},
{
layerId = "19FA402B-9607-46D9-AAD6-815AECBA5B6B";
shapes = (
{
closed = 1;
nodes = (
(1078,893,o),
(1105,920,o),
(1105,953,cs),
(1105,986,o),
(1078,1013,o),
(1045,1013,cs),
(1012,1013,o),
(985,986,o),
(985,953,cs),
(985,920,o),
(1012,893,o),
(1045,893,cs)
);
},
{
closed = 1;
nodes = (
(193,387,o),
(220,414,o),
(220,447,cs),
(220,480,o),
(193,507,o),
(160,507,cs),
(127,507,o),
(100,480,o),
(100,447,cs),
(100,414,o),
(127,387,o),
(160,387,cs)
);
},
{
attr = {
lineCapEnd = "2";
lineCapStart = "2";
strokeHeight = 120;
strokeWidth = 120;
};
closed = 0;
nodes = (
(395,1394,l),
(395,6,l)
);
},
{
closed = 1;
nodes = (
(193,893,o),
(220,920,o),
(220,953,cs),
(220,986,o),
(193,1013,o),
(160,1013,cs),
(127,1013,o),
(100,986,o),
(100,953,cs),
(100,920,o),
(127,893,o),
(160,893,cs)
);
},
{
closed = 1;
nodes = (
(1078,387,o),
(1105,414,o),
(1105,447,cs),
(1105,480,o),
(1078,507,o),
(1045,507,cs),
(1012,507,o),
(985,480,o),
(985,447,cs),
(985,414,o),
(1012,387,o),
(1045,387,cs)
);
},
{
attr = {
lineCapEnd = "2";
lineCapStart = "2";
strokeHeight = 120;
strokeWidth = 120;
};
closed = 0;
nodes = (
(811,1394,l),
(811,6,l)
);
}
);
width = 1205;
},
{
layerId = "FF87E3F2-B049-41CB-BF2F-09DB15105515";
shapes = (
{
closed = 1;
nodes = (
(1448,803,o),
(1515,871,o),
(1515,953,cs),
(1515,1036,o),
(1448,1103,o),
(1365,1103,cs),
(1283,1103,o),
(1215,1036,o),
(1215,953,cs),
(1215,871,o),
(1283,803,o),
(1365,803,cs)
);
},
{
closed = 1;
nodes = (
(343,297,o),
(410,365,o),
(410,447,cs),
(410,530,o),
(343,597,o),
(260,597,cs),
(178,597,o),
(110,530,o),
(110,447,cs),
(110,365,o),
(178,297,o),
(260,297,cs)
);
},
{
attr = {
lineCapEnd = "2";
lineCapStart = "2";
strokeHeight = 300;
strokeWidth = 300;
};
closed = 0;
nodes = (
(605,1385,l),
(605,15,l)
);
},
{
closed = 1;
nodes = (
(343,803,o),
(410,871,o),
(410,953,cs),
(410,1036,o),
(343,1103,o),
(260,1103,cs),
(178,1103,o),
(110,1036,o),
(110,953,cs),
(110,871,o),
(178,803,o),
(260,803,cs)
);
},
{
closed = 1;
nodes = (
(1448,297,o),
(1515,365,o),
(1515,447,cs),
(1515,530,o),
(1448,597,o),
(1365,597,cs),
(1283,597,o),
(1215,530,o),
(1215,447,cs),
(1215,365,o),
(1283,297,o),
(1365,297,cs)
);
},
{
attr = {
lineCapEnd = "2";
lineCapStart = "2";
strokeHeight = 300;
strokeWidth = 300;
};
closed = 0;
nodes = (
(1021,1385,l),
(1021,15,l)
);
}
);
width = 1625;
}
);
metricLeft = asterisk;
metricRight = asterisk;
unicode = 35;
},
{
color = 9;
glyphname = slash;
lastChange = "2022-06-05 19:17:41 +0000";
layers = (
{
layerId = m01;
shapes = (
{
closed = 1;
nodes = (
(121,0,o),
(131,8,o),
(134,18,cs),
(580,1367,ls),
(584,1382,o),
(574,1400,o),
(556,1400,cs),
(545,1400,o),
(535,1392,o),
(532,1382,cs),
(86,33,ls),
(82,18,o),
(92,0,o),
(110,0,cs)
);
}
);
width = 666;
},
{
layerId = "19FA402B-9607-46D9-AAD6-815AECBA5B6B";
shapes = (
{
closed = 1;
nodes = (
(187,1,o),
(210,19,o),
(217,44,cs),
(639,1320,ls),
(650,1354,o),
(628,1399,o),
(582,1399,cs),
(555,1399,o),
(532,1381,o),
(525,1356,cs),
(103,80,ls),
(92,46,o),
(114,1,o),
(160,1,cs)
);
}
);
width = 742;
},
{
layerId = "FF87E3F2-B049-41CB-BF2F-09DB15105515";
shapes = (
{
closed = 1;
nodes = (
(328,0,o),
(385,45,o),
(404,106,cs),
(767,1206,ls),
(797,1303,o),
(725,1400,o),
(624,1400,cs),
(556,1400,o),
(499,1355,o),
(480,1294,cs),
(117,194,ls),
(87,97,o),
(159,0,o),
(260,0,cs)
);
}
);
width = 884;
}
);
metricLeft = asterisk;
metricRight = asterisk;
unicode = 47;
},
{
color = 9;
glyphname = hyphen;
kernLeft = HYPHEN;
lastChange = "2022-06-05 19:17:41 +0000";
layers = (
{
layerId = m01;
shapes = (
{
attr = {
fillColor = (0,255);
lineCapEnd = "2";
lineCapStart = "2";
strokeHeight = 50;
strokeWidth = 50;
};
closed = 0;
nodes = (
(87,700,l),
(536,700,l)
);
}
);
width = 624;
},
{
layerId = "19FA402B-9607-46D9-AAD6-815AECBA5B6B";
shapes = (
{
attr = {
fillColor = (0,255);
lineCapEnd = "2";
lineCapStart = "2";
strokeHeight = 120;
strokeWidth = 120;
};
closed = 0;
nodes = (
(106,700,l),
(555,700,l)
);
}
);
width = 661;
},
{
layerId = "FF87E3F2-B049-41CB-BF2F-09DB15105515";
shapes = (
{
attr = {
fillColor = (0,255);
lineCapEnd = "2";
lineCapStart = "2";
strokeHeight = 300;
strokeWidth = 300;
};
closed = 0;
nodes = (
(125,700,l),
(658,700,l)
);
}
);
width = 783;
}
);
metricLeft = asterisk;
metricRight = asterisk;
unicode = 45;
},
{
color = 9;
glyphname = emdash;
kernLeft = HYPHEN;
lastChange = "2022-06-05 19:17:50 +0000";
layers = (
{
layerId = m01;
shapes = (
{
attr = {
fillColor = (0,255);
lineCapEnd = "2";
lineCapStart = "2";
strokeHeight = 50;
strokeWidth = 50;
};
closed = 0;
nodes = (
(87,700,l),
(1407,700,l)
);
}
);
width = 1495;
},
{
layerId = "19FA402B-9607-46D9-AAD6-815AECBA5B6B";
shapes = (
{
attr = {
fillColor = (0,255);
lineCapEnd = "2";
lineCapStart = "2";
strokeHeight = 120;
strokeWidth = 120;
};
closed = 0;
nodes = (
(106,700,l),
(1426,700,l)
);
}
);
width = 1532;
},
{
layerId = "FF87E3F2-B049-41CB-BF2F-09DB15105515";
shapes = (
{
attr = {
fillColor = (0,255);
lineCapEnd = "2";
lineCapStart = "2";
strokeHeight = 300;
strokeWidth = 300;
};
closed = 0;
nodes = (
(125,700,l),
(1445,700,l)
);
}
);
width = 1570;
}
);
metricLeft = asterisk;
metricRight = asterisk;
unicode = 8212;
},
{
color = 9;
glyphname = underscore;
lastChange = "2022-06-05 19:17:41 +0000";
layers = (
{
layerId = m01;
shapes = (
{
attr = {
fillColor = (0,255);
lineCapEnd = "2";
lineCapStart = "2";
strokeHeight = 50;
strokePos = "0";
strokeWidth = 50;
};
closed = 0;
nodes = (
(87,0,l),
(1182,0,l)
);
}
);
width = 1270;
},
{
layerId = "19FA402B-9607-46D9-AAD6-815AECBA5B6B";
shapes = (
{
attr = {
fillColor = (0,255);
lineCapEnd = "2";
lineCapStart = "2";
strokeHeight = 120;
strokePos = 0;
strokeWidth = 120;
};
closed = 0;
nodes = (
(106,0,l),
(1201,0,l)
);
}
);
width = 1307;
},
{
layerId = "FF87E3F2-B049-41CB-BF2F-09DB15105515";
shapes = (
{
attr = {
fillColor = (0,255);
lineCapEnd = "2";
lineCapStart = "2";
strokeHeight = 300;
strokePos = "0";
strokeWidth = 300;
};
closed = 0;
nodes = (
(125,0,l),
(1220,0,l)
);
}
);
width = 1345;
}
);
metricLeft = asterisk;
metricRight = asterisk;
unicode = 95;
},
{
color = 9;
glyphname = parenleft;
lastChange = "2022-06-05 19:17:50 +0000";
layers = (
{
layerId = m01;
shapes = (
{
attr = {
lineCapEnd = "2";
lineCapStart = "2";
strokeHeight = 50;
strokePos = "0";
strokeWidth = 50;
};
closed = 0;
nodes = (
(295,1372,l),
(55,1165,o),
(55,235,o),
(295,28,c)
);
}
);
width = 372;
},
{
layerId = "19FA402B-9607-46D9-AAD6-815AECBA5B6B";
shapes = (
{
attr = {
lineCapEnd = 2;
lineCapStart = 2;
strokeHeight = 100;
strokePos = 0;
strokeWidth = 100;
};
closed = 0;
nodes = (
(361,1343,l),
(121,1145,o),
(121,255,o),
(361,57,c)
);
}
);
width = 447;
},
{
layerId = "FF87E3F2-B049-41CB-BF2F-09DB15105515";
shapes = (
{
attr = {
lineCapEnd = "2";
lineCapStart = "2";
strokeHeight = 300;
strokePos = "0";
strokeWidth = 300;
};
closed = 0;
nodes = (
(582,1218,l),
(342,1058,o),
(342,342,o),
(582,182,c)
);
}
);
width = 662;
}
);
metricLeft = O;
metricRight = asterisk;
unicode = 40;
},
{
color = 9;
glyphname = braceleft;
lastChange = "2022-06-05 19:17:41 +0000";
layers = (
{
layerId = m01;
shapes = (
{
closed = 1;
nodes = (
(124,675,o),
(135,686,o),
(135,700,cs),
(135,714,o),
(124,725,o),
(110,725,cs),
(96,725,o),
(85,714,o),
(85,700,cs),
(85,686,o),
(96,675,o),
(110,675,cs)
);
},
{
attr = {
lineCapEnd = "1";
lineCapStart = "1";
strokeHeight = 50;
strokePos = "0";
strokeWidth = 50;
};
closed = 0;
nodes = (
(300,501,l),
(300,244,ls),
(300,137,o),
(387,50,o),
(496,50,c)
);
},
{
attr = {
lineCapEnd = "1";
lineCapStart = "1";
strokeHeight = 50;
strokePos = "0";
strokeWidth = 50;
};
closed = 0;
nodes = (
(496,1350,l),
(387,1350,o),
(300,1263,o),
(300,1156,cs),
(300,899,l)
);
}
);
width = 606;
},
{
layerId = "19FA402B-9607-46D9-AAD6-815AECBA5B6B";
shapes = (
{
closed = 1;
nodes = (
(193,640,o),
(220,667,o),
(220,700,cs),
(220,733,o),
(193,760,o),
(160,760,cs),
(127,760,o),
(100,733,o),
(100,700,cs),
(100,667,o),
(127,640,o),
(160,640,cs)
);
},
{
attr = {
lineCapEnd = "1";
lineCapStart = "1";
strokeHeight = 120;
strokePos = "0";
strokeWidth = 120;
};
closed = 0;
nodes = (
(366,522,l),
(366,293,ls),
(366,198,o),
(443,120,o),
(540,120,c)
);
},
{
attr = {
lineCapEnd = 1;
lineCapStart = 1;
strokeHeight = 120;
strokePos = 0;
strokeWidth = 120;
};
closed = 0;
nodes = (
(540,1280,l),
(443,1280,o),
(366,1202,o),
(366,1107,cs),
(366,878,l)
);
}
);
width = 700;
},
{
layerId = "FF87E3F2-B049-41CB-BF2F-09DB15105515";
shapes = (
{
closed = 1;
nodes = (
(343,550,o),
(410,618,o),
(410,700,cs),
(410,783,o),
(343,850,o),
(260,850,cs),
(177,850,o),
(110,783,o),
(110,700,cs),
(110,618,o),
(177,550,o),
(260,550,cs)
);
},
{
attr = {
lineCapEnd = "1";
lineCapStart = "1";
strokeHeight = 300;
strokePos = "0";
strokeWidth = 300;
};
closed = 0;
nodes = (
(673,477,l),
(673,420,ls),
(673,354,o),
(726,301,o),
(793,301,c)
);
},
{
attr = {
lineCapEnd = "1";
lineCapStart = "1";
strokeHeight = 300;
strokePos = "0";
strokeWidth = 300;
};
closed = 0;
nodes = (
(793,1100,l),
(726,1100,o),
(673,1047,o),
(673,981,cs),
(673,924,l)
);
}
);
width = 1053;
}
);
metricLeft = asterisk;
metricRight = asterisk;
unicode = 123;
},
{
color = 9;
glyphname = bracketleft;
lastChange = "2022-06-05 19:17:41 +0000";
layers = (
{
layerId = m01;
shapes = (
{
attr = {
fillColor = (0,255);
identifier = ID0x60000ffd4000;
lineCapEnd = "1";
lineCapStart = "1";
strokeHeight = 50;
strokePos = "1";
strokeWidth = 50;
};
closed = 0;
nodes = (
(105,0,l),
(400,0,l)
);
},
{
attr = {
fillColor = (0,255);
identifier = ID0x60000ffd4000;
lineCapEnd = "2";
lineCapStart = "2";
strokeHeight = 50;
strokeWidth = 50;
};
closed = 0;
nodes = (
(105,1084,l),
(105,6,l)
);
},
{
attr = {
fillColor = (0,255);
identifier = ID0x60000ffd4000;
lineCapEnd = "1";
lineCapStart = "1";
strokeHeight = 50;
strokePos = "0";
strokeWidth = 50;
};
closed = 0;
nodes = (
(105,1400,l),
(400,1400,l)
);
}
);
width = 510;
},
{
layerId = "19FA402B-9607-46D9-AAD6-815AECBA5B6B";
shapes = (
{
attr = {
fillColor = (0,255);
identifier = ID0x60000ffd4000;
lineCapEnd = "1";
lineCapStart = "1";
strokeHeight = 120;
strokePos = "1";
strokeWidth = 120;
};
closed = 0;
nodes = (
(160,0,l),
(455,0,l)
);
},
{
attr = {
fillColor = (0,255);
identifier = ID0x60000ffd4000;
lineCapEnd = "2";
lineCapStart = "2";
strokeHeight = 120;
strokeWidth = 120;
};
closed = 0;
nodes = (
(160,1084,l),
(160,6,l)
);
},
{
attr = {
fillColor = (0,255);
identifier = ID0x60000ffd4000;
lineCapEnd = "1";
lineCapStart = "1";
strokeHeight = 120;
strokePos = 0;
strokeWidth = 120;
};
closed = 0;
nodes = (
(160,1400,l),
(455,1400,l)
);
}
);
width = 615;
},
{
layerId = "FF87E3F2-B049-41CB-BF2F-09DB15105515";
shapes = (
{
attr = {
fillColor = (0,255);
identifier = ID0x60000ffd4000;
lineCapEnd = "1";
lineCapStart = "1";
strokeHeight = 300;
strokePos = "1";
strokeWidth = 300;
};
closed = 0;
nodes = (
(300,0,l),
(595,0,l)
);
},
{
attr = {
fillColor = (0,255);
identifier = ID0x60000ffd4000;
lineCapEnd = "2";
lineCapStart = "2";
strokeHeight = 300;
strokeWidth = 300;
};
closed = 0;
nodes = (
(300,925,l),
(300,15,l)
);
},
{
attr = {
fillColor = (0,255);
identifier = ID0x60000ffd4000;
lineCapEnd = "1";
lineCapStart = "1";
strokeHeight = 300;
strokePos = "0";
strokeWidth = 300;
};
closed = 0;
nodes = (
(300,1400,l),
(595,1400,l)
);
}
);
width = 855;
}
);
metricLeft = period;
metricRight = asterisk;
unicode = 91;
},
{
color = 9;
glyphname = guilsinglleft;
lastChange = "2022-06-05 19:17:50 +0000";
layers = (
{
layerId = m01;
shapes = (
{
attr = {
fillColor = (0,255);
identifier = ID0x600000bfa920;
lineCapEnd = "2";
lineCapStart = "2";
strokeHeight = 50;
strokeWidth = 50;
};
closed = 0;
nodes = (
(252,576,l),
(563,313,l)
);
},
{
attr = {
fillColor = (0,255);
identifier = ID0x600000bfa920;
lineCapEnd = "2";
lineCapStart = "2";
strokeHeight = 50;
strokeWidth = 50;
};
closed = 0;
nodes = (
(93,683,l),
(563,1087,l)
);
}
);
width = 656;
},
{
layerId = "19FA402B-9607-46D9-AAD6-815AECBA5B6B";
shapes = (
{
attr = {
fillColor = (0,255);
identifier = ID0x600000bfa920;
lineCapEnd = "2";
lineCapStart = "2";
strokeHeight = 120;
strokeWidth = 120;
};
closed = 0;
nodes = (
(278,556,l),
(589,293,l)
);
},
{
attr = {
fillColor = (0,255);
identifier = ID0x600000bfa920;
lineCapEnd = "2";
lineCapStart = "2";
strokeHeight = 120;
strokeWidth = 120;
};
closed = 0;
nodes = (
(119,703,l),
(589,1107,l)
);
}
);
width = 708;
},
{
layerId = "FF87E3F2-B049-41CB-BF2F-09DB15105515";
shapes = (
{
attr = {
fillColor = (0,255);
identifier = ID0x600000bfa920;
lineCapEnd = "2";
lineCapStart = "2";
strokeHeight = 300;
strokeWidth = 300;
};
closed = 0;
nodes = (
(446,541,l),
(701,321,l)
);
},
{
attr = {
fillColor = (0,255);
identifier = ID0x600000bfa920;
lineCapEnd = "2";
lineCapStart = "2";
strokeHeight = 300;
strokeWidth = 300;
};
closed = 0;
nodes = (
(158,612,l),
(701,1079,l)
);
}
);
width = 859;
}
);
metricLeft = asterisk;
metricRight = asterisk;
unicode = 8249;
},
{
color = 9;
glyphname = quotesingle;
kernLeft = QUOTE;
kernRight = QUOTE;
lastChange = "2022-06-05 19:17:50 +0000";
layers = (
{
layerId = m01;
shapes = (
{
attr = {
fillColor = (0,255);
lineCapEnd = "2";
lineCapStart = "2";
strokeHeight = 50;
strokeWidth = 50;
};
closed = 0;
nodes = (
(110,1171,l),
(110,1594,l)
);
}
);
width = 220;
},
{
layerId = "19FA402B-9607-46D9-AAD6-815AECBA5B6B";
shapes = (
{
attr = {
fillColor = (0,255);
lineCapEnd = "2";
lineCapStart = "2";
strokeHeight = 120;
strokeWidth = 120;
};
closed = 0;
nodes = (
(160,1171,l),
(160,1594,l)
);
}
);
width = 320;
},
{
layerId = "FF87E3F2-B049-41CB-BF2F-09DB15105515";
shapes = (
{
attr = {
fillColor = (0,255);
lineCapEnd = "2";
lineCapStart = "2";
strokeHeight = 300;
strokeWidth = 300;
};
closed = 0;
nodes = (
(260,1110,l),
(260,1655,l)
);
}
);
width = 520;
}
);
metricLeft = asterisk;
metricRight = asterisk;
unicode = 39;
},
{
color = 8;
glyphname = florin;
lastChange = "2022-06-05 19:17:50 +0000";
layers = (
{
layerId = m01;
shapes = (
{
attr = {
fillColor = (0,255);
lineCapEnd = "1";
lineCapStart = "1";
strokeHeight = 50;
strokePos = "0";
strokeWidth = 50;
};
closed = 0;
nodes = (
(110,-350,l),
(236,-350,o),
(338,-248,o),
(338,-122,cs),
(338,372,l)
);
},
{
attr = {
fillColor = (0,255);
lineCapEnd = "2";
lineCapStart = "2";
strokeHeight = 50;
strokeWidth = 50;
};
closed = 0;
nodes = (
(695,700,l),
(101,700,l)
);
},
{
attr = {
fillColor = (0,255);
lineCapEnd = "1";
lineCapStart = "1";
strokeHeight = 50;
strokePos = "0";
strokeWidth = 50;
};
closed = 0;
nodes = (
(616,1350,l),
(490,1350,o),
(388,1248,o),
(388,1122,c)
);
}
);
width = 783;
},
{
layerId = "19FA402B-9607-46D9-AAD6-815AECBA5B6B";
shapes = (
{
attr = {
fillColor = (0,255);
lineCapEnd = "1";
lineCapStart = "1";
strokeHeight = 120;
strokePos = 0;
strokeWidth = 120;
};
closed = 0;
nodes = (
(160,-280,l),
(286,-280,o),
(388,-178,o),
(388,-52,cs),
(388,342,l)
);
},
{
attr = {
fillColor = (0,255);
lineCapEnd = "2";
lineCapStart = "2";
strokeHeight = 120;
strokeWidth = 120;
};
closed = 0;
nodes = (
(745,700,l),
(151,700,l)
);
},
{
attr = {
fillColor = (0,255);
lineCapEnd = "1";
lineCapStart = "1";
strokeHeight = 120;
strokePos = "0";
strokeWidth = 120;
};
closed = 0;
nodes = (
(736,1280,l),
(610,1280,o),
(508,1178,o),
(508,1052,c)
);
}
);
width = 896;
},
{
layerId = "FF87E3F2-B049-41CB-BF2F-09DB15105515";
shapes = (
{
attr = {
fillColor = (0,255);
lineCapEnd = "1";
lineCapStart = "1";
strokeHeight = 300;
strokePos = 0;
strokeWidth = 300;
};
closed = 0;
nodes = (
(279,-99,l),
(304,-99,o),
(325,-78,o),
(325,-52,cs),
(325,342,l)
);
},
{
attr = {
fillColor = (0,255);
lineCapEnd = "2";
lineCapStart = "2";
strokeHeight = 300;
strokeWidth = 300;
};
closed = 0;
nodes = (
(845,700,l),
(125,700,l)
);
},
{
attr = {
fillColor = (0,255);
lineCapEnd = "1";
lineCapStart = "1";
strokeHeight = 300;
strokePos = "0";
strokeWidth = 300;
};
closed = 0;
nodes = (
(671,1099,l),
(646,1099,o),
(625,1078,o),
(625,1052,c)
);
}
);
width = 970;
}
);
metricLeft = asterisk;
metricRight = asterisk;
unicode = 402;
},
{
color = 8;
glyphname = at;
lastChange = "2022-06-05 19:17:41 +0000";
layers = (
{
layerId = m01;
shapes = (
{
attr = {
strokeHeight = 50;
strokePos = "0";
strokeWidth = 50;
};
closed = 1;
nodes = (
(874,471,o),
(976,573,o),
(976,700,cs),
(976,827,o),
(874,929,o),
(747,929,cs),
(620,929,o),
(518,827,o),
(518,700,cs),
(518,573,o),
(620,471,o),
(747,471,cs)
);
},
{
attr = {
lineCapEnd = "2";
lineCapStart = "2";
strokeHeight = 50;
strokePos = "0";
strokeWidth = 50;
};
closed = 0;
nodes = (
(1230,1158,l),
(974,1414,o),
(560,1414,o),
(305,1159,cs),
(50,904,o),
(50,489,o),
(305,234,cs),
(433,106,o),
(599,43,o),
(767,43,cs),
(1268,43,l)
);
}
);
width = 1356;
},
{
layerId = "19FA402B-9607-46D9-AAD6-815AECBA5B6B";
shapes = (
{
attr = {
strokeHeight = 120;
strokePos = "0";
strokeWidth = 120;
};
closed = 1;
nodes = (
(888,490,o),
(982,584,o),
(982,700,cs),
(982,816,o),
(888,910,o),
(772,910,cs),
(656,910,o),
(562,816,o),
(562,700,cs),
(562,584,o),
(656,490,o),
(772,490,cs)
);
},
{
attr = {
lineCapEnd = 2;
lineCapStart = 2;
strokeHeight = 120;
strokePos = 0;
strokeWidth = 120;
};
closed = 0;
nodes = (
(1191,1110,l),
(964,1337,o),
(596,1337,o),
(370,1111,cs),
(143,884,o),
(143,516,o),
(370,289,cs),
(483,176,o),
(631,120,o),
(780,120,cs),
(1225,120,l)
);
}
);
width = 1354;
},
{
layerId = "FF87E3F2-B049-41CB-BF2F-09DB15105515";
shapes = (
{
attr = {
strokeHeight = 250;
strokePos = "0";
strokeWidth = 250;
};
closed = 1;
nodes = (
(832,650,o),
(855,673,o),
(855,701,cs),
(855,729,o),
(832,752,o),
(804,752,cs),
(776,752,o),
(753,729,o),
(753,701,cs),
(753,673,o),
(776,650,o),
(804,650,cs)
);
},
{
attr = {
lineCapEnd = "2";
lineCapStart = "2";
strokeHeight = 300;
strokePos = "0";
strokeWidth = 300;
};
closed = 0;
nodes = (
(1090,990,l),
(931,1149,o),
(676,1149,o),
(518,991,cs),
(360,833,o),
(360,576,o),
(518,418,cs),
(597,339,o),
(700,300,o),
(805,300,cs),
(1266,300,l)
);
}
);
width = 1391;
}
);
metricLeft = O;
metricRight = asterisk;
unicode = 64;
},
{
color = 8;
glyphname = ampersand;
lastChange = "2022-06-05 19:17:41 +0000";
layers = (
{
layerId = m01;
shapes = (
{
attr = {
fillColor = (0,255);
identifier = ID0x600003efe680;
lineCapEnd = 2;
strokeHeight = 50;
strokePos = "0";
strokeWidth = 50;
};
closed = 0;
nodes = (
(575,675,l),
(405,675,ls),
(233,675,o),
(93,507,o),
(93,348,cs),
(93,190,o),
(233,50,o),
(405,50,cs),
(635,50,l)
);
},
{
attr = {
fillColor = (0,255);
identifier = ID0x600003efe680;
lineCapEnd = "2";
lineCapStart = "2";
strokeHeight = 50;
strokePos = 0;
strokeWidth = 50;
};
closed = 0;
nodes = (
(950,723,l),
(950,3,l)
);
},
{
attr = {
fillColor = (0,255);
identifier = ID0x600003efe680;
lineCapEnd = "2";
lineCapStart = "1";
strokeHeight = 50;
strokePos = "1";
strokeWidth = 50;
};
closed = 0;
nodes = (
(715,725,l),
(525,725,ls),
(353,725,o),
(213,865,o),
(213,1038,cs),
(213,1211,o),
(353,1350,o),
(525,1350,cs),
(970,1350,l)
);
}
);
width = 1058;
},
{
layerId = "19FA402B-9607-46D9-AAD6-815AECBA5B6B";
shapes = (
{
attr = {
fillColor = (0,255);
identifier = ID0x60000243ddc0;
lineCapEnd = "2";
strokeHeight = 120;
strokePos = 0;
strokeWidth = 120;
};
closed = 0;
nodes = (
(550,640,l),
(430,640,ls),
(286,640,o),
(170,524,o),
(170,380,cs),
(170,236,o),
(286,120,o),
(430,120,cs),
(690,120,l)
);
},
{
attr = {
fillColor = (0,255);
identifier = ID0x60000ffeaae0;
lineCapEnd = "2";
lineCapStart = "2";
strokeHeight = 120;
strokePos = 0;
strokeWidth = 120;
};
closed = 0;
nodes = (
(940,880,l),
(940,0,l)
);
},
{
attr = {
fillColor = (0,255);
identifier = ID0x60000243ddc0;
lineCapEnd = "2";
lineCapStart = 2;
strokeHeight = 120;
strokePos = 1;
strokeWidth = 120;
};
closed = 0;
nodes = (
(670,760,l),
(530,760,ls),
(386,760,o),
(270,876,o),
(270,1020,cs),
(270,1164,o),
(386,1280,o),
(530,1280,cs),
(934,1280,l)
);
}
);
width = 1040;
},
{
layerId = "FF87E3F2-B049-41CB-BF2F-09DB15105515";
shapes = (
{
attr = {
fillColor = (0,255);
identifier = ID0x600003e325a0;
lineCapEnd = 2;
strokeHeight = 300;
strokePos = 0;
strokeWidth = 300;
};
closed = 0;
nodes = (
(611,551,l),
(480,551,ls),
(411,551,o),
(355,495,o),
(355,426,cs),
(355,357,o),
(411,300,o),
(480,300,cs),
(691,300,l)
);
},
{
attr = {
fillColor = (0,255);
identifier = ID0x600003e325a0;
lineCapEnd = "2";
lineCapStart = "2";
strokeHeight = 300;
strokePos = "1";
strokeWidth = 300;
};
closed = 0;
nodes = (
(840,838,l),
(840,15,l)
);
},
{
attr = {
fillColor = (0,255);
identifier = ID0x600003e325a0;
lineCapEnd = 1;
lineCapStart = 2;
strokeHeight = 300;
strokePos = 1;
strokeWidth = 300;
};
closed = 0;
nodes = (
(730,851,l),
(560,851,ls),
(492,851,o),
(436,907,o),
(436,976,cs),
(436,1044,o),
(492,1100,o),
(560,1100,cs),
(990,1100,l)
);
}
);
width = 1250;
}
);
metricLeft = "=|B";
metricRight = H;
unicode = 38;
},
{
color = 8;
glyphname = paragraph;
lastChange = "2022-06-05 19:17:50 +0000";
layers = (
{
layerId = m01;
shapes = (
{
closed = 1;
nodes = (
(424,699,o),
(438,710,o),
(438,725,cs),
(438,738,o),
(427,749,o),
(414,750,cs),
(258,760,o),
(135,891,o),
(135,1050,cs),
(135,1209,o),
(258,1340,o),
(414,1350,cs),
(427,1351,o),
(438,1362,o),
(438,1375,cs),
(438,1390,o),
(424,1401,o),
(411,1400,cs),
(229,1388,o),
(85,1235,o),
(85,1050,cs),
(85,865,o),
(229,712,o),
(411,700,cs)
);
},
{
attr = {
fillColor = (0,255);
lineCapEnd = "2";
lineCapStart = "2";
strokeHeight = 50;
strokeWidth = 50;
};
closed = 0;
nodes = (
(574,1397,l),
(574,3,l)
);
},
{
attr = {
fillColor = (0,255);
lineCapEnd = "2";
lineCapStart = "2";
strokeHeight = 50;
strokeWidth = 50;
};
closed = 0;
nodes = (
(874,1397,l),
(874,3,l)
);
}
);
width = 979;
},
{
layerId = "19FA402B-9607-46D9-AAD6-815AECBA5B6B";
shapes = (
{
closed = 1;
nodes = (
(420,700,o),
(456,725,o),
(456,765,cs),
(456,794,o),
(435,819,o),
(407,824,cs),
(301,844,o),
(220,938,o),
(220,1050,cs),
(220,1162,o),
(301,1256,o),
(407,1276,cs),
(435,1281,o),
(456,1306,o),
(456,1335,cs),
(456,1375,o),
(420,1400,o),
(385,1394,cs),
(223,1364,o),
(100,1221,o),
(100,1050,cs),
(100,879,o),
(223,736,o),
(385,706,cs)
);
},
{
attr = {
fillColor = (0,255);
lineCapEnd = "2";
lineCapStart = "2";
strokeHeight = 120;
strokeWidth = 120;
};
closed = 0;
nodes = (
(624,1394,l),
(624,6,l)
);
},
{
attr = {
fillColor = (0,255);
lineCapEnd = "2";
lineCapStart = "2";
strokeHeight = 120;
strokeWidth = 120;
};
closed = 0;
nodes = (
(924,1394,l),
(924,6,l)
);
}
);
width = 1084;
},
{
layerId = "FF87E3F2-B049-41CB-BF2F-09DB15105515";
shapes = (
{
closed = 1;
nodes = (
(527,399,o),
(640,462,o),
(640,574,cs),
(640,638,o),
(600,692,o),
(545,714,cs),
(466,745,o),
(410,822,o),
(410,912,cs),
(410,1002,o),
(466,1079,o),
(545,1110,cs),
(601,1131,o),
(641,1186,o),
(641,1250,cs),
(641,1364,o),
(524,1426,o),
(436,1389,cs),
(245,1315,o),
(110,1129,o),
(110,912,cs),
(110,695,o),
(245,509,o),
(436,435,cs)
);
},
{
attr = {
fillColor = (0,255);
lineCapEnd = "2";
lineCapStart = "2";
strokeHeight = 300;
strokeWidth = 300;
};
closed = 0;
nodes = (
(885,1385,l),
(885,15,l)
);
},
{
attr = {
fillColor = (0,255);
lineCapEnd = "2";
lineCapStart = "2";
strokeHeight = 300;
strokeWidth = 300;
};
closed = 0;
nodes = (
(1285,1385,l),
(1285,15,l)
);
}
);
width = 1585;
}
);
metricLeft = asterisk;
metricRight = period;
unicode = 182;
},
{
color = 8;
glyphname = section;
lastChange = "2022-06-05 19:17:50 +0000";
layers = (
{
layerId = m01;
shapes = (
{
attr = {
strokeHeight = 50;
strokePos = "0";
strokeWidth = 50;
};
closed = 1;
nodes = (
(533,519,o),
(615,601,o),
(615,700,cs),
(615,799,o),
(533,881,o),
(435,881,cs),
(336,881,o),
(254,799,o),
(254,700,cs),
(254,601,o),
(336,519,o),
(435,519,cs)
);
},
{
attr = {
fillColor = (0,255);
lineCapEnd = "1";
lineCapStart = "2";
strokeHeight = 50;
strokePos = "0";
strokeWidth = 50;
};
closed = 0;
nodes = (
(87,50,l),
(475,50,ls),
(616,50,o),
(731,164,o),
(731,305,c)
);
},
{
attr = {
fillColor = (0,255);
lineCapEnd = "1";
lineCapStart = "2";
strokeHeight = 50;
strokePos = "0";
strokeWidth = 50;
};
closed = 0;
nodes = (
(781,1350,l),
(393,1350,ls),
(252,1350,o),
(137,1236,o),
(137,1095,c)
);
}
);
width = 869;
},
{
layerId = "19FA402B-9607-46D9-AAD6-815AECBA5B6B";
shapes = (
{
attr = {
strokePos = 0;
strokeWidth = 120;
};
closed = 1;
nodes = (
(541,539,o),
(614,612,o),
(614,700,cs),
(614,788,o),
(541,861,o),
(453,861,cs),
(365,861,o),
(292,788,o),
(292,700,cs),
(292,612,o),
(365,539,o),
(453,539,cs)
);
},
{
attr = {
fillColor = (0,255);
lineCapEnd = "1";
lineCapStart = "2";
strokeHeight = 120;
strokePos = "0";
strokeWidth = 120;
};
closed = 0;
nodes = (
(106,120,l),
(452,120,ls),
(578,120,o),
(680,222,o),
(680,348,c)
);
},
{
attr = {
fillColor = (0,255);
lineCapEnd = "1";
lineCapStart = "2";
strokeHeight = 120;
strokePos = "0";
strokeWidth = 120;
};
closed = 0;
nodes = (
(800,1280,l),
(454,1280,ls),
(328,1280,o),
(226,1178,o),
(226,1052,c)
);
}
);
width = 906;
},
{
layerId = "FF87E3F2-B049-41CB-BF2F-09DB15105515";
shapes = (
{
attr = {
strokeHeight = 200;
strokePos = "0";
strokeWidth = 200;
};
closed = 1;
nodes = (
(671,628,o),
(703,660,o),
(703,700,cs),
(703,740,o),
(671,772,o),
(631,772,cs),
(591,772,o),
(559,740,o),
(559,700,cs),
(559,660,o),
(591,628,o),
(631,628,cs)
);
},
{
attr = {
fillColor = (0,255);
lineCapEnd = "1";
lineCapStart = "2";
strokeHeight = 300;
strokePos = "0";
strokeWidth = 300;
};
closed = 0;
nodes = (
(125,300,l),
(680,300,ls),
(767,300,o),
(837,370,o),
(837,457,c)
);
},
{
attr = {
fillColor = (0,255);
lineCapEnd = "1";
lineCapStart = "2";
strokeHeight = 300;
strokePos = "0";
strokeWidth = 300;
};
closed = 0;
nodes = (
(1137,1100,l),
(582,1100,ls),
(495,1100,o),
(425,1030,o),
(425,943,c)
);
}
);
width = 1262;
}
);
metricLeft = asterisk;
metricRight = asterisk;
unicode = 167;
},
